G04 #@! TF.GenerationSoftware,KiCad,Pcbnew,(6.0.8)*
G04 #@! TF.CreationDate,2023-03-04T03:21:24+09:00*
G04 #@! TF.ProjectId,ma8ic_split_69_right_bottom_plate,6d613869-635f-4737-906c-69745f36395f,0.1*
G04 #@! TF.SameCoordinates,Original*
G04 #@! TF.FileFunction,Legend,Top*
G04 #@! TF.FilePolarity,Positive*
%FSLAX46Y46*%
G04 Gerber Fmt 4.6, Leading zero omitted, Abs format (unit mm)*
G04 Created by KiCad (PCBNEW (6.0.8)) date 2023-03-04 03:21:24*
%MOMM*%
%LPD*%
G01*
G04 APERTURE LIST*
%ADD10C,0.800000*%
%ADD11C,0.150000*%
G04 APERTURE END LIST*
D10*
X116207385Y-89630275D02*
X116207385Y-85630275D01*
X116207385Y-86201704D02*
X116493100Y-85915990D01*
X117064528Y-85630275D01*
X117921671Y-85630275D01*
X118493100Y-85915990D01*
X118778814Y-86487418D01*
X118778814Y-89630275D01*
X118778814Y-86487418D02*
X119064528Y-85915990D01*
X119635957Y-85630275D01*
X120493100Y-85630275D01*
X121064528Y-85915990D01*
X121350242Y-86487418D01*
X121350242Y-89630275D01*
X126778814Y-89630275D02*
X126778814Y-86487418D01*
X126493100Y-85915990D01*
X125921671Y-85630275D01*
X124778814Y-85630275D01*
X124207385Y-85915990D01*
X126778814Y-89344561D02*
X126207385Y-89630275D01*
X124778814Y-89630275D01*
X124207385Y-89344561D01*
X123921671Y-88773132D01*
X123921671Y-88201704D01*
X124207385Y-87630275D01*
X124778814Y-87344561D01*
X126207385Y-87344561D01*
X126778814Y-87058847D01*
X130493100Y-86201704D02*
X129921671Y-85915990D01*
X129635957Y-85630275D01*
X129350242Y-85058847D01*
X129350242Y-84773132D01*
X129635957Y-84201704D01*
X129921671Y-83915990D01*
X130493100Y-83630275D01*
X131635957Y-83630275D01*
X132207385Y-83915990D01*
X132493100Y-84201704D01*
X132778814Y-84773132D01*
X132778814Y-85058847D01*
X132493100Y-85630275D01*
X132207385Y-85915990D01*
X131635957Y-86201704D01*
X130493100Y-86201704D01*
X129921671Y-86487418D01*
X129635957Y-86773132D01*
X129350242Y-87344561D01*
X129350242Y-88487418D01*
X129635957Y-89058847D01*
X129921671Y-89344561D01*
X130493100Y-89630275D01*
X131635957Y-89630275D01*
X132207385Y-89344561D01*
X132493100Y-89058847D01*
X132778814Y-88487418D01*
X132778814Y-87344561D01*
X132493100Y-86773132D01*
X132207385Y-86487418D01*
X131635957Y-86201704D01*
X135350242Y-89630275D02*
X135350242Y-85630275D01*
X135350242Y-83630275D02*
X135064528Y-83915990D01*
X135350242Y-84201704D01*
X135635957Y-83915990D01*
X135350242Y-83630275D01*
X135350242Y-84201704D01*
X140778814Y-89344561D02*
X140207385Y-89630275D01*
X139064528Y-89630275D01*
X138493100Y-89344561D01*
X138207385Y-89058847D01*
X137921671Y-88487418D01*
X137921671Y-86773132D01*
X138207385Y-86201704D01*
X138493100Y-85915990D01*
X139064528Y-85630275D01*
X140207385Y-85630275D01*
X140778814Y-85915990D01*
X147635957Y-89344561D02*
X148207385Y-89630275D01*
X149350242Y-89630275D01*
X149921671Y-89344561D01*
X150207385Y-88773132D01*
X150207385Y-88487418D01*
X149921671Y-87915990D01*
X149350242Y-87630275D01*
X148493100Y-87630275D01*
X147921671Y-87344561D01*
X147635957Y-86773132D01*
X147635957Y-86487418D01*
X147921671Y-85915990D01*
X148493100Y-85630275D01*
X149350242Y-85630275D01*
X149921671Y-85915990D01*
X152778814Y-85630275D02*
X152778814Y-91630275D01*
X152778814Y-85915990D02*
X153350242Y-85630275D01*
X154493100Y-85630275D01*
X155064528Y-85915990D01*
X155350242Y-86201704D01*
X155635957Y-86773132D01*
X155635957Y-88487418D01*
X155350242Y-89058847D01*
X155064528Y-89344561D01*
X154493100Y-89630275D01*
X153350242Y-89630275D01*
X152778814Y-89344561D01*
X159064528Y-89630275D02*
X158493100Y-89344561D01*
X158207385Y-88773132D01*
X158207385Y-83630275D01*
X161350242Y-89630275D02*
X161350242Y-85630275D01*
X161350242Y-83630275D02*
X161064528Y-83915990D01*
X161350242Y-84201704D01*
X161635957Y-83915990D01*
X161350242Y-83630275D01*
X161350242Y-84201704D01*
X163350242Y-85630275D02*
X165635957Y-85630275D01*
X164207385Y-83630275D02*
X164207385Y-88773132D01*
X164493100Y-89344561D01*
X165064528Y-89630275D01*
X165635957Y-89630275D01*
D11*
G04 #@! TO.C,*
G04 #@! TD*
M02*
