G04 #@! TF.GenerationSoftware,KiCad,Pcbnew,(6.0.8)*
G04 #@! TF.CreationDate,2023-01-04T18:39:37+09:00*
G04 #@! TF.ProjectId,HatsuLight69_left.kicad_pcb,48617473-754c-4696-9768-7436395f6c65,0.1*
G04 #@! TF.SameCoordinates,Original*
G04 #@! TF.FileFunction,Soldermask,Top*
G04 #@! TF.FilePolarity,Negative*
%FSLAX46Y46*%
G04 Gerber Fmt 4.6, Leading zero omitted, Abs format (unit mm)*
G04 Created by KiCad (PCBNEW (6.0.8)) date 2023-01-04 18:39:37*
%MOMM*%
%LPD*%
G01*
G04 APERTURE LIST*
G04 Aperture macros list*
%AMHorizOval*
0 Thick line with rounded ends*
0 $1 width*
0 $2 $3 position (X,Y) of the first rounded end (center of the circle)*
0 $4 $5 position (X,Y) of the second rounded end (center of the circle)*
0 Add line between two ends*
20,1,$1,$2,$3,$4,$5,0*
0 Add two circle primitives to create the rounded ends*
1,1,$1,$2,$3*
1,1,$1,$4,$5*%
%AMRotRect*
0 Rectangle, with rotation*
0 The origin of the aperture is its center*
0 $1 length*
0 $2 width*
0 $3 Rotation angle, in degrees counterclockwise*
0 Add horizontal line*
21,1,$1,$2,0,0,$3*%
G04 Aperture macros list end*
%ADD10C,3.000000*%
%ADD11C,2.200000*%
%ADD12C,1.200000*%
%ADD13C,0.600000*%
%ADD14O,1.200000X2.400000*%
%ADD15RotRect,1.700000X1.700000X345.000000*%
%ADD16HorizOval,1.700000X0.000000X0.000000X0.000000X0.000000X0*%
G04 APERTURE END LIST*
D10*
G04 #@! TO.C,SW6*
X135731300Y-47571910D03*
X130731300Y-45371910D03*
G04 #@! TD*
G04 #@! TO.C,SW33*
X191419289Y-126007581D03*
X186328120Y-127987480D03*
G04 #@! TD*
D11*
G04 #@! TO.C,*
X50006292Y-32146875D03*
G04 #@! TD*
D10*
G04 #@! TO.C,SW26*
X169306300Y-95121910D03*
X164306300Y-92921910D03*
G04 #@! TD*
G04 #@! TO.C,SW21*
X173831300Y-73871910D03*
X178831300Y-76071910D03*
G04 #@! TD*
D11*
G04 #@! TO.C,*
X196453290Y-52982857D03*
G04 #@! TD*
D10*
G04 #@! TO.C,SW20*
X154781300Y-73871910D03*
X159781300Y-76071910D03*
G04 #@! TD*
G04 #@! TO.C,SW28*
X64531300Y-114171910D03*
X59531300Y-111971910D03*
G04 #@! TD*
D11*
G04 #@! TO.C,*
X126206356Y-32146875D03*
G04 #@! TD*
D10*
G04 #@! TO.C,SW4*
X97631300Y-47571910D03*
X92631300Y-45371910D03*
G04 #@! TD*
G04 #@! TO.C,SW25*
X145256300Y-92921910D03*
X150256300Y-95121910D03*
G04 #@! TD*
G04 #@! TO.C,SW11*
X112156300Y-57021910D03*
X107156300Y-54821910D03*
G04 #@! TD*
G04 #@! TO.C,SW12*
X126206300Y-54821910D03*
X131206300Y-57021910D03*
G04 #@! TD*
G04 #@! TO.C,SW29*
X78581300Y-111971910D03*
X83581300Y-114171910D03*
G04 #@! TD*
G04 #@! TO.C,SW30*
X97631300Y-111971910D03*
X102631300Y-114171910D03*
G04 #@! TD*
D11*
G04 #@! TO.C,*
X50006292Y-51196875D03*
G04 #@! TD*
D10*
G04 #@! TO.C,SW2*
X54531300Y-45371910D03*
X59531300Y-47571910D03*
G04 #@! TD*
D11*
G04 #@! TO.C,*
X126206356Y-87511011D03*
G04 #@! TD*
D10*
G04 #@! TO.C,SW27*
X183356300Y-92921910D03*
X188356300Y-95121910D03*
G04 #@! TD*
G04 #@! TO.C,SW9*
X64293800Y-54821910D03*
X69293800Y-57021910D03*
G04 #@! TD*
G04 #@! TO.C,SW17*
X97631300Y-73871910D03*
X102631300Y-76071910D03*
G04 #@! TD*
G04 #@! TO.C,SW19*
X135731300Y-73871910D03*
X140731300Y-76071910D03*
G04 #@! TD*
G04 #@! TO.C,SW8*
X168831300Y-45371910D03*
X173831300Y-47571910D03*
G04 #@! TD*
G04 #@! TO.C,SW15*
X183356300Y-54821910D03*
X188356300Y-57021910D03*
G04 #@! TD*
D11*
G04 #@! TO.C,REF\u002A\u002A*
X97631332Y-52982857D03*
G04 #@! TD*
D10*
G04 #@! TO.C,SW10*
X93106300Y-57021910D03*
X88106300Y-54821910D03*
G04 #@! TD*
G04 #@! TO.C,SW16*
X69056300Y-73871910D03*
X74056300Y-76071910D03*
G04 #@! TD*
D11*
G04 #@! TO.C,REF\u002A\u002A*
X69056308Y-108942279D03*
G04 #@! TD*
D10*
G04 #@! TO.C,SW13*
X145256300Y-54821910D03*
X150256300Y-57021910D03*
G04 #@! TD*
G04 #@! TO.C,SW24*
X131206300Y-95121910D03*
X126206300Y-92921910D03*
G04 #@! TD*
G04 #@! TO.C,SW7*
X154781300Y-47571910D03*
X149781300Y-45371910D03*
G04 #@! TD*
G04 #@! TO.C,SW3*
X78581300Y-47571910D03*
X73581300Y-45371910D03*
G04 #@! TD*
G04 #@! TO.C,SW22*
X78818812Y-95121910D03*
X73818812Y-92921910D03*
G04 #@! TD*
G04 #@! TO.C,SW32*
X165331060Y-122735830D03*
X161070832Y-119316698D03*
G04 #@! TD*
G04 #@! TO.C,SW18*
X121681300Y-76071910D03*
X116681300Y-73871910D03*
G04 #@! TD*
G04 #@! TO.C,SW5*
X116681300Y-47571910D03*
X111681300Y-45371910D03*
G04 #@! TD*
D11*
G04 #@! TO.C,REF\u002A\u002A*
X173831396Y-52982857D03*
G04 #@! TD*
D10*
G04 #@! TO.C,SW14*
X169306300Y-57021910D03*
X164306300Y-54821910D03*
G04 #@! TD*
D11*
G04 #@! TO.C,REF\u002A\u002A*
X184547030Y-119062600D03*
G04 #@! TD*
D10*
G04 #@! TO.C,SW31*
X126443800Y-114171910D03*
X121443800Y-111971910D03*
G04 #@! TD*
G04 #@! TO.C,SW23*
X112156300Y-95121910D03*
X107156300Y-92921910D03*
G04 #@! TD*
D12*
G04 #@! TO.C,J2*
X196136392Y-44934242D03*
X189242738Y-46149780D03*
G04 #@! TD*
D13*
G04 #@! TO.C,J1*
X190595000Y-36965732D03*
X189795000Y-36965732D03*
X188995000Y-36965732D03*
X188195000Y-36965732D03*
X187395000Y-36965732D03*
X186595000Y-36965732D03*
D14*
X183045000Y-37415732D03*
X194145000Y-37415732D03*
X183045000Y-32365732D03*
X194145000Y-32365732D03*
G04 #@! TD*
D15*
G04 #@! TO.C,J4*
X145837183Y-128587500D03*
D16*
X146494583Y-126134048D03*
X147151984Y-123680597D03*
X147809384Y-121227145D03*
X148466784Y-118773694D03*
X149124185Y-116320242D03*
X149781585Y-113866790D03*
G04 #@! TD*
M02*
