G04 #@! TF.GenerationSoftware,KiCad,Pcbnew,(6.0.8)*
G04 #@! TF.CreationDate,2023-01-03T19:57:49+09:00*
G04 #@! TF.ProjectId,HatsuLight69_left.kicad_pcb,48617473-754c-4696-9768-7436395f6c65,0.1*
G04 #@! TF.SameCoordinates,Original*
G04 #@! TF.FileFunction,Paste,Bot*
G04 #@! TF.FilePolarity,Positive*
%FSLAX46Y46*%
G04 Gerber Fmt 4.6, Leading zero omitted, Abs format (unit mm)*
G04 Created by KiCad (PCBNEW (6.0.8)) date 2023-01-03 19:57:49*
%MOMM*%
%LPD*%
G01*
G04 APERTURE LIST*
G04 Aperture macros list*
%AMRoundRect*
0 Rectangle with rounded corners*
0 $1 Rounding radius*
0 $2 $3 $4 $5 $6 $7 $8 $9 X,Y pos of 4 corners*
0 Add a 4 corners polygon primitive as box body*
4,1,4,$2,$3,$4,$5,$6,$7,$8,$9,$2,$3,0*
0 Add four circle primitives for the rounded corners*
1,1,$1+$1,$2,$3*
1,1,$1+$1,$4,$5*
1,1,$1+$1,$6,$7*
1,1,$1+$1,$8,$9*
0 Add four rect primitives between the rounded corners*
20,1,$1+$1,$2,$3,$4,$5,0*
20,1,$1+$1,$4,$5,$6,$7,0*
20,1,$1+$1,$6,$7,$8,$9,0*
20,1,$1+$1,$8,$9,$2,$3,0*%
%AMRotRect*
0 Rectangle, with rotation*
0 The origin of the aperture is its center*
0 $1 length*
0 $2 width*
0 $3 Rotation angle, in degrees counterclockwise*
0 Add horizontal line*
21,1,$1,$2,0,0,$3*%
G04 Aperture macros list end*
%ADD10R,2.600000X2.600000*%
%ADD11RotRect,2.600000X2.600000X45.000000*%
%ADD12RotRect,2.600000X2.600000X345.000000*%
%ADD13R,1.000000X1.400000*%
%ADD14RoundRect,0.140000X0.170000X-0.140000X0.170000X0.140000X-0.170000X0.140000X-0.170000X-0.140000X0*%
%ADD15RoundRect,0.135000X0.135000X0.185000X-0.135000X0.185000X-0.135000X-0.185000X0.135000X-0.185000X0*%
%ADD16R,1.700000X1.000000*%
%ADD17RoundRect,0.218750X-0.170929X-0.290343X0.259924X-0.214371X0.170929X0.290343X-0.259924X0.214371X0*%
%ADD18RoundRect,0.135000X0.185000X-0.135000X0.185000X0.135000X-0.185000X0.135000X-0.185000X-0.135000X0*%
%ADD19RotRect,1.700000X1.000000X165.000000*%
%ADD20RoundRect,0.135000X-0.185000X0.135000X-0.185000X-0.135000X0.185000X-0.135000X0.185000X0.135000X0*%
%ADD21RotRect,1.400000X1.000000X135.000000*%
%ADD22RotRect,0.400000X1.900000X45.000000*%
%ADD23RoundRect,0.135000X-0.135000X-0.185000X0.135000X-0.185000X0.135000X0.185000X-0.135000X0.185000X0*%
%ADD24RoundRect,0.140000X-0.170000X0.140000X-0.170000X-0.140000X0.170000X-0.140000X0.170000X0.140000X0*%
%ADD25RotRect,1.500000X0.550000X225.000000*%
%ADD26RotRect,1.500000X0.550000X135.000000*%
%ADD27RotRect,1.700000X1.000000X225.000000*%
%ADD28RotRect,1.400000X1.000000X75.000000*%
G04 APERTURE END LIST*
D10*
G04 #@! TO.C,SW6*
X127431300Y-45371910D03*
X139031300Y-47571910D03*
G04 #@! TD*
D11*
G04 #@! TO.C,SW33*
X193752741Y-123674129D03*
X183994668Y-130320932D03*
G04 #@! TD*
D10*
G04 #@! TO.C,SW26*
X172606300Y-95121910D03*
X161006300Y-92921910D03*
G04 #@! TD*
G04 #@! TO.C,SW21*
X182131300Y-76071910D03*
X170531300Y-73871910D03*
G04 #@! TD*
G04 #@! TO.C,SW20*
X163081300Y-76071910D03*
X151481300Y-73871910D03*
G04 #@! TD*
G04 #@! TO.C,SW28*
X67831300Y-114171910D03*
X56231300Y-111971910D03*
G04 #@! TD*
G04 #@! TO.C,SW4*
X89331300Y-45371910D03*
X100931300Y-47571910D03*
G04 #@! TD*
G04 #@! TO.C,SW25*
X153556300Y-95121910D03*
X141956300Y-92921910D03*
G04 #@! TD*
G04 #@! TO.C,SW11*
X115456300Y-57021910D03*
X103856300Y-54821910D03*
G04 #@! TD*
G04 #@! TO.C,SW12*
X134506300Y-57021910D03*
X122906300Y-54821910D03*
G04 #@! TD*
G04 #@! TO.C,SW29*
X86881300Y-114171910D03*
X75281300Y-111971910D03*
G04 #@! TD*
G04 #@! TO.C,SW30*
X105931300Y-114171910D03*
X94331300Y-111971910D03*
G04 #@! TD*
G04 #@! TO.C,SW2*
X51231300Y-45371910D03*
X62831300Y-47571910D03*
G04 #@! TD*
G04 #@! TO.C,SW27*
X191656300Y-95121910D03*
X180056300Y-92921910D03*
G04 #@! TD*
G04 #@! TO.C,SW9*
X72593800Y-57021910D03*
X60993800Y-54821910D03*
G04 #@! TD*
G04 #@! TO.C,SW17*
X105931300Y-76071910D03*
X94331300Y-73871910D03*
G04 #@! TD*
G04 #@! TO.C,SW19*
X144031300Y-76071910D03*
X132431300Y-73871910D03*
G04 #@! TD*
G04 #@! TO.C,SW8*
X165531300Y-45371910D03*
X177131300Y-47571910D03*
G04 #@! TD*
G04 #@! TO.C,SW15*
X191656300Y-57021910D03*
X180056300Y-54821910D03*
G04 #@! TD*
G04 #@! TO.C,SW10*
X96406300Y-57021910D03*
X84806300Y-54821910D03*
G04 #@! TD*
G04 #@! TO.C,SW16*
X77356300Y-76071910D03*
X65756300Y-73871910D03*
G04 #@! TD*
G04 #@! TO.C,SW13*
X153556300Y-57021910D03*
X141956300Y-54821910D03*
G04 #@! TD*
G04 #@! TO.C,SW24*
X134506300Y-95121910D03*
X122906300Y-92921910D03*
G04 #@! TD*
G04 #@! TO.C,SW7*
X146481300Y-45371910D03*
X158081300Y-47571910D03*
G04 #@! TD*
G04 #@! TO.C,SW3*
X70281300Y-45371910D03*
X81881300Y-47571910D03*
G04 #@! TD*
G04 #@! TO.C,SW22*
X82118812Y-95121910D03*
X70518812Y-92921910D03*
G04 #@! TD*
D12*
G04 #@! TO.C,SW32*
X168518615Y-123589933D03*
X157883277Y-118462595D03*
G04 #@! TD*
D10*
G04 #@! TO.C,SW18*
X124981300Y-76071910D03*
X113381300Y-73871910D03*
G04 #@! TD*
G04 #@! TO.C,SW5*
X108381300Y-45371910D03*
X119981300Y-47571910D03*
G04 #@! TD*
G04 #@! TO.C,SW14*
X172606300Y-57021910D03*
X161006300Y-54821910D03*
G04 #@! TD*
G04 #@! TO.C,SW31*
X129743800Y-114171910D03*
X118143800Y-111971910D03*
G04 #@! TD*
G04 #@! TO.C,SW23*
X115456300Y-95121910D03*
X103856300Y-92921910D03*
G04 #@! TD*
D13*
G04 #@! TO.C,D33*
X113109570Y-120837680D03*
X113109570Y-117287680D03*
G04 #@! TD*
D14*
G04 #@! TO.C,C6*
X197644016Y-70131701D03*
X197644016Y-69171701D03*
G04 #@! TD*
D13*
G04 #@! TO.C,D8*
X144065846Y-42256364D03*
X144065846Y-38706364D03*
G04 #@! TD*
D15*
G04 #@! TO.C,R2*
X187438125Y-40243125D03*
X186418125Y-40243125D03*
G04 #@! TD*
D14*
G04 #@! TO.C,C7*
X198834642Y-70131701D03*
X198834642Y-69171701D03*
G04 #@! TD*
D16*
G04 #@! TO.C,D43*
X104406440Y-103479855D03*
X104406440Y-104879855D03*
X109906440Y-104879855D03*
X109906440Y-103479855D03*
G04 #@! TD*
D17*
G04 #@! TO.C,D3*
X206631339Y-98482373D03*
X208182411Y-98208877D03*
G04 #@! TD*
D16*
G04 #@! TO.C,D55*
X85356424Y-65379823D03*
X85356424Y-66779823D03*
X90856424Y-66779823D03*
X90856424Y-65379823D03*
G04 #@! TD*
G04 #@! TO.C,D66*
X75831416Y-35614173D03*
X75831416Y-37014173D03*
X81331416Y-37014173D03*
X81331416Y-35614173D03*
G04 #@! TD*
D13*
G04 #@! TO.C,D10*
X165497114Y-42256364D03*
X165497114Y-38706364D03*
G04 #@! TD*
D18*
G04 #@! TO.C,R6*
X201811207Y-83853900D03*
X201811207Y-82833900D03*
G04 #@! TD*
D13*
G04 #@! TO.C,D17*
X175022122Y-63687632D03*
X175022122Y-60137632D03*
G04 #@! TD*
D16*
G04 #@! TO.C,D54*
X61543904Y-65379823D03*
X61543904Y-66779823D03*
X67043904Y-66779823D03*
X67043904Y-65379823D03*
G04 #@! TD*
D15*
G04 #@! TO.C,R8*
X202678125Y-97155000D03*
X201658125Y-97155000D03*
G04 #@! TD*
D19*
G04 #@! TO.C,D37*
X155671677Y-128930010D03*
X155309331Y-130282306D03*
X160621923Y-131705810D03*
X160984269Y-130353514D03*
G04 #@! TD*
D13*
G04 #@! TO.C,D24*
X65484530Y-101787664D03*
X65484530Y-98237664D03*
G04 #@! TD*
D20*
G04 #@! TO.C,R10*
X201811207Y-104860481D03*
X201811207Y-105880481D03*
G04 #@! TD*
D13*
G04 #@! TO.C,D14*
X117872074Y-63687632D03*
X117872074Y-60137632D03*
G04 #@! TD*
G04 #@! TO.C,D29*
X175022122Y-101787664D03*
X175022122Y-98237664D03*
G04 #@! TD*
G04 #@! TO.C,D20*
X108347066Y-82737648D03*
X108347066Y-79187648D03*
G04 #@! TD*
G04 #@! TO.C,D4*
X67865782Y-42256364D03*
X67865782Y-38706364D03*
G04 #@! TD*
G04 #@! TO.C,D28*
X155972106Y-101787664D03*
X155972106Y-98237664D03*
G04 #@! TD*
D16*
G04 #@! TO.C,D63*
X132981464Y-35614173D03*
X132981464Y-37014173D03*
X138481464Y-37014173D03*
X138481464Y-35614173D03*
G04 #@! TD*
D13*
G04 #@! TO.C,D26*
X117872074Y-101787664D03*
X117872074Y-98237664D03*
G04 #@! TD*
D21*
G04 #@! TO.C,D35*
X186397558Y-139963124D03*
X183887328Y-137452894D03*
G04 #@! TD*
D20*
G04 #@! TO.C,R11*
X200620581Y-104860481D03*
X200620581Y-105880481D03*
G04 #@! TD*
D16*
G04 #@! TO.C,D62*
X152031480Y-35614173D03*
X152031480Y-37014173D03*
X157531480Y-37014173D03*
X157531480Y-35614173D03*
G04 #@! TD*
G04 #@! TO.C,D41*
X56781400Y-122529871D03*
X56781400Y-123929871D03*
X62281400Y-123929871D03*
X62281400Y-122529871D03*
G04 #@! TD*
G04 #@! TO.C,D50*
X132981464Y-84429839D03*
X132981464Y-85829839D03*
X138481464Y-85829839D03*
X138481464Y-84429839D03*
G04 #@! TD*
G04 #@! TO.C,D67*
X56781400Y-35614173D03*
X56781400Y-37014173D03*
X62281400Y-37014173D03*
X62281400Y-35614173D03*
G04 #@! TD*
D13*
G04 #@! TO.C,D27*
X136922090Y-101787664D03*
X136922090Y-98237664D03*
G04 #@! TD*
G04 #@! TO.C,D15*
X136922090Y-63687632D03*
X136922090Y-60137632D03*
G04 #@! TD*
D22*
G04 #@! TO.C,X1*
X198581427Y-86573680D03*
X199429955Y-85725152D03*
X200278483Y-84876624D03*
G04 #@! TD*
D16*
G04 #@! TO.C,D59*
X161556488Y-65379823D03*
X161556488Y-66779823D03*
X167056488Y-66779823D03*
X167056488Y-65379823D03*
G04 #@! TD*
D18*
G04 #@! TO.C,R7*
X183951817Y-80282022D03*
X183951817Y-79262022D03*
G04 #@! TD*
D23*
G04 #@! TO.C,R4*
X189751875Y-40243125D03*
X190771875Y-40243125D03*
G04 #@! TD*
D24*
G04 #@! TO.C,C2*
X198834642Y-71552953D03*
X198834642Y-72512953D03*
G04 #@! TD*
D16*
G04 #@! TO.C,D39*
X94881432Y-122529871D03*
X94881432Y-123929871D03*
X100381432Y-123929871D03*
X100381432Y-122529871D03*
G04 #@! TD*
D13*
G04 #@! TO.C,D21*
X127397082Y-82737648D03*
X127397082Y-79187648D03*
G04 #@! TD*
D25*
G04 #@! TO.C,U1*
X194083594Y-72913086D03*
X194649279Y-73478772D03*
X195214964Y-74044457D03*
X195780650Y-74610142D03*
X196346335Y-75175828D03*
X196912021Y-75741513D03*
X197477706Y-76307199D03*
X198043392Y-76872884D03*
X198609077Y-77438570D03*
X199174762Y-78004255D03*
X199740448Y-78569940D03*
D26*
X199740448Y-80974104D03*
X199174762Y-81539789D03*
X198609077Y-82105474D03*
X198043392Y-82671160D03*
X197477706Y-83236845D03*
X196912021Y-83802531D03*
X196346335Y-84368216D03*
X195780650Y-84933902D03*
X195214964Y-85499587D03*
X194649279Y-86065272D03*
X194083594Y-86630958D03*
D25*
X191679430Y-86630958D03*
X191113745Y-86065272D03*
X190548060Y-85499587D03*
X189982374Y-84933902D03*
X189416689Y-84368216D03*
X188851003Y-83802531D03*
X188285318Y-83236845D03*
X187719632Y-82671160D03*
X187153947Y-82105474D03*
X186588262Y-81539789D03*
X186022576Y-80974104D03*
D26*
X186022576Y-78569940D03*
X186588262Y-78004255D03*
X187153947Y-77438570D03*
X187719632Y-76872884D03*
X188285318Y-76307199D03*
X188851003Y-75741513D03*
X189416689Y-75175828D03*
X189982374Y-74610142D03*
X190548060Y-74044457D03*
X191113745Y-73478772D03*
X191679430Y-72913086D03*
G04 #@! TD*
D13*
G04 #@! TO.C,D7*
X125015830Y-42256364D03*
X125015830Y-38706364D03*
G04 #@! TD*
G04 #@! TO.C,D31*
X70247034Y-120837680D03*
X70247034Y-117287680D03*
G04 #@! TD*
G04 #@! TO.C,D22*
X146447098Y-82737648D03*
X146447098Y-79187648D03*
G04 #@! TD*
G04 #@! TO.C,D19*
X89297050Y-82737648D03*
X89297050Y-79187648D03*
G04 #@! TD*
D16*
G04 #@! TO.C,D56*
X104406440Y-65379823D03*
X104406440Y-66779823D03*
X109906440Y-66779823D03*
X109906440Y-65379823D03*
G04 #@! TD*
G04 #@! TO.C,D58*
X142506472Y-65379823D03*
X142506472Y-66779823D03*
X148006472Y-66779823D03*
X148006472Y-65379823D03*
G04 #@! TD*
D13*
G04 #@! TO.C,D18*
X60722026Y-82737648D03*
X60722026Y-79187648D03*
G04 #@! TD*
D16*
G04 #@! TO.C,D47*
X180606504Y-103479855D03*
X180606504Y-104879855D03*
X186106504Y-104879855D03*
X186106504Y-103479855D03*
G04 #@! TD*
D13*
G04 #@! TO.C,D23*
X165497114Y-82737648D03*
X165497114Y-79187648D03*
G04 #@! TD*
D23*
G04 #@! TO.C,R3*
X189751875Y-41433750D03*
X190771875Y-41433750D03*
G04 #@! TD*
D13*
G04 #@! TO.C,D16*
X155972106Y-63687632D03*
X155972106Y-60137632D03*
G04 #@! TD*
G04 #@! TO.C,D25*
X98822058Y-101787664D03*
X98822058Y-98237664D03*
G04 #@! TD*
D16*
G04 #@! TO.C,D40*
X75831416Y-122529871D03*
X75831416Y-123929871D03*
X81331416Y-123929871D03*
X81331416Y-122529871D03*
G04 #@! TD*
D15*
G04 #@! TO.C,R5*
X202678125Y-95369061D03*
X201658125Y-95369061D03*
G04 #@! TD*
D16*
G04 #@! TO.C,D65*
X94881432Y-35614173D03*
X94881432Y-37014173D03*
X100381432Y-37014173D03*
X100381432Y-35614173D03*
G04 #@! TD*
D13*
G04 #@! TO.C,D32*
X89297050Y-120837680D03*
X89297050Y-117287680D03*
G04 #@! TD*
D27*
G04 #@! TO.C,D36*
X192029282Y-137482479D03*
X193019231Y-138472428D03*
X196908318Y-134583341D03*
X195918369Y-133593392D03*
G04 #@! TD*
D13*
G04 #@! TO.C,D12*
X79772042Y-63687632D03*
X79772042Y-60137632D03*
G04 #@! TD*
G04 #@! TO.C,D5*
X86915798Y-42256364D03*
X86915798Y-38706364D03*
G04 #@! TD*
D28*
G04 #@! TO.C,D34*
X150750198Y-125539702D03*
X151669006Y-122110666D03*
G04 #@! TD*
D14*
G04 #@! TO.C,C4*
X195262764Y-70131701D03*
X195262764Y-69171701D03*
G04 #@! TD*
D16*
G04 #@! TO.C,D46*
X161556488Y-103479855D03*
X161556488Y-104879855D03*
X167056488Y-104879855D03*
X167056488Y-103479855D03*
G04 #@! TD*
G04 #@! TO.C,D38*
X118693800Y-122529871D03*
X118693800Y-123929871D03*
X124193800Y-123929871D03*
X124193800Y-122529871D03*
G04 #@! TD*
G04 #@! TO.C,D45*
X142506472Y-103479855D03*
X142506472Y-104879855D03*
X148006472Y-104879855D03*
X148006472Y-103479855D03*
G04 #@! TD*
G04 #@! TO.C,D42*
X71068912Y-103479855D03*
X71068912Y-104879855D03*
X76568912Y-104879855D03*
X76568912Y-103479855D03*
G04 #@! TD*
D15*
G04 #@! TO.C,R1*
X187438125Y-41433750D03*
X186418125Y-41433750D03*
G04 #@! TD*
D16*
G04 #@! TO.C,D52*
X94881432Y-84429839D03*
X94881432Y-85829839D03*
X100381432Y-85829839D03*
X100381432Y-84429839D03*
G04 #@! TD*
D14*
G04 #@! TO.C,C1*
X192881512Y-70131701D03*
X192881512Y-69171701D03*
G04 #@! TD*
D16*
G04 #@! TO.C,D57*
X123456456Y-65379823D03*
X123456456Y-66779823D03*
X128956456Y-66779823D03*
X128956456Y-65379823D03*
G04 #@! TD*
G04 #@! TO.C,D48*
X171081496Y-84429839D03*
X171081496Y-85829839D03*
X176581496Y-85829839D03*
X176581496Y-84429839D03*
G04 #@! TD*
G04 #@! TO.C,D53*
X66306408Y-84429839D03*
X66306408Y-85829839D03*
X71806408Y-85829839D03*
X71806408Y-84429839D03*
G04 #@! TD*
D13*
G04 #@! TO.C,D13*
X98822058Y-63687632D03*
X98822058Y-60137632D03*
G04 #@! TD*
G04 #@! TO.C,D30*
X51197018Y-120837680D03*
X51197018Y-117287680D03*
G04 #@! TD*
D16*
G04 #@! TO.C,D61*
X171081496Y-35614173D03*
X171081496Y-37014173D03*
X176581496Y-37014173D03*
X176581496Y-35614173D03*
G04 #@! TD*
D17*
G04 #@! TO.C,D1*
X205678839Y-95148623D03*
X207229911Y-94875127D03*
G04 #@! TD*
D14*
G04 #@! TO.C,C3*
X194072138Y-70131701D03*
X194072138Y-69171701D03*
G04 #@! TD*
D16*
G04 #@! TO.C,D44*
X123456456Y-103479855D03*
X123456456Y-104879855D03*
X128956456Y-104879855D03*
X128956456Y-103479855D03*
G04 #@! TD*
D13*
G04 #@! TO.C,D11*
X55959522Y-63687632D03*
X55959522Y-60137632D03*
G04 #@! TD*
D14*
G04 #@! TO.C,C5*
X196453390Y-70131701D03*
X196453390Y-69171701D03*
G04 #@! TD*
D16*
G04 #@! TO.C,D51*
X113931448Y-84429839D03*
X113931448Y-85829839D03*
X119431448Y-85829839D03*
X119431448Y-84429839D03*
G04 #@! TD*
G04 #@! TO.C,D64*
X113931448Y-35614173D03*
X113931448Y-37014173D03*
X119431448Y-37014173D03*
X119431448Y-35614173D03*
G04 #@! TD*
D17*
G04 #@! TO.C,D2*
X206155089Y-96815498D03*
X207706161Y-96542002D03*
G04 #@! TD*
D23*
G04 #@! TO.C,R9*
X201658125Y-98940939D03*
X202678125Y-98940939D03*
G04 #@! TD*
D13*
G04 #@! TO.C,D6*
X105965814Y-42256364D03*
X105965814Y-38706364D03*
G04 #@! TD*
G04 #@! TO.C,D9*
X163115862Y-42256364D03*
X163115862Y-38706364D03*
G04 #@! TD*
D16*
G04 #@! TO.C,D49*
X152031480Y-84429839D03*
X152031480Y-85829839D03*
X157531480Y-85829839D03*
X157531480Y-84429839D03*
G04 #@! TD*
G04 #@! TO.C,D60*
X180606504Y-65379823D03*
X180606504Y-66779823D03*
X186106504Y-66779823D03*
X186106504Y-65379823D03*
G04 #@! TD*
M02*
