M48
; DRILL file {KiCad (6.0.8)} date Tue Jan  3 23:55:50 2023
; FORMAT={-:-/ absolute / metric / decimal}
; #@! TF.CreationDate,2023-01-03T23:55:50+09:00
; #@! TF.GenerationSoftware,Kicad,Pcbnew,(6.0.8)
; #@! TF.FileFunction,MixedPlating,1,2
FMAT,2
METRIC
; #@! TA.AperFunction,Plated,PTH,ViaDrill
T1C0.200
; #@! TA.AperFunction,Plated,PTH,ViaDrill
T2C0.300
; #@! TA.AperFunction,Plated,PTH,ComponentDrill
T3C0.400
; #@! TA.AperFunction,Plated,PTH,ComponentDrill
T4C0.600
; #@! TA.AperFunction,Plated,PTH,ComponentDrill
T5C0.813
; #@! TA.AperFunction,Plated,PTH,ComponentDrill
T6C1.000
; #@! TA.AperFunction,Plated,PTH,ComponentDrill
T7C1.300
; #@! TA.AperFunction,NonPlated,NPTH,ComponentDrill
T8C1.200
; #@! TA.AperFunction,NonPlated,NPTH,ComponentDrill
T9C1.900
; #@! TA.AperFunction,NonPlated,NPTH,ComponentDrill
T10C2.200
; #@! TA.AperFunction,NonPlated,NPTH,ComponentDrill
T11C3.000
; #@! TA.AperFunction,NonPlated,NPTH,ComponentDrill
T12C5.000
%
G90
G05
T1
X50.292Y-122.53
X51.206Y-47.092
X53.578Y-39.052
X53.578Y-59.531
X53.578Y-61.912
X53.578Y-64.294
X54.769Y-31.909
X54.769Y-76.2
X54.769Y-78.581
X54.769Y-80.962
X54.769Y-95.25
X54.769Y-97.631
X54.769Y-100.012
X54.769Y-128.588
X56.236Y-106.375
X57.15Y-31.909
X57.15Y-128.588
X59.531Y-31.909
X59.531Y-90.487
X59.531Y-128.588
X59.741Y-68.123
X59.741Y-84.43
X61.912Y-90.487
X64.294Y-38.814
X64.294Y-90.487
X66.675Y-70.247
X66.75Y-122.531
X66.774Y-106.945
X67.818Y-112.471
X67.866Y-37.442
X67.866Y-43.815
X69.056Y-70.247
X70.256Y-46.939
X71.438Y-70.247
X71.438Y-128.588
X72.695Y-55.321
X72.695Y-58.674
X73.819Y-37.862
X73.819Y-52.387
X73.819Y-128.588
X74.062Y-87.281
X74.094Y-84.125
X76.2Y-52.387
X76.2Y-128.588
X77.267Y-74.371
X77.267Y-77.724
X78.581Y-52.387
X82.144Y-93.421
X82.144Y-96.774
X82.867Y-65.722
X83.344Y-70.485
X85.725Y-70.485
X85.725Y-86.916
X85.875Y-107.719
X85.875Y-122.531
X86.868Y-106.528
X86.868Y-112.471
X86.916Y-37.442
X86.916Y-43.815
X88.106Y-70.485
X88.106Y-86.916
X88.106Y-95.25
X89.306Y-47.092
X90.487Y-86.916
X90.487Y-95.25
X92.869Y-95.25
X93.107Y-37.624
X96.469Y-55.321
X96.469Y-58.674
X101.679Y-65.722
X101.679Y-103.584
X105.0Y-107.719
X105.0Y-122.531
X105.918Y-74.371
X105.918Y-77.724
X105.966Y-37.442
X105.966Y-43.815
X106.07Y-112.471
X107.156Y-70.485
X108.356Y-47.092
X109.537Y-70.485
X109.776Y-112.633
X109.776Y-115.014
X109.776Y-117.396
X111.557Y-107.137
X111.919Y-70.485
X112.157Y-37.624
X112.5Y-104.719
X112.5Y-107.719
X115.367Y-93.421
X115.367Y-96.774
X115.367Y-106.528
X115.519Y-55.321
X115.519Y-58.674
X116.443Y-31.909
X118.824Y-31.909
X120.729Y-103.584
X120.968Y-65.722
X121.206Y-31.909
X121.444Y-49.53
X123.825Y-49.53
X124.968Y-74.371
X124.968Y-77.724
X125.016Y-37.442
X125.016Y-43.577
X126.206Y-49.53
X126.206Y-70.485
X126.206Y-126.206
X127.406Y-47.092
X128.588Y-70.485
X128.588Y-126.206
X129.845Y-112.471
X130.969Y-31.909
X130.969Y-70.485
X130.969Y-126.206
X131.207Y-37.624
X131.25Y-104.344
X131.344Y-107.719
X133.35Y-31.909
X134.112Y-107.137
X134.417Y-96.774
X134.569Y-55.321
X134.569Y-58.674
X134.569Y-93.421
X135.0Y-122.531
X135.207Y-107.715
X135.731Y-31.909
X135.788Y-106.528
X136.77Y-107.707
X139.779Y-65.722
X139.779Y-103.822
X140.494Y-114.3
X140.494Y-116.681
X140.494Y-119.062
X140.97Y-49.53
X143.351Y-49.53
X144.018Y-74.371
X144.018Y-77.724
X144.066Y-37.442
X144.066Y-43.815
X145.256Y-70.485
X145.732Y-49.53
X146.456Y-47.092
X147.637Y-70.485
X149.988Y-107.707
X150.0Y-104.156
X150.019Y-70.485
X150.257Y-37.624
X152.4Y-114.3
X153.619Y-55.321
X153.619Y-58.674
X153.619Y-96.774
X153.619Y-106.528
X153.772Y-93.421
X154.781Y-114.3
X158.829Y-65.722
X158.829Y-103.822
X161.449Y-49.292
X163.068Y-74.371
X163.068Y-77.724
X163.116Y-37.442
X163.116Y-43.815
X163.83Y-49.292
X164.306Y-70.723
X165.497Y-37.442
X165.497Y-43.815
X166.211Y-49.292
X166.5Y-82.688
X166.688Y-70.723
X169.069Y-70.723
X169.307Y-37.624
X169.926Y-122.225
X171.45Y-31.909
X171.75Y-128.292
X172.391Y-127.89
X172.669Y-55.321
X172.669Y-58.674
X172.669Y-93.421
X172.669Y-96.926
X173.438Y-70.688
X173.831Y-31.909
X175.969Y-63.75
X176.022Y-103.48
X176.213Y-31.909
X176.45Y-101.719
X176.632Y-61.874
X176.632Y-87.325
X177.089Y-37.948
X177.241Y-49.225
X177.403Y-66.675
X177.879Y-104.775
X178.594Y-65.008
X178.704Y-106.651
X180.975Y-45.244
X180.975Y-47.625
X180.975Y-50.006
X181.031Y-78.75
X181.459Y-79.332
X181.927Y-43.101
X181.927Y-147.637
X182.118Y-74.371
X182.118Y-77.724
X182.404Y-40.719
X182.546Y-83.719
X183.356Y-114.3
X184.071Y-85.963
X184.309Y-147.637
X185.023Y-79.296
X185.261Y-41.196
X185.737Y-39.291
X185.737Y-114.3
X186.69Y-147.637
X187.073Y-79.177
X188.062Y-89.916
X188.119Y-114.3
X188.53Y-81.845
X188.625Y-74.344
X188.833Y-39.291
X188.833Y-40.005
X188.833Y-40.719
X188.833Y-41.434
X189.309Y-80.248
X189.786Y-64.294
X189.786Y-66.675
X189.786Y-69.056
X190.262Y-42.148
X190.262Y-89.059
X190.5Y-101.679
X190.78Y-84.095
X190.781Y-75.469
X191.452Y-39.291
X191.452Y-42.148
X191.452Y-50.959
X191.567Y-55.321
X191.567Y-93.421
X191.585Y-58.688
X191.719Y-96.774
X192.245Y-74.611
X192.634Y-122.377
X192.881Y-82.153
X193.062Y-108.75
X193.406Y-70.781
X193.435Y-109.156
X193.596Y-75.962
X193.969Y-109.688
X194.103Y-70.872
X194.441Y-110.171
X195.262Y-38.1
X195.262Y-40.481
X195.262Y-42.862
X195.469Y-86.906
X195.739Y-78.105
X196.006Y-86.779
X196.093Y-103.672
X196.093Y-130.969
X196.398Y-87.174
X196.703Y-89.297
X196.929Y-71.914
X197.531Y-78.469
X197.906Y-133.594
X198.094Y-79.031
X198.596Y-90.011
X198.75Y-79.594
X198.834Y-75.962
X199.187Y-65.532
X200.558Y-104.242
X201.454Y-94.774
X201.454Y-96.441
X201.778Y-82.296
X201.778Y-104.242
X202.168Y-119.062
X202.168Y-121.444
X202.168Y-123.825
X204.787Y-119.062
X204.787Y-121.444
X204.787Y-123.825
X207.151Y-119.041
X207.151Y-121.422
X207.151Y-123.803
T2
X194.587Y-83.106
T3
X186.595Y-36.966
X187.395Y-36.966
X188.195Y-36.966
X188.995Y-36.966
X189.795Y-36.966
X190.595Y-36.966
T5
X199.59Y-107.419
X202.091Y-106.978
X204.593Y-106.537
X207.094Y-106.096
T6
X145.837Y-128.588
X146.495Y-126.134
X147.152Y-123.681
X147.809Y-121.227
X148.467Y-118.774
X149.124Y-116.32
X149.782Y-113.867
T7
X197.08Y-58.117
X198.208Y-64.518
T8
X189.243Y-46.15
X196.136Y-44.934
T9
X54.031Y-41.672
X54.031Y-117.872
X58.794Y-60.722
X63.556Y-79.772
X65.031Y-41.672
X65.031Y-117.872
X68.319Y-98.822
X69.794Y-60.722
X73.081Y-41.672
X73.081Y-117.872
X74.556Y-79.772
X79.319Y-98.822
X82.606Y-60.722
X84.081Y-41.672
X84.081Y-117.872
X92.131Y-41.672
X92.131Y-79.772
X92.131Y-117.872
X93.606Y-60.722
X101.656Y-60.722
X101.656Y-98.822
X103.131Y-41.672
X103.131Y-79.772
X103.131Y-117.872
X111.181Y-41.672
X111.181Y-79.772
X112.656Y-60.722
X112.656Y-98.822
X115.944Y-117.872
X120.706Y-60.722
X120.706Y-98.822
X122.181Y-41.672
X122.181Y-79.772
X126.944Y-117.872
X130.231Y-41.672
X130.231Y-79.772
X131.706Y-60.722
X131.706Y-98.822
X139.756Y-60.722
X139.756Y-98.822
X141.231Y-41.672
X141.231Y-79.772
X149.281Y-41.672
X149.281Y-79.772
X150.756Y-60.722
X150.756Y-98.822
X154.231Y-123.592
X158.806Y-60.722
X158.806Y-98.822
X160.281Y-41.672
X160.281Y-79.772
X164.856Y-126.439
X168.331Y-41.672
X168.331Y-79.772
X169.806Y-60.722
X169.806Y-98.822
X177.856Y-60.722
X177.856Y-98.822
X179.331Y-41.672
X179.331Y-79.772
X186.611Y-136.048
X188.856Y-60.722
X188.856Y-98.822
X194.389Y-128.27
T10
X50.006Y-32.147
X50.006Y-51.197
X69.056Y-108.942
X97.631Y-52.983
X126.206Y-32.147
X126.206Y-87.511
X173.831Y-52.983
X184.547Y-119.063
X196.453Y-52.983
T11
X54.531Y-45.372
X59.531Y-47.572
X59.531Y-111.972
X64.294Y-54.822
X64.531Y-114.172
X69.056Y-73.872
X69.294Y-57.022
X73.581Y-45.372
X73.819Y-92.922
X74.056Y-76.072
X78.581Y-47.572
X78.581Y-111.972
X78.819Y-95.122
X83.581Y-114.172
X88.106Y-54.822
X92.631Y-45.372
X93.106Y-57.022
X97.631Y-47.572
X97.631Y-73.872
X97.631Y-111.972
X102.631Y-76.072
X102.631Y-114.172
X107.156Y-54.822
X107.156Y-92.922
X111.681Y-45.372
X112.156Y-57.022
X112.156Y-95.122
X116.681Y-47.572
X116.681Y-73.872
X121.444Y-111.972
X121.681Y-76.072
X126.206Y-54.822
X126.206Y-92.922
X126.444Y-114.172
X130.731Y-45.372
X131.206Y-57.022
X131.206Y-95.122
X135.731Y-47.572
X135.731Y-73.872
X140.731Y-76.072
X145.256Y-54.822
X145.256Y-92.922
X149.781Y-45.372
X150.256Y-57.022
X150.256Y-95.122
X154.781Y-47.572
X154.781Y-73.872
X159.781Y-76.072
X161.071Y-119.317
X164.306Y-54.822
X164.306Y-92.922
X165.331Y-122.736
X168.831Y-45.372
X169.306Y-57.022
X169.306Y-95.122
X173.831Y-47.572
X173.831Y-73.872
X178.831Y-76.072
X183.356Y-54.822
X183.356Y-92.922
X186.328Y-127.987
X188.356Y-57.022
X188.356Y-95.122
X191.419Y-126.008
T12
X59.531Y-41.672
X59.531Y-117.872
X64.294Y-60.722
X69.056Y-79.772
X73.819Y-98.822
X78.581Y-41.672
X78.581Y-117.872
X88.106Y-60.722
X97.631Y-41.672
X97.631Y-79.772
X97.631Y-117.872
X107.156Y-60.722
X107.156Y-98.822
X116.681Y-41.672
X116.681Y-79.772
X121.444Y-117.872
X126.206Y-60.722
X126.206Y-98.822
X135.731Y-41.672
X135.731Y-79.772
X145.256Y-60.722
X145.256Y-98.822
X154.781Y-41.672
X154.781Y-79.772
X159.544Y-125.016
X164.306Y-60.722
X164.306Y-98.822
X173.831Y-41.672
X173.831Y-79.772
X183.356Y-60.722
X183.356Y-98.822
X190.5Y-132.159
T4
G00X183.045Y-31.816
M15
G01X183.045Y-32.916
M16
G05
G00X183.045Y-36.866
M15
G01X183.045Y-37.966
M16
G05
G00X194.145Y-31.816
M15
G01X194.145Y-32.916
M16
G05
G00X194.145Y-36.866
M15
G01X194.145Y-37.966
M16
G05
T6
G00X185.874Y-44.611
M15
G01X185.382Y-44.698
M16
G05
G00X188.081Y-48.487
M15
G01X187.589Y-48.574
M16
G05
G00X192.02Y-47.792
M15
G01X191.528Y-47.879
M16
G05
G00X194.975Y-47.271
M15
G01X194.482Y-47.358
M16
G05
T0
M30
