G04 #@! TF.GenerationSoftware,KiCad,Pcbnew,(6.0.8)*
G04 #@! TF.CreationDate,2023-01-03T19:57:49+09:00*
G04 #@! TF.ProjectId,HatsuLight69_left.kicad_pcb,48617473-754c-4696-9768-7436395f6c65,0.1*
G04 #@! TF.SameCoordinates,Original*
G04 #@! TF.FileFunction,Paste,Top*
G04 #@! TF.FilePolarity,Positive*
%FSLAX46Y46*%
G04 Gerber Fmt 4.6, Leading zero omitted, Abs format (unit mm)*
G04 Created by KiCad (PCBNEW (6.0.8)) date 2023-01-03 19:57:49*
%MOMM*%
%LPD*%
G01*
G04 APERTURE LIST*
%ADD10C,0.000100*%
%ADD11R,0.230000X0.850000*%
%ADD12R,0.460000X0.850000*%
G04 APERTURE END LIST*
G04 #@! TO.C,J1*
G36*
X183745000Y-33565732D02*
G01*
X183045000Y-33565732D01*
X183076000Y-33564732D01*
X183108000Y-33562732D01*
X183139000Y-33558732D01*
X183170000Y-33552732D01*
X183200000Y-33545732D01*
X183230000Y-33536732D01*
X183260000Y-33525732D01*
X183289000Y-33513732D01*
X183317000Y-33500732D01*
X183345000Y-33485732D01*
X183372000Y-33468732D01*
X183398000Y-33450732D01*
X183423000Y-33431732D01*
X183446000Y-33411732D01*
X183469000Y-33389732D01*
X183491000Y-33366732D01*
X183511000Y-33343732D01*
X183530000Y-33318732D01*
X183548000Y-33292732D01*
X183565000Y-33265732D01*
X183580000Y-33237732D01*
X183593000Y-33209732D01*
X183605000Y-33180732D01*
X183616000Y-33150732D01*
X183625000Y-33120732D01*
X183632000Y-33090732D01*
X183638000Y-33059732D01*
X183642000Y-33028732D01*
X183644000Y-32996732D01*
X183645000Y-32965732D01*
X183645000Y-31765732D01*
X183644000Y-31734732D01*
X183642000Y-31702732D01*
X183638000Y-31671732D01*
X183632000Y-31640732D01*
X183625000Y-31610732D01*
X183616000Y-31580732D01*
X183605000Y-31550732D01*
X183593000Y-31521732D01*
X183580000Y-31493732D01*
X183565000Y-31465732D01*
X183548000Y-31438732D01*
X183530000Y-31412732D01*
X183511000Y-31387732D01*
X183491000Y-31364732D01*
X183469000Y-31341732D01*
X183446000Y-31319732D01*
X183423000Y-31299732D01*
X183398000Y-31280732D01*
X183372000Y-31262732D01*
X183345000Y-31245732D01*
X183317000Y-31230732D01*
X183289000Y-31217732D01*
X183260000Y-31205732D01*
X183230000Y-31194732D01*
X183200000Y-31185732D01*
X183170000Y-31178732D01*
X183139000Y-31172732D01*
X183108000Y-31168732D01*
X183076000Y-31166732D01*
X183045000Y-31165732D01*
X183745000Y-31165732D01*
X183745000Y-33565732D01*
G37*
D10*
X183745000Y-33565732D02*
X183045000Y-33565732D01*
X183076000Y-33564732D01*
X183108000Y-33562732D01*
X183139000Y-33558732D01*
X183170000Y-33552732D01*
X183200000Y-33545732D01*
X183230000Y-33536732D01*
X183260000Y-33525732D01*
X183289000Y-33513732D01*
X183317000Y-33500732D01*
X183345000Y-33485732D01*
X183372000Y-33468732D01*
X183398000Y-33450732D01*
X183423000Y-33431732D01*
X183446000Y-33411732D01*
X183469000Y-33389732D01*
X183491000Y-33366732D01*
X183511000Y-33343732D01*
X183530000Y-33318732D01*
X183548000Y-33292732D01*
X183565000Y-33265732D01*
X183580000Y-33237732D01*
X183593000Y-33209732D01*
X183605000Y-33180732D01*
X183616000Y-33150732D01*
X183625000Y-33120732D01*
X183632000Y-33090732D01*
X183638000Y-33059732D01*
X183642000Y-33028732D01*
X183644000Y-32996732D01*
X183645000Y-32965732D01*
X183645000Y-31765732D01*
X183644000Y-31734732D01*
X183642000Y-31702732D01*
X183638000Y-31671732D01*
X183632000Y-31640732D01*
X183625000Y-31610732D01*
X183616000Y-31580732D01*
X183605000Y-31550732D01*
X183593000Y-31521732D01*
X183580000Y-31493732D01*
X183565000Y-31465732D01*
X183548000Y-31438732D01*
X183530000Y-31412732D01*
X183511000Y-31387732D01*
X183491000Y-31364732D01*
X183469000Y-31341732D01*
X183446000Y-31319732D01*
X183423000Y-31299732D01*
X183398000Y-31280732D01*
X183372000Y-31262732D01*
X183345000Y-31245732D01*
X183317000Y-31230732D01*
X183289000Y-31217732D01*
X183260000Y-31205732D01*
X183230000Y-31194732D01*
X183200000Y-31185732D01*
X183170000Y-31178732D01*
X183139000Y-31172732D01*
X183108000Y-31168732D01*
X183076000Y-31166732D01*
X183045000Y-31165732D01*
X183745000Y-31165732D01*
X183745000Y-33565732D01*
G36*
X194114000Y-31166732D02*
G01*
X194082000Y-31168732D01*
X194051000Y-31172732D01*
X194020000Y-31178732D01*
X193990000Y-31185732D01*
X193960000Y-31194732D01*
X193930000Y-31205732D01*
X193901000Y-31217732D01*
X193873000Y-31230732D01*
X193845000Y-31245732D01*
X193818000Y-31262732D01*
X193792000Y-31280732D01*
X193767000Y-31299732D01*
X193744000Y-31319732D01*
X193721000Y-31341732D01*
X193699000Y-31364732D01*
X193679000Y-31387732D01*
X193660000Y-31412732D01*
X193642000Y-31438732D01*
X193625000Y-31465732D01*
X193610000Y-31493732D01*
X193597000Y-31521732D01*
X193585000Y-31550732D01*
X193574000Y-31580732D01*
X193565000Y-31610732D01*
X193558000Y-31640732D01*
X193552000Y-31671732D01*
X193548000Y-31702732D01*
X193546000Y-31734732D01*
X193545000Y-31765732D01*
X193545000Y-32965732D01*
X193546000Y-32996732D01*
X193548000Y-33028732D01*
X193552000Y-33059732D01*
X193558000Y-33090732D01*
X193565000Y-33120732D01*
X193574000Y-33150732D01*
X193585000Y-33180732D01*
X193597000Y-33209732D01*
X193610000Y-33237732D01*
X193625000Y-33265732D01*
X193642000Y-33292732D01*
X193660000Y-33318732D01*
X193679000Y-33343732D01*
X193699000Y-33366732D01*
X193721000Y-33389732D01*
X193744000Y-33411732D01*
X193767000Y-33431732D01*
X193792000Y-33450732D01*
X193818000Y-33468732D01*
X193845000Y-33485732D01*
X193873000Y-33500732D01*
X193901000Y-33513732D01*
X193930000Y-33525732D01*
X193960000Y-33536732D01*
X193990000Y-33545732D01*
X194020000Y-33552732D01*
X194051000Y-33558732D01*
X194082000Y-33562732D01*
X194114000Y-33564732D01*
X194145000Y-33565732D01*
X193445000Y-33565732D01*
X193445000Y-31165732D01*
X194145000Y-31165732D01*
X194114000Y-31166732D01*
G37*
X194114000Y-31166732D02*
X194082000Y-31168732D01*
X194051000Y-31172732D01*
X194020000Y-31178732D01*
X193990000Y-31185732D01*
X193960000Y-31194732D01*
X193930000Y-31205732D01*
X193901000Y-31217732D01*
X193873000Y-31230732D01*
X193845000Y-31245732D01*
X193818000Y-31262732D01*
X193792000Y-31280732D01*
X193767000Y-31299732D01*
X193744000Y-31319732D01*
X193721000Y-31341732D01*
X193699000Y-31364732D01*
X193679000Y-31387732D01*
X193660000Y-31412732D01*
X193642000Y-31438732D01*
X193625000Y-31465732D01*
X193610000Y-31493732D01*
X193597000Y-31521732D01*
X193585000Y-31550732D01*
X193574000Y-31580732D01*
X193565000Y-31610732D01*
X193558000Y-31640732D01*
X193552000Y-31671732D01*
X193548000Y-31702732D01*
X193546000Y-31734732D01*
X193545000Y-31765732D01*
X193545000Y-32965732D01*
X193546000Y-32996732D01*
X193548000Y-33028732D01*
X193552000Y-33059732D01*
X193558000Y-33090732D01*
X193565000Y-33120732D01*
X193574000Y-33150732D01*
X193585000Y-33180732D01*
X193597000Y-33209732D01*
X193610000Y-33237732D01*
X193625000Y-33265732D01*
X193642000Y-33292732D01*
X193660000Y-33318732D01*
X193679000Y-33343732D01*
X193699000Y-33366732D01*
X193721000Y-33389732D01*
X193744000Y-33411732D01*
X193767000Y-33431732D01*
X193792000Y-33450732D01*
X193818000Y-33468732D01*
X193845000Y-33485732D01*
X193873000Y-33500732D01*
X193901000Y-33513732D01*
X193930000Y-33525732D01*
X193960000Y-33536732D01*
X193990000Y-33545732D01*
X194020000Y-33552732D01*
X194051000Y-33558732D01*
X194082000Y-33562732D01*
X194114000Y-33564732D01*
X194145000Y-33565732D01*
X193445000Y-33565732D01*
X193445000Y-31165732D01*
X194145000Y-31165732D01*
X194114000Y-31166732D01*
G04 #@! TD*
D11*
G04 #@! TO.C,J1*
X190795000Y-37890732D03*
X190395000Y-37890732D03*
X189995000Y-37890732D03*
X189595000Y-37890732D03*
X189195000Y-37890732D03*
X188795000Y-37890732D03*
X188395000Y-37890732D03*
X187995000Y-37890732D03*
X187595000Y-37890732D03*
X187195000Y-37890732D03*
X186795000Y-37890732D03*
X186395000Y-37890732D03*
X185195000Y-37890732D03*
X185595000Y-37890732D03*
X185995000Y-37890732D03*
X191195000Y-37890732D03*
X191595000Y-37890732D03*
X191995000Y-37890732D03*
D12*
X192510000Y-37890732D03*
X184680000Y-37890732D03*
G04 #@! TD*
M02*
