G04 #@! TF.GenerationSoftware,KiCad,Pcbnew,(6.0.8)*
G04 #@! TF.CreationDate,2023-02-19T03:10:54+09:00*
G04 #@! TF.ProjectId,ma8ic_split_69_left_bottom_plate,6d613869-635f-4737-906c-69745f36395f,0.1*
G04 #@! TF.SameCoordinates,Original*
G04 #@! TF.FileFunction,Legend,Bot*
G04 #@! TF.FilePolarity,Positive*
%FSLAX46Y46*%
G04 Gerber Fmt 4.6, Leading zero omitted, Abs format (unit mm)*
G04 Created by KiCad (PCBNEW (6.0.8)) date 2023-02-19 03:10:54*
%MOMM*%
%LPD*%
G01*
G04 APERTURE LIST*
%ADD10C,0.800000*%
G04 APERTURE END LIST*
D10*
X151285714Y-82216285D02*
X151285714Y-78216285D01*
X151285714Y-78787714D02*
X151000000Y-78502000D01*
X150428571Y-78216285D01*
X149571428Y-78216285D01*
X149000000Y-78502000D01*
X148714285Y-79073428D01*
X148714285Y-82216285D01*
X148714285Y-79073428D02*
X148428571Y-78502000D01*
X147857142Y-78216285D01*
X147000000Y-78216285D01*
X146428571Y-78502000D01*
X146142857Y-79073428D01*
X146142857Y-82216285D01*
X140714285Y-82216285D02*
X140714285Y-79073428D01*
X141000000Y-78502000D01*
X141571428Y-78216285D01*
X142714285Y-78216285D01*
X143285714Y-78502000D01*
X140714285Y-81930571D02*
X141285714Y-82216285D01*
X142714285Y-82216285D01*
X143285714Y-81930571D01*
X143571428Y-81359142D01*
X143571428Y-80787714D01*
X143285714Y-80216285D01*
X142714285Y-79930571D01*
X141285714Y-79930571D01*
X140714285Y-79644857D01*
X137000000Y-78787714D02*
X137571428Y-78502000D01*
X137857142Y-78216285D01*
X138142857Y-77644857D01*
X138142857Y-77359142D01*
X137857142Y-76787714D01*
X137571428Y-76502000D01*
X137000000Y-76216285D01*
X135857142Y-76216285D01*
X135285714Y-76502000D01*
X135000000Y-76787714D01*
X134714285Y-77359142D01*
X134714285Y-77644857D01*
X135000000Y-78216285D01*
X135285714Y-78502000D01*
X135857142Y-78787714D01*
X137000000Y-78787714D01*
X137571428Y-79073428D01*
X137857142Y-79359142D01*
X138142857Y-79930571D01*
X138142857Y-81073428D01*
X137857142Y-81644857D01*
X137571428Y-81930571D01*
X137000000Y-82216285D01*
X135857142Y-82216285D01*
X135285714Y-81930571D01*
X135000000Y-81644857D01*
X134714285Y-81073428D01*
X134714285Y-79930571D01*
X135000000Y-79359142D01*
X135285714Y-79073428D01*
X135857142Y-78787714D01*
X132142857Y-82216285D02*
X132142857Y-78216285D01*
X132142857Y-76216285D02*
X132428571Y-76502000D01*
X132142857Y-76787714D01*
X131857142Y-76502000D01*
X132142857Y-76216285D01*
X132142857Y-76787714D01*
X126714285Y-81930571D02*
X127285714Y-82216285D01*
X128428571Y-82216285D01*
X129000000Y-81930571D01*
X129285714Y-81644857D01*
X129571428Y-81073428D01*
X129571428Y-79359142D01*
X129285714Y-78787714D01*
X129000000Y-78502000D01*
X128428571Y-78216285D01*
X127285714Y-78216285D01*
X126714285Y-78502000D01*
X119857142Y-81930571D02*
X119285714Y-82216285D01*
X118142857Y-82216285D01*
X117571428Y-81930571D01*
X117285714Y-81359142D01*
X117285714Y-81073428D01*
X117571428Y-80502000D01*
X118142857Y-80216285D01*
X119000000Y-80216285D01*
X119571428Y-79930571D01*
X119857142Y-79359142D01*
X119857142Y-79073428D01*
X119571428Y-78502000D01*
X119000000Y-78216285D01*
X118142857Y-78216285D01*
X117571428Y-78502000D01*
X114714285Y-78216285D02*
X114714285Y-84216285D01*
X114714285Y-78502000D02*
X114142857Y-78216285D01*
X113000000Y-78216285D01*
X112428571Y-78502000D01*
X112142857Y-78787714D01*
X111857142Y-79359142D01*
X111857142Y-81073428D01*
X112142857Y-81644857D01*
X112428571Y-81930571D01*
X113000000Y-82216285D01*
X114142857Y-82216285D01*
X114714285Y-81930571D01*
X108428571Y-82216285D02*
X109000000Y-81930571D01*
X109285714Y-81359142D01*
X109285714Y-76216285D01*
X106142857Y-82216285D02*
X106142857Y-78216285D01*
X106142857Y-76216285D02*
X106428571Y-76502000D01*
X106142857Y-76787714D01*
X105857142Y-76502000D01*
X106142857Y-76216285D01*
X106142857Y-76787714D01*
X104142857Y-78216285D02*
X101857142Y-78216285D01*
X103285714Y-76216285D02*
X103285714Y-81359142D01*
X103000000Y-81930571D01*
X102428571Y-82216285D01*
X101857142Y-82216285D01*
M02*
