G04 #@! TF.GenerationSoftware,KiCad,Pcbnew,(6.0.8)*
G04 #@! TF.CreationDate,2023-02-17T21:04:57+09:00*
G04 #@! TF.ProjectId,ma8ic_split_69_left_bottom_plate,6d613869-635f-4737-906c-69745f36395f,0.1*
G04 #@! TF.SameCoordinates,Original*
G04 #@! TF.FileFunction,Legend,Top*
G04 #@! TF.FilePolarity,Positive*
%FSLAX46Y46*%
G04 Gerber Fmt 4.6, Leading zero omitted, Abs format (unit mm)*
G04 Created by KiCad (PCBNEW (6.0.8)) date 2023-02-17 21:04:57*
%MOMM*%
%LPD*%
G01*
G04 APERTURE LIST*
%ADD10C,0.150000*%
G04 APERTURE END LIST*
D10*
X49554011Y-92004115D02*
X50554011Y-92004115D01*
X49934963Y-92099353D02*
X49554011Y-92385067D01*
X50220677Y-92385067D02*
X49839725Y-92004115D01*
X49554011Y-93242210D02*
X50077820Y-93242210D01*
X50173058Y-93194591D01*
X50220677Y-93099353D01*
X50220677Y-92908877D01*
X50173058Y-92813639D01*
X49601630Y-93242210D02*
X49554011Y-93146972D01*
X49554011Y-92908877D01*
X49601630Y-92813639D01*
X49696868Y-92766020D01*
X49792106Y-92766020D01*
X49887344Y-92813639D01*
X49934963Y-92908877D01*
X49934963Y-93146972D01*
X49982582Y-93242210D01*
X50220677Y-93623163D02*
X50220677Y-94146972D01*
X49554011Y-93623163D01*
X49554011Y-94146972D01*
X49554011Y-94527925D02*
X50220677Y-94527925D01*
X50125439Y-94527925D02*
X50173058Y-94575544D01*
X50220677Y-94670782D01*
X50220677Y-94813639D01*
X50173058Y-94908877D01*
X50077820Y-94956496D01*
X49554011Y-94956496D01*
X50077820Y-94956496D02*
X50173058Y-95004115D01*
X50220677Y-95099353D01*
X50220677Y-95242210D01*
X50173058Y-95337448D01*
X50077820Y-95385067D01*
X49554011Y-95385067D01*
X49601630Y-96242210D02*
X49554011Y-96146972D01*
X49554011Y-95956496D01*
X49601630Y-95861258D01*
X49696868Y-95813639D01*
X50077820Y-95813639D01*
X50173058Y-95861258D01*
X50220677Y-95956496D01*
X50220677Y-96146972D01*
X50173058Y-96242210D01*
X50077820Y-96289829D01*
X49982582Y-96289829D01*
X49887344Y-95813639D01*
X49601630Y-97099353D02*
X49554011Y-97004115D01*
X49554011Y-96813639D01*
X49601630Y-96718401D01*
X49696868Y-96670782D01*
X50077820Y-96670782D01*
X50173058Y-96718401D01*
X50220677Y-96813639D01*
X50220677Y-97004115D01*
X50173058Y-97099353D01*
X50077820Y-97146972D01*
X49982582Y-97146972D01*
X49887344Y-96670782D01*
X50220677Y-98004115D02*
X49411153Y-98004115D01*
X49315915Y-97956496D01*
X49268296Y-97908877D01*
X49220677Y-97813639D01*
X49220677Y-97670782D01*
X49268296Y-97575544D01*
X49601630Y-98004115D02*
X49554011Y-97908877D01*
X49554011Y-97718401D01*
X49601630Y-97623163D01*
X49649249Y-97575544D01*
X49744487Y-97527925D01*
X50030201Y-97527925D01*
X50125439Y-97575544D01*
X50173058Y-97623163D01*
X50220677Y-97718401D01*
X50220677Y-97908877D01*
X50173058Y-98004115D01*
X49554011Y-98908877D02*
X50077820Y-98908877D01*
X50173058Y-98861258D01*
X50220677Y-98766020D01*
X50220677Y-98575544D01*
X50173058Y-98480306D01*
X49601630Y-98908877D02*
X49554011Y-98813639D01*
X49554011Y-98575544D01*
X49601630Y-98480306D01*
X49696868Y-98432687D01*
X49792106Y-98432687D01*
X49887344Y-98480306D01*
X49934963Y-98575544D01*
X49934963Y-98813639D01*
X49982582Y-98908877D01*
X50220677Y-99289829D02*
X49554011Y-99480306D01*
X50030201Y-99670782D01*
X49554011Y-99861258D01*
X50220677Y-100051734D01*
X49554011Y-100861258D02*
X50077820Y-100861258D01*
X50173058Y-100813639D01*
X50220677Y-100718401D01*
X50220677Y-100527925D01*
X50173058Y-100432687D01*
X49601630Y-100861258D02*
X49554011Y-100766020D01*
X49554011Y-100527925D01*
X49601630Y-100432687D01*
X49696868Y-100385067D01*
X49792106Y-100385067D01*
X49887344Y-100432687D01*
X49934963Y-100527925D01*
X49934963Y-100766020D01*
X49982582Y-100861258D01*
X50149324Y-92599428D02*
X51149324Y-92599428D01*
X50530276Y-92694666D02*
X50149324Y-92980380D01*
X50815990Y-92980380D02*
X50435038Y-92599428D01*
X50149324Y-93837523D02*
X50673133Y-93837523D01*
X50768371Y-93789904D01*
X50815990Y-93694666D01*
X50815990Y-93504190D01*
X50768371Y-93408952D01*
X50196943Y-93837523D02*
X50149324Y-93742285D01*
X50149324Y-93504190D01*
X50196943Y-93408952D01*
X50292181Y-93361333D01*
X50387419Y-93361333D01*
X50482657Y-93408952D01*
X50530276Y-93504190D01*
X50530276Y-93742285D01*
X50577895Y-93837523D01*
X50815990Y-94218476D02*
X50815990Y-94742285D01*
X50149324Y-94218476D01*
X50149324Y-94742285D01*
X50149324Y-95123238D02*
X50815990Y-95123238D01*
X50720752Y-95123238D02*
X50768371Y-95170857D01*
X50815990Y-95266095D01*
X50815990Y-95408952D01*
X50768371Y-95504190D01*
X50673133Y-95551809D01*
X50149324Y-95551809D01*
X50673133Y-95551809D02*
X50768371Y-95599428D01*
X50815990Y-95694666D01*
X50815990Y-95837523D01*
X50768371Y-95932761D01*
X50673133Y-95980380D01*
X50149324Y-95980380D01*
X50196943Y-96837523D02*
X50149324Y-96742285D01*
X50149324Y-96551809D01*
X50196943Y-96456571D01*
X50292181Y-96408952D01*
X50673133Y-96408952D01*
X50768371Y-96456571D01*
X50815990Y-96551809D01*
X50815990Y-96742285D01*
X50768371Y-96837523D01*
X50673133Y-96885142D01*
X50577895Y-96885142D01*
X50482657Y-96408952D01*
X50196943Y-97694666D02*
X50149324Y-97599428D01*
X50149324Y-97408952D01*
X50196943Y-97313714D01*
X50292181Y-97266095D01*
X50673133Y-97266095D01*
X50768371Y-97313714D01*
X50815990Y-97408952D01*
X50815990Y-97599428D01*
X50768371Y-97694666D01*
X50673133Y-97742285D01*
X50577895Y-97742285D01*
X50482657Y-97266095D01*
X50815990Y-98599428D02*
X50006466Y-98599428D01*
X49911228Y-98551809D01*
X49863609Y-98504190D01*
X49815990Y-98408952D01*
X49815990Y-98266095D01*
X49863609Y-98170857D01*
X50196943Y-98599428D02*
X50149324Y-98504190D01*
X50149324Y-98313714D01*
X50196943Y-98218476D01*
X50244562Y-98170857D01*
X50339800Y-98123238D01*
X50625514Y-98123238D01*
X50720752Y-98170857D01*
X50768371Y-98218476D01*
X50815990Y-98313714D01*
X50815990Y-98504190D01*
X50768371Y-98599428D01*
X50149324Y-99504190D02*
X50673133Y-99504190D01*
X50768371Y-99456571D01*
X50815990Y-99361333D01*
X50815990Y-99170857D01*
X50768371Y-99075619D01*
X50196943Y-99504190D02*
X50149324Y-99408952D01*
X50149324Y-99170857D01*
X50196943Y-99075619D01*
X50292181Y-99028000D01*
X50387419Y-99028000D01*
X50482657Y-99075619D01*
X50530276Y-99170857D01*
X50530276Y-99408952D01*
X50577895Y-99504190D01*
X50815990Y-99885142D02*
X50149324Y-100075619D01*
X50625514Y-100266095D01*
X50149324Y-100456571D01*
X50815990Y-100647047D01*
X50149324Y-101456571D02*
X50673133Y-101456571D01*
X50768371Y-101408952D01*
X50815990Y-101313714D01*
X50815990Y-101123238D01*
X50768371Y-101028000D01*
X50196943Y-101456571D02*
X50149324Y-101361333D01*
X50149324Y-101123238D01*
X50196943Y-101028000D01*
X50292181Y-100980380D01*
X50387419Y-100980380D01*
X50482657Y-101028000D01*
X50530276Y-101123238D01*
X50530276Y-101361333D01*
X50577895Y-101456571D01*
X50149324Y-67937904D02*
X50815990Y-67937904D01*
X50720752Y-67937904D02*
X50768371Y-67985523D01*
X50815990Y-68080761D01*
X50815990Y-68223619D01*
X50768371Y-68318857D01*
X50673133Y-68366476D01*
X50149324Y-68366476D01*
X50673133Y-68366476D02*
X50768371Y-68414095D01*
X50815990Y-68509333D01*
X50815990Y-68652190D01*
X50768371Y-68747428D01*
X50673133Y-68795047D01*
X50149324Y-68795047D01*
X50149324Y-69699809D02*
X50673133Y-69699809D01*
X50768371Y-69652190D01*
X50815990Y-69556952D01*
X50815990Y-69366476D01*
X50768371Y-69271238D01*
X50196943Y-69699809D02*
X50149324Y-69604571D01*
X50149324Y-69366476D01*
X50196943Y-69271238D01*
X50292181Y-69223619D01*
X50387419Y-69223619D01*
X50482657Y-69271238D01*
X50530276Y-69366476D01*
X50530276Y-69604571D01*
X50577895Y-69699809D01*
X50720752Y-70318857D02*
X50768371Y-70223619D01*
X50815990Y-70176000D01*
X50911228Y-70128380D01*
X50958847Y-70128380D01*
X51054085Y-70176000D01*
X51101705Y-70223619D01*
X51149324Y-70318857D01*
X51149324Y-70509333D01*
X51101705Y-70604571D01*
X51054085Y-70652190D01*
X50958847Y-70699809D01*
X50911228Y-70699809D01*
X50815990Y-70652190D01*
X50768371Y-70604571D01*
X50720752Y-70509333D01*
X50720752Y-70318857D01*
X50673133Y-70223619D01*
X50625514Y-70176000D01*
X50530276Y-70128380D01*
X50339800Y-70128380D01*
X50244562Y-70176000D01*
X50196943Y-70223619D01*
X50149324Y-70318857D01*
X50149324Y-70509333D01*
X50196943Y-70604571D01*
X50244562Y-70652190D01*
X50339800Y-70699809D01*
X50530276Y-70699809D01*
X50625514Y-70652190D01*
X50673133Y-70604571D01*
X50720752Y-70509333D01*
X50149324Y-71128380D02*
X50815990Y-71128380D01*
X51149324Y-71128380D02*
X51101705Y-71080761D01*
X51054085Y-71128380D01*
X51101705Y-71176000D01*
X51149324Y-71128380D01*
X51054085Y-71128380D01*
X50196943Y-72033142D02*
X50149324Y-71937904D01*
X50149324Y-71747428D01*
X50196943Y-71652190D01*
X50244562Y-71604571D01*
X50339800Y-71556952D01*
X50625514Y-71556952D01*
X50720752Y-71604571D01*
X50768371Y-71652190D01*
X50815990Y-71747428D01*
X50815990Y-71937904D01*
X50768371Y-72033142D01*
X50196943Y-73176000D02*
X50149324Y-73271238D01*
X50149324Y-73461714D01*
X50196943Y-73556952D01*
X50292181Y-73604571D01*
X50339800Y-73604571D01*
X50435038Y-73556952D01*
X50482657Y-73461714D01*
X50482657Y-73318857D01*
X50530276Y-73223619D01*
X50625514Y-73176000D01*
X50673133Y-73176000D01*
X50768371Y-73223619D01*
X50815990Y-73318857D01*
X50815990Y-73461714D01*
X50768371Y-73556952D01*
X50815990Y-74033142D02*
X49815990Y-74033142D01*
X50768371Y-74033142D02*
X50815990Y-74128380D01*
X50815990Y-74318857D01*
X50768371Y-74414095D01*
X50720752Y-74461714D01*
X50625514Y-74509333D01*
X50339800Y-74509333D01*
X50244562Y-74461714D01*
X50196943Y-74414095D01*
X50149324Y-74318857D01*
X50149324Y-74128380D01*
X50196943Y-74033142D01*
X50149324Y-75080761D02*
X50196943Y-74985523D01*
X50292181Y-74937904D01*
X51149324Y-74937904D01*
X50149324Y-75461714D02*
X50815990Y-75461714D01*
X51149324Y-75461714D02*
X51101705Y-75414095D01*
X51054085Y-75461714D01*
X51101705Y-75509333D01*
X51149324Y-75461714D01*
X51054085Y-75461714D01*
X50815990Y-75795047D02*
X50815990Y-76176000D01*
X51149324Y-75937904D02*
X50292181Y-75937904D01*
X50196943Y-75985523D01*
X50149324Y-76080761D01*
X50149324Y-76176000D01*
X50149324Y-77271238D02*
X50815990Y-77271238D01*
X50625514Y-77271238D02*
X50720752Y-77318857D01*
X50768371Y-77366476D01*
X50815990Y-77461714D01*
X50815990Y-77556952D01*
X50196943Y-78271238D02*
X50149324Y-78176000D01*
X50149324Y-77985523D01*
X50196943Y-77890285D01*
X50292181Y-77842666D01*
X50673133Y-77842666D01*
X50768371Y-77890285D01*
X50815990Y-77985523D01*
X50815990Y-78176000D01*
X50768371Y-78271238D01*
X50673133Y-78318857D01*
X50577895Y-78318857D01*
X50482657Y-77842666D01*
X50815990Y-78652190D02*
X50149324Y-78890285D01*
X50815990Y-79128380D01*
X51149324Y-79699809D02*
X51149324Y-79795047D01*
X51101705Y-79890285D01*
X51054085Y-79937904D01*
X50958847Y-79985523D01*
X50768371Y-80033142D01*
X50530276Y-80033142D01*
X50339800Y-79985523D01*
X50244562Y-79937904D01*
X50196943Y-79890285D01*
X50149324Y-79795047D01*
X50149324Y-79699809D01*
X50196943Y-79604571D01*
X50244562Y-79556952D01*
X50339800Y-79509333D01*
X50530276Y-79461714D01*
X50768371Y-79461714D01*
X50958847Y-79509333D01*
X51054085Y-79556952D01*
X51101705Y-79604571D01*
X51149324Y-79699809D01*
X50244562Y-80461714D02*
X50196943Y-80509333D01*
X50149324Y-80461714D01*
X50196943Y-80414095D01*
X50244562Y-80461714D01*
X50149324Y-80461714D01*
X50149324Y-81461714D02*
X50149324Y-80890285D01*
X50149324Y-81176000D02*
X51149324Y-81176000D01*
X51006466Y-81080761D01*
X50911228Y-80985523D01*
X50863609Y-80890285D01*
X50744637Y-93194741D02*
X51744637Y-93194741D01*
X51125589Y-93289979D02*
X50744637Y-93575693D01*
X51411303Y-93575693D02*
X51030351Y-93194741D01*
X50744637Y-94432836D02*
X51268446Y-94432836D01*
X51363684Y-94385217D01*
X51411303Y-94289979D01*
X51411303Y-94099503D01*
X51363684Y-94004265D01*
X50792256Y-94432836D02*
X50744637Y-94337598D01*
X50744637Y-94099503D01*
X50792256Y-94004265D01*
X50887494Y-93956646D01*
X50982732Y-93956646D01*
X51077970Y-94004265D01*
X51125589Y-94099503D01*
X51125589Y-94337598D01*
X51173208Y-94432836D01*
X51411303Y-94813789D02*
X51411303Y-95337598D01*
X50744637Y-94813789D01*
X50744637Y-95337598D01*
X50744637Y-95718551D02*
X51411303Y-95718551D01*
X51316065Y-95718551D02*
X51363684Y-95766170D01*
X51411303Y-95861408D01*
X51411303Y-96004265D01*
X51363684Y-96099503D01*
X51268446Y-96147122D01*
X50744637Y-96147122D01*
X51268446Y-96147122D02*
X51363684Y-96194741D01*
X51411303Y-96289979D01*
X51411303Y-96432836D01*
X51363684Y-96528074D01*
X51268446Y-96575693D01*
X50744637Y-96575693D01*
X50792256Y-97432836D02*
X50744637Y-97337598D01*
X50744637Y-97147122D01*
X50792256Y-97051884D01*
X50887494Y-97004265D01*
X51268446Y-97004265D01*
X51363684Y-97051884D01*
X51411303Y-97147122D01*
X51411303Y-97337598D01*
X51363684Y-97432836D01*
X51268446Y-97480455D01*
X51173208Y-97480455D01*
X51077970Y-97004265D01*
X50792256Y-98289979D02*
X50744637Y-98194741D01*
X50744637Y-98004265D01*
X50792256Y-97909027D01*
X50887494Y-97861408D01*
X51268446Y-97861408D01*
X51363684Y-97909027D01*
X51411303Y-98004265D01*
X51411303Y-98194741D01*
X51363684Y-98289979D01*
X51268446Y-98337598D01*
X51173208Y-98337598D01*
X51077970Y-97861408D01*
X51411303Y-99194741D02*
X50601779Y-99194741D01*
X50506541Y-99147122D01*
X50458922Y-99099503D01*
X50411303Y-99004265D01*
X50411303Y-98861408D01*
X50458922Y-98766170D01*
X50792256Y-99194741D02*
X50744637Y-99099503D01*
X50744637Y-98909027D01*
X50792256Y-98813789D01*
X50839875Y-98766170D01*
X50935113Y-98718551D01*
X51220827Y-98718551D01*
X51316065Y-98766170D01*
X51363684Y-98813789D01*
X51411303Y-98909027D01*
X51411303Y-99099503D01*
X51363684Y-99194741D01*
X50744637Y-100099503D02*
X51268446Y-100099503D01*
X51363684Y-100051884D01*
X51411303Y-99956646D01*
X51411303Y-99766170D01*
X51363684Y-99670932D01*
X50792256Y-100099503D02*
X50744637Y-100004265D01*
X50744637Y-99766170D01*
X50792256Y-99670932D01*
X50887494Y-99623313D01*
X50982732Y-99623313D01*
X51077970Y-99670932D01*
X51125589Y-99766170D01*
X51125589Y-100004265D01*
X51173208Y-100099503D01*
X51411303Y-100480455D02*
X50744637Y-100670932D01*
X51220827Y-100861408D01*
X50744637Y-101051884D01*
X51411303Y-101242360D01*
X50744637Y-102051884D02*
X51268446Y-102051884D01*
X51363684Y-102004265D01*
X51411303Y-101909027D01*
X51411303Y-101718551D01*
X51363684Y-101623313D01*
X50792256Y-102051884D02*
X50744637Y-101956646D01*
X50744637Y-101718551D01*
X50792256Y-101623313D01*
X50887494Y-101575693D01*
X50982732Y-101575693D01*
X51077970Y-101623313D01*
X51125589Y-101718551D01*
X51125589Y-101956646D01*
X51173208Y-102051884D01*
X50149324Y-83058635D02*
X51149324Y-83058635D01*
X50196943Y-83058635D02*
X50149324Y-82963397D01*
X50149324Y-82772920D01*
X50196943Y-82677682D01*
X50244562Y-82630063D01*
X50339800Y-82582444D01*
X50625514Y-82582444D01*
X50720752Y-82630063D01*
X50768371Y-82677682D01*
X50815990Y-82772920D01*
X50815990Y-82963397D01*
X50768371Y-83058635D01*
X50196943Y-83915778D02*
X50149324Y-83820539D01*
X50149324Y-83630063D01*
X50196943Y-83534825D01*
X50292181Y-83487206D01*
X50673133Y-83487206D01*
X50768371Y-83534825D01*
X50815990Y-83630063D01*
X50815990Y-83820539D01*
X50768371Y-83915778D01*
X50673133Y-83963397D01*
X50577895Y-83963397D01*
X50482657Y-83487206D01*
X50196943Y-84344349D02*
X50149324Y-84439587D01*
X50149324Y-84630063D01*
X50196943Y-84725301D01*
X50292181Y-84772920D01*
X50339800Y-84772920D01*
X50435038Y-84725301D01*
X50482657Y-84630063D01*
X50482657Y-84487206D01*
X50530276Y-84391968D01*
X50625514Y-84344349D01*
X50673133Y-84344349D01*
X50768371Y-84391968D01*
X50815990Y-84487206D01*
X50815990Y-84630063D01*
X50768371Y-84725301D01*
X50149324Y-85201492D02*
X50815990Y-85201492D01*
X51149324Y-85201492D02*
X51101705Y-85153873D01*
X51054085Y-85201492D01*
X51101705Y-85249111D01*
X51149324Y-85201492D01*
X51054085Y-85201492D01*
X50815990Y-86106254D02*
X50006466Y-86106254D01*
X49911228Y-86058635D01*
X49863609Y-86011016D01*
X49815990Y-85915778D01*
X49815990Y-85772920D01*
X49863609Y-85677682D01*
X50196943Y-86106254D02*
X50149324Y-86011016D01*
X50149324Y-85820539D01*
X50196943Y-85725301D01*
X50244562Y-85677682D01*
X50339800Y-85630063D01*
X50625514Y-85630063D01*
X50720752Y-85677682D01*
X50768371Y-85725301D01*
X50815990Y-85820539D01*
X50815990Y-86011016D01*
X50768371Y-86106254D01*
X50815990Y-86582444D02*
X50149324Y-86582444D01*
X50720752Y-86582444D02*
X50768371Y-86630063D01*
X50815990Y-86725301D01*
X50815990Y-86868158D01*
X50768371Y-86963397D01*
X50673133Y-87011016D01*
X50149324Y-87011016D01*
X50196943Y-87868158D02*
X50149324Y-87772920D01*
X50149324Y-87582444D01*
X50196943Y-87487206D01*
X50292181Y-87439587D01*
X50673133Y-87439587D01*
X50768371Y-87487206D01*
X50815990Y-87582444D01*
X50815990Y-87772920D01*
X50768371Y-87868158D01*
X50673133Y-87915778D01*
X50577895Y-87915778D01*
X50482657Y-87439587D01*
X50149324Y-88772920D02*
X51149324Y-88772920D01*
X50196943Y-88772920D02*
X50149324Y-88677682D01*
X50149324Y-88487206D01*
X50196943Y-88391968D01*
X50244562Y-88344349D01*
X50339800Y-88296730D01*
X50625514Y-88296730D01*
X50720752Y-88344349D01*
X50768371Y-88391968D01*
X50815990Y-88487206D01*
X50815990Y-88677682D01*
X50768371Y-88772920D01*
X50149324Y-90011016D02*
X51149324Y-90011016D01*
X50768371Y-90011016D02*
X50815990Y-90106254D01*
X50815990Y-90296730D01*
X50768371Y-90391968D01*
X50720752Y-90439587D01*
X50625514Y-90487206D01*
X50339800Y-90487206D01*
X50244562Y-90439587D01*
X50196943Y-90391968D01*
X50149324Y-90296730D01*
X50149324Y-90106254D01*
X50196943Y-90011016D01*
X50815990Y-90820539D02*
X50149324Y-91058635D01*
X50815990Y-91296730D02*
X50149324Y-91058635D01*
X49911228Y-90963397D01*
X49863609Y-90915778D01*
X49815990Y-90820539D01*
G04 #@! TO.C,*
G04 #@! TD*
M02*
