G04 #@! TF.GenerationSoftware,KiCad,Pcbnew,(6.0.8)*
G04 #@! TF.CreationDate,2023-03-04T03:17:21+09:00*
G04 #@! TF.ProjectId,ma8ic_split_69_right,6d613869-635f-4737-906c-69745f36395f,0.1*
G04 #@! TF.SameCoordinates,Original*
G04 #@! TF.FileFunction,Profile,NP*
%FSLAX46Y46*%
G04 Gerber Fmt 4.6, Leading zero omitted, Abs format (unit mm)*
G04 Created by KiCad (PCBNEW (6.0.8)) date 2023-03-04 03:17:21*
%MOMM*%
%LPD*%
G01*
G04 APERTURE LIST*
G04 #@! TA.AperFunction,Profile*
%ADD10C,0.100000*%
G04 #@! TD*
G04 #@! TA.AperFunction,Profile*
%ADD11C,0.150000*%
G04 #@! TD*
G04 #@! TA.AperFunction,Profile*
%ADD12C,0.120000*%
G04 #@! TD*
G04 APERTURE END LIST*
D10*
X216693700Y-35718715D02*
X214696200Y-35718822D01*
X202984483Y-160379061D02*
G75*
G03*
X147399325Y-135731215I-54528413J-47970009D01*
G01*
X219063132Y-37863022D02*
X235267450Y-129539965D01*
X71437500Y-135731215D02*
X61912573Y-135731315D01*
D11*
X61912523Y-35718773D02*
G75*
G03*
X59531273Y-38100100I-23J-2381227D01*
G01*
D10*
X219063065Y-37863029D02*
G75*
G03*
X216693700Y-35718715I-2369465J-236971D01*
G01*
X234076823Y-133349963D02*
G75*
G03*
X235267450Y-129539965I-2887123J2993263D01*
G01*
D11*
X71437500Y-135731215D02*
X147399325Y-135731215D01*
D10*
X207168700Y-160734340D02*
X234076825Y-133349965D01*
X205356200Y-35718822D02*
X71437450Y-35718700D01*
X61912523Y-35718800D02*
X71437450Y-35718700D01*
X202984477Y-160379066D02*
G75*
G03*
X207168699Y-160734339I2279223J2026066D01*
G01*
D11*
X59531285Y-133350065D02*
G75*
G03*
X61912573Y-135731315I2381315J65D01*
G01*
X59531358Y-133350065D02*
X59531273Y-38100100D01*
D12*
G04 #@! TO.C,D48*
X69636560Y-108582945D02*
X69636560Y-111682945D01*
X69636560Y-111682945D02*
X73236560Y-111682945D01*
X73236560Y-108582945D02*
X69636560Y-108582945D01*
X73236560Y-111682945D02*
X73236560Y-108582945D01*
G04 #@! TO.C,D61*
X101811680Y-92633195D02*
X101811680Y-89533195D01*
X98211680Y-92633195D02*
X101811680Y-92633195D01*
X101811680Y-89533195D02*
X98211680Y-89533195D01*
X98211680Y-89533195D02*
X98211680Y-92633195D01*
D10*
G04 #@! TO.C,J1*
X205356200Y-42368822D02*
X205356200Y-35718822D01*
X214696200Y-42368822D02*
X205356200Y-42368822D01*
X214696200Y-35718822D02*
X214696200Y-42368822D01*
D12*
G04 #@! TO.C,D75*
X117261952Y-43817365D02*
X120861952Y-43817365D01*
X117261952Y-40717365D02*
X117261952Y-43817365D01*
X120861952Y-40717365D02*
X117261952Y-40717365D01*
X120861952Y-43817365D02*
X120861952Y-40717365D01*
G04 #@! TO.C,D60*
X120861760Y-92633195D02*
X120861760Y-89533195D01*
X117261760Y-92633195D02*
X120861760Y-92633195D01*
X120861760Y-89533195D02*
X117261760Y-89533195D01*
X117261760Y-89533195D02*
X117261760Y-92633195D01*
G04 #@! TO.C,D42*
X177438164Y-137302311D02*
X180915497Y-138234059D01*
X181717836Y-135239689D02*
X178240503Y-134307941D01*
X178240503Y-134307941D02*
X177438164Y-137302311D01*
X180915497Y-138234059D02*
X181717836Y-135239689D01*
G04 #@! TO.C,D70*
X206587120Y-73583115D02*
X206587120Y-70483115D01*
X206587120Y-70483115D02*
X202987120Y-70483115D01*
X202987120Y-70483115D02*
X202987120Y-73583115D01*
X202987120Y-73583115D02*
X206587120Y-73583115D01*
G04 #@! TO.C,D72*
X174412000Y-40717365D02*
X174412000Y-43817365D01*
X178012000Y-40717365D02*
X174412000Y-40717365D01*
X178012000Y-43817365D02*
X178012000Y-40717365D01*
X174412000Y-43817365D02*
X178012000Y-43817365D01*
G04 #@! TO.C,D71*
X193462080Y-40717263D02*
X193462080Y-43817263D01*
X197062080Y-40717263D02*
X193462080Y-40717263D01*
X197062080Y-43817263D02*
X197062080Y-40717263D01*
X193462080Y-43817263D02*
X197062080Y-43817263D01*
G04 #@! TO.C,D46*
X88686768Y-130732961D02*
X92286768Y-130732961D01*
X88686768Y-127632961D02*
X88686768Y-130732961D01*
X92286768Y-130732961D02*
X92286768Y-127632961D01*
X92286768Y-127632961D02*
X88686768Y-127632961D01*
G04 #@! TO.C,D56*
X193462080Y-92633195D02*
X197062080Y-92633195D01*
X197062080Y-92633195D02*
X197062080Y-89533195D01*
X197062080Y-89533195D02*
X193462080Y-89533195D01*
X193462080Y-89533195D02*
X193462080Y-92633195D01*
G04 #@! TO.C,D76*
X101811680Y-40717365D02*
X98211680Y-40717365D01*
X101811680Y-43817365D02*
X101811680Y-40717365D01*
X98211680Y-40717365D02*
X98211680Y-43817365D01*
X98211680Y-43817365D02*
X101811680Y-43817365D01*
G04 #@! TO.C,D66*
X130386672Y-73583115D02*
X130386672Y-70483115D01*
X126786672Y-70483115D02*
X126786672Y-73583115D01*
X130386672Y-70483115D02*
X126786672Y-70483115D01*
X126786672Y-73583115D02*
X130386672Y-73583115D01*
G04 #@! TO.C,D77*
X78118143Y-40717365D02*
X74518143Y-40717365D01*
X78118143Y-43817365D02*
X78118143Y-40717365D01*
X74518143Y-40717365D02*
X74518143Y-43817365D01*
X74518143Y-43817365D02*
X78118143Y-43817365D01*
G04 #@! TO.C,D44*
X130386800Y-130732961D02*
X130386800Y-127632961D01*
X126786800Y-127632961D02*
X126786800Y-130732961D01*
X130386800Y-127632961D02*
X126786800Y-127632961D01*
X126786800Y-130732961D02*
X130386800Y-130732961D01*
G04 #@! TO.C,D63*
X73236560Y-73583115D02*
X73236560Y-70483115D01*
X69636560Y-73583115D02*
X73236560Y-73583115D01*
X73236560Y-70483115D02*
X69636560Y-70483115D01*
X69636560Y-70483115D02*
X69636560Y-73583115D01*
G04 #@! TO.C,D65*
X107736656Y-73583115D02*
X111336656Y-73583115D01*
X111336656Y-70483115D02*
X107736656Y-70483115D01*
X111336656Y-73583115D02*
X111336656Y-70483115D01*
X107736656Y-70483115D02*
X107736656Y-73583115D01*
G04 #@! TO.C,D52*
X149436624Y-108582945D02*
X145836624Y-108582945D01*
X149436624Y-111682945D02*
X149436624Y-108582945D01*
X145836624Y-108582945D02*
X145836624Y-111682945D01*
X145836624Y-111682945D02*
X149436624Y-111682945D01*
G04 #@! TO.C,D62*
X74399080Y-92633195D02*
X77999080Y-92633195D01*
X77999080Y-89533195D02*
X74399080Y-89533195D01*
X74399080Y-89533195D02*
X74399080Y-92633195D01*
X77999080Y-92633195D02*
X77999080Y-89533195D01*
G04 #@! TO.C,D55*
X206587120Y-108583275D02*
X202987120Y-108583275D01*
X202987120Y-108583275D02*
X202987120Y-111683275D01*
X206587120Y-111683275D02*
X206587120Y-108583275D01*
X202987120Y-111683275D02*
X206587120Y-111683275D01*
G04 #@! TO.C,D45*
X107736784Y-130732961D02*
X111336784Y-130732961D01*
X107736784Y-127632961D02*
X107736784Y-130732961D01*
X111336784Y-130732961D02*
X111336784Y-127632961D01*
X111336784Y-127632961D02*
X107736784Y-127632961D01*
G04 #@! TO.C,D74*
X139911968Y-43817365D02*
X139911968Y-40717365D01*
X136311968Y-40717365D02*
X136311968Y-43817365D01*
X139911968Y-40717365D02*
X136311968Y-40717365D01*
X136311968Y-43817365D02*
X139911968Y-43817365D01*
G04 #@! TO.C,D41*
X215723223Y-144354808D02*
X218268808Y-141809223D01*
X218268808Y-141809223D02*
X216076777Y-139617192D01*
X216076777Y-139617192D02*
X213531192Y-142162777D01*
X213531192Y-142162777D02*
X215723223Y-144354808D01*
G04 #@! TO.C,D51*
X130386608Y-108582945D02*
X126786608Y-108582945D01*
X130386608Y-111682945D02*
X130386608Y-108582945D01*
X126786608Y-108582945D02*
X126786608Y-111682945D01*
X126786608Y-111682945D02*
X130386608Y-111682945D01*
G04 #@! TO.C,D43*
X150599400Y-130733355D02*
X154199400Y-130733355D01*
X154199400Y-127633355D02*
X150599400Y-127633355D01*
X150599400Y-127633355D02*
X150599400Y-130733355D01*
X154199400Y-130733355D02*
X154199400Y-127633355D01*
G04 #@! TO.C,D50*
X111336592Y-108582945D02*
X107736592Y-108582945D01*
X111336592Y-111682945D02*
X111336592Y-108582945D01*
X107736592Y-111682945D02*
X111336592Y-111682945D01*
X107736592Y-108582945D02*
X107736592Y-111682945D01*
G04 #@! TO.C,D47*
X73237600Y-130733355D02*
X73237600Y-127633355D01*
X73237600Y-127633355D02*
X69637600Y-127633355D01*
X69637600Y-127633355D02*
X69637600Y-130733355D01*
X69637600Y-130733355D02*
X73237600Y-130733355D01*
G04 #@! TO.C,D58*
X155361920Y-92633195D02*
X158961920Y-92633195D01*
X158961920Y-92633195D02*
X158961920Y-89533195D01*
X155361920Y-89533195D02*
X155361920Y-92633195D01*
X158961920Y-89533195D02*
X155361920Y-89533195D01*
G04 #@! TO.C,D64*
X88686640Y-73583115D02*
X92286640Y-73583115D01*
X88686640Y-70483115D02*
X88686640Y-73583115D01*
X92286640Y-70483115D02*
X88686640Y-70483115D01*
X92286640Y-73583115D02*
X92286640Y-70483115D01*
G04 #@! TO.C,D53*
X164886960Y-108583275D02*
X164886960Y-111683275D01*
X168486960Y-108583275D02*
X164886960Y-108583275D01*
X164886960Y-111683275D02*
X168486960Y-111683275D01*
X168486960Y-111683275D02*
X168486960Y-108583275D01*
G04 #@! TO.C,D59*
X136311840Y-89533195D02*
X136311840Y-92633195D01*
X139911840Y-92633195D02*
X139911840Y-89533195D01*
X136311840Y-92633195D02*
X139911840Y-92633195D01*
X139911840Y-89533195D02*
X136311840Y-89533195D01*
G04 #@! TO.C,D68*
X168486960Y-70483115D02*
X164886960Y-70483115D01*
X164886960Y-73583115D02*
X168486960Y-73583115D01*
X168486960Y-73583115D02*
X168486960Y-70483115D01*
X164886960Y-70483115D02*
X164886960Y-73583115D01*
G04 #@! TO.C,D69*
X183937040Y-73583115D02*
X187537040Y-73583115D01*
X187537040Y-70483115D02*
X183937040Y-70483115D01*
X183937040Y-70483115D02*
X183937040Y-73583115D01*
X187537040Y-73583115D02*
X187537040Y-70483115D01*
G04 #@! TO.C,D49*
X92286576Y-111682945D02*
X92286576Y-108582945D01*
X92286576Y-108582945D02*
X88686576Y-108582945D01*
X88686576Y-108582945D02*
X88686576Y-111682945D01*
X88686576Y-111682945D02*
X92286576Y-111682945D01*
G04 #@! TO.C,D57*
X174412000Y-89533195D02*
X174412000Y-92633195D01*
X178012000Y-89533195D02*
X174412000Y-89533195D01*
X178012000Y-92633195D02*
X178012000Y-89533195D01*
X174412000Y-92633195D02*
X178012000Y-92633195D01*
G04 #@! TO.C,D73*
X158961984Y-43817365D02*
X158961984Y-40717365D01*
X158961984Y-40717365D02*
X155361984Y-40717365D01*
X155361984Y-40717365D02*
X155361984Y-43817365D01*
X155361984Y-43817365D02*
X158961984Y-43817365D01*
G04 #@! TO.C,D54*
X187417977Y-111683275D02*
X187417977Y-108583275D01*
X187417977Y-108583275D02*
X183817977Y-108583275D01*
X183817977Y-111683275D02*
X187417977Y-111683275D01*
X183817977Y-108583275D02*
X183817977Y-111683275D01*
G04 #@! TO.C,D67*
X145836688Y-70483115D02*
X145836688Y-73583115D01*
X149436688Y-73583115D02*
X149436688Y-70483115D01*
X145836688Y-73583115D02*
X149436688Y-73583115D01*
X149436688Y-70483115D02*
X145836688Y-70483115D01*
G04 #@! TD*
M02*
