M48
; DRILL file {KiCad (6.0.8)} date Sat Mar  4 03:17:24 2023
; FORMAT={-:-/ absolute / metric / decimal}
; #@! TF.CreationDate,2023-03-04T03:17:24+09:00
; #@! TF.GenerationSoftware,Kicad,Pcbnew,(6.0.8)
; #@! TF.FileFunction,MixedPlating,1,2
FMAT,2
METRIC
; #@! TA.AperFunction,Plated,PTH,ViaDrill
T1C0.200
; #@! TA.AperFunction,Plated,PTH,ComponentDrill
T2C0.400
; #@! TA.AperFunction,Plated,PTH,ComponentDrill
T3C0.600
; #@! TA.AperFunction,Plated,PTH,ComponentDrill
T4C1.000
; #@! TA.AperFunction,Plated,PTH,ComponentDrill
T5C1.300
; #@! TA.AperFunction,NonPlated,NPTH,ComponentDrill
T6C1.200
; #@! TA.AperFunction,NonPlated,NPTH,ComponentDrill
T7C1.900
; #@! TA.AperFunction,NonPlated,NPTH,ComponentDrill
T8C2.200
; #@! TA.AperFunction,NonPlated,NPTH,ComponentDrill
T9C3.000
; #@! TA.AperFunction,NonPlated,NPTH,ComponentDrill
T10C5.000
%
G90
G05
T1
X60.721Y-128.588
X63.102Y-72.628
X63.102Y-80.963
X63.102Y-82.153
X63.102Y-83.344
X63.102Y-109.538
X64.293Y-115.491
X65.483Y-58.341
X65.483Y-71.438
X65.483Y-89.297
X65.483Y-97.632
X65.483Y-109.538
X65.483Y-115.491
X65.483Y-128.588
X66.079Y-111.086
X66.674Y-36.91
X66.674Y-50.006
X66.674Y-51.197
X66.674Y-52.388
X66.674Y-58.341
X66.674Y-97.632
X66.674Y-115.491
X67.865Y-36.91
X67.865Y-58.341
X67.865Y-97.632
X69.055Y-36.91
X70.246Y-90.488
X72.865Y-55.245
X74.77Y-59.055
X74.77Y-101.204
X74.77Y-115.491
X76.199Y-71.438
X76.199Y-76.2
X76.199Y-109.538
X76.199Y-112.753
X77.39Y-98.822
X78.578Y-112.75
X78.58Y-128.469
X79.533Y-60.722
X79.533Y-77.986
X79.533Y-82.153
X79.533Y-95.965
X79.771Y-119.063
X79.771Y-120.254
X79.771Y-121.444
X80.962Y-39.767
X80.962Y-41.553
X82.152Y-72.628
X82.152Y-110.729
X83.343Y-76.2
X83.343Y-90.369
X83.343Y-115.491
X84.533Y-42.863
X84.533Y-49.649
X84.533Y-58.341
X84.533Y-97.632
X84.533Y-115.491
X84.533Y-128.588
X85.724Y-58.341
X85.724Y-94.06
X85.724Y-97.632
X85.724Y-115.491
X86.796Y-80.963
X86.796Y-82.153
X86.796Y-83.344
X86.915Y-58.341
X86.915Y-94.06
X86.915Y-97.632
X88.105Y-94.06
X91.677Y-50.006
X91.677Y-51.197
X91.677Y-52.388
X93.82Y-53.578
X93.82Y-58.341
X93.82Y-63.103
X93.82Y-101.204
X93.82Y-115.491
X94.059Y-90.488
X95.246Y-112.75
X95.249Y-42.863
X95.249Y-71.438
X95.249Y-76.2
X95.249Y-109.538
X96.321Y-98.822
X97.63Y-128.469
X97.633Y-112.75
X98.821Y-61.913
X98.821Y-63.103
X98.821Y-64.294
X98.821Y-119.063
X98.821Y-120.254
X98.821Y-121.444
X99.654Y-95.489
X101.202Y-72.628
X101.202Y-110.729
X102.393Y-115.491
X103.226Y-77.391
X103.345Y-82.153
X103.584Y-58.341
X103.584Y-97.632
X103.584Y-115.491
X103.584Y-128.588
X104.774Y-39.767
X104.774Y-41.553
X104.774Y-58.341
X104.774Y-97.632
X104.774Y-115.491
X105.965Y-58.341
X105.965Y-94.06
X105.965Y-97.632
X107.036Y-76.2
X107.036Y-90.369
X107.155Y-94.06
X108.346Y-36.91
X108.346Y-42.863
X108.346Y-49.649
X108.346Y-80.963
X108.346Y-82.153
X108.346Y-83.344
X108.346Y-94.06
X109.537Y-36.91
X110.727Y-36.91
X110.727Y-50.006
X110.727Y-51.197
X110.727Y-52.388
X112.87Y-53.578
X112.87Y-58.341
X112.87Y-63.103
X112.87Y-101.204
X112.87Y-115.491
X113.109Y-90.488
X114.299Y-42.863
X114.299Y-71.438
X114.299Y-76.2
X114.299Y-109.538
X114.302Y-112.75
X115.49Y-98.822
X116.68Y-128.469
X116.683Y-112.75
X117.871Y-61.913
X117.871Y-63.103
X117.871Y-64.294
X117.871Y-119.182
X117.871Y-120.373
X117.871Y-121.563
X119.3Y-95.012
X120.252Y-72.628
X120.252Y-110.729
X121.443Y-115.491
X122.276Y-77.391
X122.396Y-82.153
X122.634Y-58.341
X122.634Y-97.632
X122.634Y-115.491
X122.634Y-128.588
X123.824Y-39.767
X123.824Y-41.553
X123.824Y-58.341
X123.824Y-94.06
X123.824Y-97.632
X123.824Y-115.491
X125.015Y-58.341
X125.015Y-94.06
X125.015Y-97.632
X126.206Y-76.2
X126.206Y-90.369
X126.206Y-94.06
X127.396Y-42.863
X127.396Y-49.649
X127.396Y-80.963
X127.396Y-82.153
X127.396Y-83.344
X129.777Y-50.006
X129.777Y-51.197
X129.777Y-52.388
X131.921Y-53.578
X131.921Y-58.341
X131.921Y-63.103
X131.921Y-101.204
X131.921Y-115.491
X132.159Y-90.488
X133.349Y-42.863
X133.349Y-71.438
X133.349Y-76.2
X133.349Y-109.538
X133.352Y-112.75
X134.54Y-98.822
X135.728Y-112.75
X135.731Y-128.469
X136.921Y-61.913
X136.921Y-63.103
X136.921Y-64.294
X139.302Y-72.747
X139.302Y-110.729
X141.327Y-75.248
X141.327Y-77.391
X141.446Y-82.153
X141.684Y-58.341
X141.684Y-97.632
X141.684Y-119.063
X141.684Y-120.254
X141.684Y-121.444
X141.684Y-128.588
X142.874Y-39.767
X142.874Y-41.553
X142.874Y-58.341
X142.874Y-97.632
X144.065Y-58.341
X144.065Y-94.06
X144.065Y-97.632
X145.256Y-76.2
X145.256Y-90.369
X145.256Y-94.06
X145.256Y-115.491
X146.446Y-36.91
X146.446Y-42.863
X146.446Y-49.649
X146.446Y-80.963
X146.446Y-82.153
X146.446Y-83.344
X146.446Y-94.06
X146.446Y-115.491
X146.446Y-128.469
X146.446Y-131.565
X147.637Y-36.91
X147.637Y-115.491
X148.828Y-36.91
X148.828Y-50.006
X148.828Y-51.197
X148.828Y-52.388
X150.971Y-53.578
X150.971Y-58.341
X150.971Y-63.103
X150.971Y-96.56
X150.971Y-101.204
X151.209Y-90.488
X152.399Y-42.863
X152.399Y-71.438
X152.399Y-76.2
X152.399Y-109.538
X152.402Y-112.75
X155.614Y-115.491
X155.971Y-61.913
X155.971Y-63.103
X155.971Y-64.294
X158.353Y-72.747
X158.353Y-110.729
X159.541Y-112.75
X159.543Y-128.469
X160.377Y-74.772
X160.377Y-77.391
X160.496Y-82.153
X160.734Y-58.341
X160.734Y-97.632
X161.924Y-39.767
X161.924Y-41.553
X161.924Y-58.341
X161.924Y-97.632
X163.115Y-58.341
X163.115Y-94.06
X163.115Y-97.632
X163.282Y-114.777
X163.71Y-114.3
X164.303Y-112.75
X164.306Y-76.2
X164.306Y-90.369
X164.306Y-94.06
X165.496Y-42.863
X165.496Y-49.649
X165.496Y-80.963
X165.496Y-82.153
X165.496Y-83.344
X165.496Y-94.06
X167.878Y-50.006
X167.878Y-51.197
X167.878Y-52.388
X169.902Y-101.204
X170.021Y-58.341
X170.021Y-63.103
X170.021Y-113.824
X170.259Y-53.578
X170.259Y-90.488
X170.259Y-136.941
X171.211Y-113.348
X171.449Y-42.863
X171.449Y-71.319
X171.449Y-76.2
X171.449Y-109.538
X171.452Y-112.75
X171.926Y-135.017
X172.64Y-98.822
X174.069Y-135.017
X175.021Y-60.722
X175.021Y-116.682
X176.212Y-116.682
X177.403Y-72.628
X177.403Y-74.295
X177.403Y-110.729
X177.403Y-116.682
X177.403Y-140.017
X179.427Y-77.391
X179.546Y-82.153
X179.784Y-58.341
X179.784Y-97.632
X180.975Y-39.767
X180.975Y-41.553
X180.975Y-58.341
X180.975Y-97.632
X182.165Y-58.341
X182.165Y-94.06
X182.165Y-97.632
X183.356Y-76.2
X183.356Y-90.369
X183.356Y-94.06
X184.546Y-42.863
X184.546Y-49.649
X184.546Y-80.963
X184.546Y-82.153
X184.546Y-83.344
X184.546Y-94.06
X184.547Y-136.446
X184.547Y-140.732
X185.618Y-122.635
X186.928Y-42.863
X186.928Y-90.488
X188.118Y-118.944
X188.118Y-120.135
X188.118Y-121.325
X189.071Y-67.271
X189.309Y-41.553
X189.309Y-53.578
X189.309Y-90.488
X189.904Y-50.006
X189.904Y-55.96
X190.497Y-112.75
X190.5Y-42.863
X190.5Y-71.319
X190.5Y-76.2
X190.5Y-109.538
X191.69Y-76.915
X192.881Y-73.819
X192.881Y-98.822
X192.881Y-129.779
X194.071Y-36.91
X194.071Y-60.722
X194.071Y-111.919
X194.191Y-135.613
X194.191Y-136.803
X194.191Y-137.994
X195.262Y-36.91
X195.262Y-94.06
X195.262Y-98.822
X195.262Y-135.613
X195.262Y-136.803
X195.262Y-137.994
X196.453Y-36.91
X196.453Y-72.628
X196.453Y-94.06
X196.453Y-110.729
X196.453Y-135.613
X196.453Y-136.803
X196.453Y-137.994
X197.643Y-94.06
X197.643Y-119.063
X197.643Y-120.254
X197.643Y-121.444
X198.834Y-58.341
X198.834Y-82.153
X198.834Y-97.632
X199.786Y-39.767
X199.786Y-41.553
X200.025Y-58.341
X200.025Y-97.632
X200.089Y-145.917
X201.215Y-58.341
X201.215Y-80.963
X201.215Y-82.153
X201.215Y-83.344
X201.215Y-91.679
X201.215Y-92.869
X201.215Y-94.06
X201.215Y-97.632
X202.406Y-76.2
X202.406Y-90.369
X202.882Y-82.153
X202.882Y-95.012
X203.272Y-95.403
X203.31Y-82.987
X203.596Y-54.769
X203.738Y-89.416
X203.773Y-95.834
X204.657Y-88.691
X204.668Y-91.321
X205.382Y-55.96
X205.859Y-75.248
X205.918Y-88.285
X205.978Y-81.201
X206.097Y-44.887
X206.216Y-47.625
X206.216Y-74.772
X206.353Y-80.718
X206.692Y-46.554
X206.692Y-74.295
X206.74Y-80.253
X207.049Y-45.363
X207.168Y-96.441
X207.645Y-90.012
X208.073Y-90.726
X208.073Y-107.752
X208.121Y-63.103
X209.547Y-112.75
X209.55Y-71.438
X209.55Y-76.2
X209.55Y-77.391
X209.55Y-109.419
X209.788Y-45.006
X210.026Y-45.958
X210.026Y-46.911
X210.026Y-47.863
X210.026Y-83.82
X210.74Y-94.06
X210.741Y-144.066
X211.097Y-69.652
X211.693Y-89.416
X211.931Y-54.769
X211.931Y-55.96
X211.931Y-57.15
X212.646Y-146.209
X212.764Y-89.535
X213.002Y-45.363
X213.122Y-113.824
X213.598Y-70.247
X213.836Y-90.488
X214.193Y-44.768
X214.312Y-77.629
X214.312Y-101.204
X214.312Y-102.394
X214.312Y-103.585
X214.312Y-126.207
X214.312Y-127.397
X214.312Y-128.588
X214.431Y-47.03
X215.146Y-80.368
X215.503Y-126.207
X215.503Y-127.397
X215.503Y-128.588
X215.599Y-113.348
X215.741Y-90.607
X215.741Y-94.417
X216.027Y-114.349
X216.098Y-81.677
X216.158Y-94.82
X216.217Y-90.012
X216.455Y-114.777
X216.503Y-95.25
X216.693Y-55.96
X216.693Y-70.247
X216.693Y-82.153
X216.693Y-126.207
X216.693Y-127.397
X216.693Y-128.588
X217.408Y-77.034
X218.598Y-91.798
X218.837Y-77.748
X219.075Y-101.204
X219.075Y-102.394
X219.075Y-103.585
X219.194Y-87.273
X219.551Y-94.298
X219.67Y-80.844
X219.908Y-94.774
X220.027Y-109.538
X220.265Y-95.25
X221.575Y-88.464
X221.813Y-89.535
X221.813Y-101.323
X222.289Y-88.226
X222.647Y-126.207
X222.647Y-127.397
X222.647Y-128.588
X222.766Y-102.275
X223.242Y-87.63
X223.361Y-109.538
X223.837Y-126.207
X223.837Y-127.397
X223.837Y-128.588
X225.028Y-95.25
X225.028Y-107.157
X225.028Y-126.207
X225.028Y-127.397
X225.028Y-128.588
X226.218Y-95.25
X227.409Y-95.25
T2
X208.026Y-42.919
X208.826Y-42.919
X209.626Y-42.919
X210.426Y-42.919
X211.226Y-42.919
X212.026Y-42.919
T4
X167.268Y-134.541
X167.926Y-132.087
X168.583Y-129.634
X169.241Y-127.18
X169.898Y-124.727
X170.555Y-122.273
X171.213Y-119.82
X221.021Y-113.372
X223.522Y-112.931
X226.024Y-112.49
X228.525Y-112.049
T5
X218.511Y-64.07
X219.64Y-70.471
T6
X210.674Y-52.103
X217.568Y-50.887
T7
X65.938Y-66.675
X65.938Y-104.775
X65.938Y-123.825
X70.7Y-47.625
X70.7Y-85.725
X76.938Y-66.675
X76.938Y-104.775
X76.938Y-123.825
X81.7Y-47.625
X81.7Y-85.725
X84.987Y-66.675
X84.987Y-104.775
X84.987Y-123.825
X94.512Y-47.625
X94.512Y-85.725
X95.987Y-66.675
X95.987Y-104.775
X95.987Y-123.825
X104.037Y-66.675
X104.037Y-104.775
X104.037Y-123.825
X105.512Y-47.625
X105.512Y-85.725
X113.562Y-47.625
X113.562Y-85.725
X115.037Y-66.675
X115.037Y-104.775
X115.037Y-123.825
X123.087Y-123.825
X123.087Y-66.675
X123.087Y-104.775
X124.562Y-47.625
X124.562Y-85.725
X132.612Y-47.625
X132.612Y-85.725
X134.087Y-123.825
X134.088Y-66.675
X134.088Y-104.775
X142.137Y-66.675
X142.137Y-104.775
X143.612Y-47.625
X143.612Y-85.725
X146.9Y-123.825
X151.662Y-47.625
X151.662Y-85.725
X153.137Y-66.675
X153.137Y-104.775
X157.9Y-123.825
X161.188Y-66.675
X161.188Y-104.775
X162.662Y-47.625
X162.662Y-85.725
X170.713Y-47.625
X170.713Y-85.725
X172.188Y-66.675
X172.188Y-104.775
X175.662Y-129.545
X180.237Y-66.675
X180.237Y-104.775
X181.713Y-47.625
X181.713Y-85.725
X186.288Y-132.392
X189.762Y-47.625
X189.762Y-85.725
X191.237Y-66.675
X191.237Y-104.775
X199.287Y-66.675
X199.287Y-104.775
X200.762Y-47.625
X200.762Y-85.725
X208.042Y-142.002
X210.287Y-66.675
X210.287Y-104.775
X215.82Y-134.223
T8
X61.912Y-38.1
X61.912Y-57.15
X80.962Y-114.3
X100.013Y-58.936
X128.587Y-38.1
X128.588Y-93.464
X157.162Y-58.936
X205.978Y-125.016
X217.884Y-58.936
T9
X66.438Y-62.975
X66.438Y-101.075
X66.438Y-120.125
X71.2Y-82.025
X71.438Y-60.775
X71.438Y-98.875
X71.438Y-117.925
X76.2Y-53.525
X76.2Y-79.825
X81.2Y-51.325
X85.487Y-62.975
X85.487Y-101.075
X85.487Y-120.125
X90.487Y-60.775
X90.487Y-98.875
X90.487Y-117.925
X95.012Y-82.025
X100.012Y-53.525
X100.012Y-79.825
X104.537Y-62.975
X104.537Y-101.075
X104.537Y-120.125
X105.012Y-51.325
X109.537Y-60.775
X109.537Y-98.875
X109.537Y-117.925
X114.062Y-82.025
X119.062Y-53.525
X119.062Y-79.825
X123.587Y-120.125
X123.587Y-62.975
X123.587Y-101.075
X124.062Y-51.325
X128.587Y-117.925
X128.588Y-60.775
X128.588Y-98.875
X133.112Y-82.025
X138.112Y-53.525
X138.112Y-79.825
X142.637Y-62.975
X142.637Y-101.075
X143.112Y-51.325
X147.4Y-120.125
X147.637Y-60.775
X147.637Y-98.875
X152.162Y-82.025
X152.4Y-117.925
X157.162Y-53.525
X157.162Y-79.825
X161.688Y-62.975
X161.688Y-101.075
X162.162Y-51.325
X166.688Y-60.775
X166.688Y-98.875
X171.213Y-82.025
X176.213Y-53.525
X176.213Y-79.825
X177.103Y-126.101
X180.737Y-62.975
X180.737Y-101.075
X181.213Y-51.325
X182.502Y-125.27
X185.737Y-60.775
X185.737Y-98.875
X190.262Y-82.025
X195.262Y-53.525
X195.262Y-79.825
X199.787Y-62.975
X199.787Y-101.075
X200.262Y-51.325
X204.787Y-60.775
X204.787Y-98.875
X205.779Y-139.032
X207.759Y-133.941
T10
X71.438Y-66.675
X71.438Y-104.775
X71.438Y-123.825
X76.2Y-47.625
X76.2Y-85.725
X90.487Y-66.675
X90.487Y-104.775
X90.487Y-123.825
X100.012Y-47.625
X100.012Y-85.725
X109.537Y-66.675
X109.537Y-104.775
X109.537Y-123.825
X119.062Y-47.625
X119.062Y-85.725
X128.587Y-123.825
X128.588Y-66.675
X128.588Y-104.775
X138.112Y-47.625
X138.112Y-85.725
X147.637Y-66.675
X147.637Y-104.775
X152.4Y-123.825
X157.162Y-47.625
X157.162Y-85.725
X166.688Y-66.675
X166.688Y-104.775
X176.213Y-47.625
X176.213Y-85.725
X180.975Y-130.969
X185.737Y-66.675
X185.737Y-104.775
X195.262Y-47.625
X195.262Y-85.725
X204.787Y-66.675
X204.787Y-104.775
X211.931Y-138.112
T3
G00X204.476Y-38.869
M15
G01X204.476Y-37.769
M16
G05
G00X204.476Y-43.919
M15
G01X204.476Y-42.819
M16
G05
G00X215.576Y-38.869
M15
G01X215.576Y-37.769
M16
G05
G00X215.576Y-43.919
M15
G01X215.576Y-42.819
M16
G05
T4
G00X207.543Y-54.787
M15
G01X208.035Y-54.701
M16
G05
G00X208.29Y-50.391
M15
G01X208.783Y-50.304
M16
G05
G00X212.23Y-49.696
M15
G01X212.722Y-49.609
M16
G05
G00X215.184Y-49.175
M15
G01X215.676Y-49.088
M16
G05
T0
M30
