G04 #@! TF.GenerationSoftware,KiCad,Pcbnew,(6.0.8)*
G04 #@! TF.CreationDate,2023-02-19T02:59:28+09:00*
G04 #@! TF.ProjectId,ma8ic_split_69_right,6d613869-635f-4737-906c-69745f36395f,0.1*
G04 #@! TF.SameCoordinates,Original*
G04 #@! TF.FileFunction,Profile,NP*
%FSLAX46Y46*%
G04 Gerber Fmt 4.6, Leading zero omitted, Abs format (unit mm)*
G04 Created by KiCad (PCBNEW (6.0.8)) date 2023-02-19 02:59:28*
%MOMM*%
%LPD*%
G01*
G04 APERTURE LIST*
G04 #@! TA.AperFunction,Profile*
%ADD10C,0.100000*%
G04 #@! TD*
G04 #@! TA.AperFunction,Profile*
%ADD11C,0.150000*%
G04 #@! TD*
G04 #@! TA.AperFunction,Profile*
%ADD12C,0.120000*%
G04 #@! TD*
G04 APERTURE END LIST*
D10*
X80578800Y-35718822D02*
X78581300Y-35718715D01*
X147875675Y-135731213D02*
G75*
G03*
X92290515Y-160379059I-1056745J-72617857D01*
G01*
X60007550Y-129539965D02*
X76211868Y-37863022D01*
X233362427Y-135731315D02*
X223837500Y-135731215D01*
D11*
X235743700Y-38100100D02*
G75*
G03*
X233362477Y-35718800I-2381200J100D01*
G01*
D10*
X78581300Y-35718647D02*
G75*
G03*
X76211868Y-37863022I100J-2381353D01*
G01*
X60007547Y-129539964D02*
G75*
G03*
X61198175Y-133349965I4077753J-816736D01*
G01*
D11*
X147875675Y-135731215D02*
X223837500Y-135731215D01*
D10*
X61198175Y-133349965D02*
X88106300Y-160734340D01*
X223837550Y-35718700D02*
X89918800Y-35718822D01*
X223837550Y-35718700D02*
X233362477Y-35718800D01*
X88106307Y-160734331D02*
G75*
G03*
X92290515Y-160379059I1904993J2381331D01*
G01*
D11*
X233362427Y-135731242D02*
G75*
G03*
X235743642Y-133350065I-27J2381242D01*
G01*
X235743727Y-38100100D02*
X235743642Y-133350065D01*
D10*
X220741666Y-47625000D02*
G75*
G03*
X220741666Y-47625000I-1666666J0D01*
G01*
X216575000Y-47625000D02*
X221575000Y-47625000D01*
X219075000Y-45125000D02*
X219075000Y-50125000D01*
D12*
G04 #@! TO.C,D48*
X225638440Y-108582945D02*
X225638440Y-111682945D01*
X225638440Y-111682945D02*
X222038440Y-111682945D01*
X222038440Y-108582945D02*
X225638440Y-108582945D01*
X222038440Y-111682945D02*
X222038440Y-108582945D01*
G04 #@! TO.C,D61*
X193463320Y-92633195D02*
X193463320Y-89533195D01*
X197063320Y-92633195D02*
X193463320Y-92633195D01*
X193463320Y-89533195D02*
X197063320Y-89533195D01*
X197063320Y-89533195D02*
X197063320Y-92633195D01*
D10*
G04 #@! TO.C,J1*
X89918800Y-42368822D02*
X89918800Y-35718822D01*
X80578800Y-42368822D02*
X89918800Y-42368822D01*
X80578800Y-35718822D02*
X80578800Y-42368822D01*
D12*
G04 #@! TO.C,D75*
X178013048Y-43817365D02*
X174413048Y-43817365D01*
X178013048Y-40717365D02*
X178013048Y-43817365D01*
X174413048Y-40717365D02*
X178013048Y-40717365D01*
X174413048Y-43817365D02*
X174413048Y-40717365D01*
G04 #@! TO.C,D60*
X174413240Y-92633195D02*
X174413240Y-89533195D01*
X178013240Y-92633195D02*
X174413240Y-92633195D01*
X174413240Y-89533195D02*
X178013240Y-89533195D01*
X178013240Y-89533195D02*
X178013240Y-92633195D01*
G04 #@! TO.C,D42*
X113557164Y-135239689D02*
X117034497Y-134307941D01*
X117836836Y-137302311D02*
X114359503Y-138234059D01*
X114359503Y-138234059D02*
X113557164Y-135239689D01*
X117034497Y-134307941D02*
X117836836Y-137302311D01*
G04 #@! TO.C,D70*
X88687880Y-73583115D02*
X88687880Y-70483115D01*
X88687880Y-70483115D02*
X92287880Y-70483115D01*
X92287880Y-70483115D02*
X92287880Y-73583115D01*
X92287880Y-73583115D02*
X88687880Y-73583115D01*
G04 #@! TO.C,D72*
X120863000Y-40717365D02*
X120863000Y-43817365D01*
X117263000Y-40717365D02*
X120863000Y-40717365D01*
X117263000Y-43817365D02*
X117263000Y-40717365D01*
X120863000Y-43817365D02*
X117263000Y-43817365D01*
G04 #@! TO.C,D71*
X101812920Y-40717263D02*
X101812920Y-43817263D01*
X98212920Y-40717263D02*
X101812920Y-40717263D01*
X98212920Y-43817263D02*
X98212920Y-40717263D01*
X101812920Y-43817263D02*
X98212920Y-43817263D01*
G04 #@! TO.C,D46*
X206588232Y-130732961D02*
X202988232Y-130732961D01*
X206588232Y-127632961D02*
X206588232Y-130732961D01*
X202988232Y-130732961D02*
X202988232Y-127632961D01*
X202988232Y-127632961D02*
X206588232Y-127632961D01*
G04 #@! TO.C,D56*
X101812920Y-92633195D02*
X98212920Y-92633195D01*
X98212920Y-92633195D02*
X98212920Y-89533195D01*
X98212920Y-89533195D02*
X101812920Y-89533195D01*
X101812920Y-89533195D02*
X101812920Y-92633195D01*
G04 #@! TO.C,D76*
X193463320Y-40717365D02*
X197063320Y-40717365D01*
X193463320Y-43817365D02*
X193463320Y-40717365D01*
X197063320Y-40717365D02*
X197063320Y-43817365D01*
X197063320Y-43817365D02*
X193463320Y-43817365D01*
G04 #@! TO.C,D66*
X164888328Y-73583115D02*
X164888328Y-70483115D01*
X168488328Y-70483115D02*
X168488328Y-73583115D01*
X164888328Y-70483115D02*
X168488328Y-70483115D01*
X168488328Y-73583115D02*
X164888328Y-73583115D01*
G04 #@! TO.C,D77*
X217156857Y-40717365D02*
X220756857Y-40717365D01*
X217156857Y-43817365D02*
X217156857Y-40717365D01*
X220756857Y-40717365D02*
X220756857Y-43817365D01*
X220756857Y-43817365D02*
X217156857Y-43817365D01*
G04 #@! TO.C,D44*
X164888200Y-130732961D02*
X164888200Y-127632961D01*
X168488200Y-127632961D02*
X168488200Y-130732961D01*
X164888200Y-127632961D02*
X168488200Y-127632961D01*
X168488200Y-130732961D02*
X164888200Y-130732961D01*
G04 #@! TO.C,D63*
X222038440Y-73583115D02*
X222038440Y-70483115D01*
X225638440Y-73583115D02*
X222038440Y-73583115D01*
X222038440Y-70483115D02*
X225638440Y-70483115D01*
X225638440Y-70483115D02*
X225638440Y-73583115D01*
G04 #@! TO.C,D65*
X187538344Y-73583115D02*
X183938344Y-73583115D01*
X183938344Y-70483115D02*
X187538344Y-70483115D01*
X183938344Y-73583115D02*
X183938344Y-70483115D01*
X187538344Y-70483115D02*
X187538344Y-73583115D01*
G04 #@! TO.C,D52*
X145838376Y-108582945D02*
X149438376Y-108582945D01*
X145838376Y-111682945D02*
X145838376Y-108582945D01*
X149438376Y-108582945D02*
X149438376Y-111682945D01*
X149438376Y-111682945D02*
X145838376Y-111682945D01*
G04 #@! TO.C,D62*
X220875920Y-92633195D02*
X217275920Y-92633195D01*
X217275920Y-89533195D02*
X220875920Y-89533195D01*
X220875920Y-89533195D02*
X220875920Y-92633195D01*
X217275920Y-92633195D02*
X217275920Y-89533195D01*
G04 #@! TO.C,D55*
X88687880Y-108583275D02*
X92287880Y-108583275D01*
X92287880Y-108583275D02*
X92287880Y-111683275D01*
X88687880Y-111683275D02*
X88687880Y-108583275D01*
X92287880Y-111683275D02*
X88687880Y-111683275D01*
G04 #@! TO.C,D45*
X187538216Y-130732961D02*
X183938216Y-130732961D01*
X187538216Y-127632961D02*
X187538216Y-130732961D01*
X183938216Y-130732961D02*
X183938216Y-127632961D01*
X183938216Y-127632961D02*
X187538216Y-127632961D01*
G04 #@! TO.C,D74*
X155363032Y-43817365D02*
X155363032Y-40717365D01*
X158963032Y-40717365D02*
X158963032Y-43817365D01*
X155363032Y-40717365D02*
X158963032Y-40717365D01*
X158963032Y-43817365D02*
X155363032Y-43817365D01*
G04 #@! TO.C,D41*
X79198223Y-139617192D02*
X81743808Y-142162777D01*
X81743808Y-142162777D02*
X79551777Y-144354808D01*
X79551777Y-144354808D02*
X77006192Y-141809223D01*
X77006192Y-141809223D02*
X79198223Y-139617192D01*
G04 #@! TO.C,D51*
X164888392Y-108582945D02*
X168488392Y-108582945D01*
X164888392Y-111682945D02*
X164888392Y-108582945D01*
X168488392Y-108582945D02*
X168488392Y-111682945D01*
X168488392Y-111682945D02*
X164888392Y-111682945D01*
G04 #@! TO.C,D43*
X144675600Y-130733355D02*
X141075600Y-130733355D01*
X141075600Y-127633355D02*
X144675600Y-127633355D01*
X144675600Y-127633355D02*
X144675600Y-130733355D01*
X141075600Y-130733355D02*
X141075600Y-127633355D01*
G04 #@! TO.C,D50*
X183938408Y-108582945D02*
X187538408Y-108582945D01*
X183938408Y-111682945D02*
X183938408Y-108582945D01*
X187538408Y-111682945D02*
X183938408Y-111682945D01*
X187538408Y-108582945D02*
X187538408Y-111682945D01*
G04 #@! TO.C,D47*
X222037400Y-130733355D02*
X222037400Y-127633355D01*
X222037400Y-127633355D02*
X225637400Y-127633355D01*
X225637400Y-127633355D02*
X225637400Y-130733355D01*
X225637400Y-130733355D02*
X222037400Y-130733355D01*
G04 #@! TO.C,D58*
X139913080Y-92633195D02*
X136313080Y-92633195D01*
X136313080Y-92633195D02*
X136313080Y-89533195D01*
X139913080Y-89533195D02*
X139913080Y-92633195D01*
X136313080Y-89533195D02*
X139913080Y-89533195D01*
G04 #@! TO.C,D64*
X206588360Y-73583115D02*
X202988360Y-73583115D01*
X206588360Y-70483115D02*
X206588360Y-73583115D01*
X202988360Y-70483115D02*
X206588360Y-70483115D01*
X202988360Y-73583115D02*
X202988360Y-70483115D01*
G04 #@! TO.C,D53*
X130388040Y-108583275D02*
X130388040Y-111683275D01*
X126788040Y-108583275D02*
X130388040Y-108583275D01*
X130388040Y-111683275D02*
X126788040Y-111683275D01*
X126788040Y-111683275D02*
X126788040Y-108583275D01*
G04 #@! TO.C,D59*
X158963160Y-89533195D02*
X158963160Y-92633195D01*
X155363160Y-92633195D02*
X155363160Y-89533195D01*
X158963160Y-92633195D02*
X155363160Y-92633195D01*
X155363160Y-89533195D02*
X158963160Y-89533195D01*
G04 #@! TO.C,D68*
X126788040Y-70483115D02*
X130388040Y-70483115D01*
X130388040Y-73583115D02*
X126788040Y-73583115D01*
X126788040Y-73583115D02*
X126788040Y-70483115D01*
X130388040Y-70483115D02*
X130388040Y-73583115D01*
G04 #@! TO.C,D69*
X111337960Y-73583115D02*
X107737960Y-73583115D01*
X107737960Y-70483115D02*
X111337960Y-70483115D01*
X111337960Y-70483115D02*
X111337960Y-73583115D01*
X107737960Y-73583115D02*
X107737960Y-70483115D01*
G04 #@! TO.C,D49*
X202988424Y-111682945D02*
X202988424Y-108582945D01*
X202988424Y-108582945D02*
X206588424Y-108582945D01*
X206588424Y-108582945D02*
X206588424Y-111682945D01*
X206588424Y-111682945D02*
X202988424Y-111682945D01*
G04 #@! TO.C,D57*
X120863000Y-89533195D02*
X120863000Y-92633195D01*
X117263000Y-89533195D02*
X120863000Y-89533195D01*
X117263000Y-92633195D02*
X117263000Y-89533195D01*
X120863000Y-92633195D02*
X117263000Y-92633195D01*
G04 #@! TO.C,D73*
X136313016Y-43817365D02*
X136313016Y-40717365D01*
X136313016Y-40717365D02*
X139913016Y-40717365D01*
X139913016Y-40717365D02*
X139913016Y-43817365D01*
X139913016Y-43817365D02*
X136313016Y-43817365D01*
G04 #@! TO.C,D54*
X107857023Y-111683275D02*
X107857023Y-108583275D01*
X107857023Y-108583275D02*
X111457023Y-108583275D01*
X111457023Y-111683275D02*
X107857023Y-111683275D01*
X111457023Y-108583275D02*
X111457023Y-111683275D01*
G04 #@! TO.C,D67*
X149438312Y-70483115D02*
X149438312Y-73583115D01*
X145838312Y-73583115D02*
X145838312Y-70483115D01*
X149438312Y-73583115D02*
X145838312Y-73583115D01*
X145838312Y-70483115D02*
X149438312Y-70483115D01*
G04 #@! TD*
M02*
