G04 #@! TF.GenerationSoftware,KiCad,Pcbnew,(6.0.8)*
G04 #@! TF.CreationDate,2023-03-04T03:17:21+09:00*
G04 #@! TF.ProjectId,ma8ic_split_69_right,6d613869-635f-4737-906c-69745f36395f,0.1*
G04 #@! TF.SameCoordinates,Original*
G04 #@! TF.FileFunction,Soldermask,Top*
G04 #@! TF.FilePolarity,Negative*
%FSLAX46Y46*%
G04 Gerber Fmt 4.6, Leading zero omitted, Abs format (unit mm)*
G04 Created by KiCad (PCBNEW (6.0.8)) date 2023-03-04 03:17:21*
%MOMM*%
%LPD*%
G01*
G04 APERTURE LIST*
G04 Aperture macros list*
%AMRoundRect*
0 Rectangle with rounded corners*
0 $1 Rounding radius*
0 $2 $3 $4 $5 $6 $7 $8 $9 X,Y pos of 4 corners*
0 Add a 4 corners polygon primitive as box body*
4,1,4,$2,$3,$4,$5,$6,$7,$8,$9,$2,$3,0*
0 Add four circle primitives for the rounded corners*
1,1,$1+$1,$2,$3*
1,1,$1+$1,$4,$5*
1,1,$1+$1,$6,$7*
1,1,$1+$1,$8,$9*
0 Add four rect primitives between the rounded corners*
20,1,$1+$1,$2,$3,$4,$5,0*
20,1,$1+$1,$4,$5,$6,$7,0*
20,1,$1+$1,$6,$7,$8,$9,0*
20,1,$1+$1,$8,$9,$2,$3,0*%
%AMHorizOval*
0 Thick line with rounded ends*
0 $1 width*
0 $2 $3 position (X,Y) of the first rounded end (center of the circle)*
0 $4 $5 position (X,Y) of the second rounded end (center of the circle)*
0 Add line between two ends*
20,1,$1,$2,$3,$4,$5,0*
0 Add two circle primitives to create the rounded ends*
1,1,$1,$2,$3*
1,1,$1,$4,$5*%
%AMRotRect*
0 Rectangle, with rotation*
0 The origin of the aperture is its center*
0 $1 length*
0 $2 width*
0 $3 Rotation angle, in degrees counterclockwise*
0 Add horizontal line*
21,1,$1,$2,0,0,$3*%
G04 Aperture macros list end*
%ADD10C,0.010000*%
%ADD11C,3.000000*%
%ADD12R,2.600000X2.600000*%
%ADD13RotRect,2.600000X2.600000X165.000000*%
%ADD14C,2.000000*%
%ADD15C,1.700000*%
%ADD16RotRect,2.600000X2.600000X225.000000*%
%ADD17C,1.200000*%
%ADD18HorizOval,1.700000X0.393923X0.069459X-0.393923X-0.069459X0*%
%ADD19R,1.000000X1.400000*%
%ADD20RoundRect,0.225000X0.250000X-0.225000X0.250000X0.225000X-0.250000X0.225000X-0.250000X-0.225000X0*%
%ADD21RoundRect,0.200000X-0.200000X-0.275000X0.200000X-0.275000X0.200000X0.275000X-0.200000X0.275000X0*%
%ADD22C,2.200000*%
%ADD23R,1.700000X1.000000*%
%ADD24RoundRect,0.218750X-0.170929X-0.290343X0.259924X-0.214371X0.170929X0.290343X-0.259924X0.214371X0*%
%ADD25R,0.230000X0.850000*%
%ADD26C,0.600000*%
%ADD27O,1.200000X2.400000*%
%ADD28R,0.460000X0.850000*%
%ADD29RoundRect,0.200000X0.275000X-0.200000X0.275000X0.200000X-0.275000X0.200000X-0.275000X-0.200000X0*%
%ADD30RoundRect,0.200000X0.200000X0.275000X-0.200000X0.275000X-0.200000X-0.275000X0.200000X-0.275000X0*%
%ADD31RotRect,1.700000X1.000000X345.000000*%
%ADD32RoundRect,0.200000X-0.275000X0.200000X-0.275000X-0.200000X0.275000X-0.200000X0.275000X0.200000X0*%
%ADD33RotRect,1.400000X1.000000X75.000000*%
%ADD34RotRect,0.400000X1.900000X315.000000*%
%ADD35RotRect,1.400000X1.000000X135.000000*%
%ADD36RotRect,1.500000X0.550000X135.000000*%
%ADD37RotRect,1.500000X0.550000X225.000000*%
%ADD38RotRect,1.700000X1.000000X45.000000*%
%ADD39RoundRect,0.225000X-0.250000X0.225000X-0.250000X-0.225000X0.250000X-0.225000X0.250000X0.225000X0*%
%ADD40RotRect,1.700000X1.700000X165.000000*%
%ADD41HorizOval,1.700000X0.000000X0.000000X0.000000X0.000000X0*%
G04 APERTURE END LIST*
G04 #@! TO.C,J1*
G36*
X215633390Y-39618822D02*
G01*
X214776200Y-39618822D01*
X214776200Y-37017152D01*
X215633390Y-37017152D01*
X215633390Y-39618822D01*
G37*
D10*
X215633390Y-39618822D02*
X214776200Y-39618822D01*
X214776200Y-37017152D01*
X215633390Y-37017152D01*
X215633390Y-39618822D01*
G36*
X205276090Y-39618822D02*
G01*
X204476200Y-39618822D01*
X204476200Y-37018792D01*
X205276090Y-37018792D01*
X205276090Y-39618822D01*
G37*
X205276090Y-39618822D02*
X204476200Y-39618822D01*
X204476200Y-37018792D01*
X205276090Y-37018792D01*
X205276090Y-39618822D01*
G04 #@! TD*
D11*
G04 #@! TO.C,SW6*
X162162500Y-51325000D03*
X157162500Y-53525000D03*
D12*
X165462500Y-51325000D03*
X153862500Y-53525000D03*
G04 #@! TD*
D11*
G04 #@! TO.C,SW37*
X182502032Y-125269788D03*
X177103001Y-126100729D03*
D13*
X173915446Y-125246626D03*
X185689588Y-126123890D03*
G04 #@! TD*
D11*
G04 #@! TO.C,SW28*
X147637500Y-98875000D03*
X142637500Y-101075000D03*
D12*
X139337500Y-101075000D03*
X150937500Y-98875000D03*
G04 #@! TD*
D11*
G04 #@! TO.C,SW22*
X176212500Y-79825000D03*
X171212500Y-82025000D03*
D12*
X167912500Y-82025000D03*
X179512500Y-79825000D03*
G04 #@! TD*
D11*
G04 #@! TO.C,SW21*
X157162500Y-79825000D03*
X152162500Y-82025000D03*
D12*
X148862500Y-82025000D03*
X160462500Y-79825000D03*
G04 #@! TD*
D11*
G04 #@! TO.C,SW32*
X71437500Y-117925000D03*
X66437500Y-120125000D03*
D12*
X63137500Y-120125000D03*
X74737500Y-117925000D03*
G04 #@! TD*
D11*
G04 #@! TO.C,SW4*
X119062500Y-53525000D03*
X124062500Y-51325000D03*
D12*
X127362500Y-51325000D03*
X115762500Y-53525000D03*
G04 #@! TD*
D11*
G04 #@! TO.C,SW31*
X199787500Y-101075000D03*
X204787500Y-98875000D03*
D12*
X196487500Y-101075000D03*
X208087500Y-98875000D03*
G04 #@! TD*
D11*
G04 #@! TO.C,SW27*
X123587500Y-101075000D03*
X128587500Y-98875000D03*
D12*
X120287500Y-101075000D03*
X131887500Y-98875000D03*
G04 #@! TD*
D11*
G04 #@! TO.C,SW11*
X109537500Y-60775000D03*
X104537500Y-62975000D03*
D12*
X101237500Y-62975000D03*
X112837500Y-60775000D03*
G04 #@! TD*
D11*
G04 #@! TO.C,SW12*
X123587500Y-62975000D03*
X128587500Y-60775000D03*
D12*
X120287500Y-62975000D03*
X131887500Y-60775000D03*
G04 #@! TD*
D11*
G04 #@! TO.C,SW33*
X90487500Y-117925000D03*
X85487500Y-120125000D03*
D12*
X82187500Y-120125000D03*
X93787500Y-117925000D03*
G04 #@! TD*
D11*
G04 #@! TO.C,SW34*
X109537500Y-117925000D03*
X104537500Y-120125000D03*
D12*
X101237500Y-120125000D03*
X112837500Y-117925000D03*
G04 #@! TD*
D11*
G04 #@! TO.C,SW2*
X81200000Y-51325000D03*
X76200000Y-53525000D03*
D12*
X84500000Y-51325000D03*
X72900000Y-53525000D03*
G04 #@! TD*
D11*
G04 #@! TO.C,SW29*
X166687500Y-98875000D03*
X161687500Y-101075000D03*
D12*
X158387500Y-101075000D03*
X169987500Y-98875000D03*
G04 #@! TD*
D11*
G04 #@! TO.C,SW16*
X204787500Y-60775000D03*
X199787500Y-62975000D03*
D12*
X196487500Y-62975000D03*
X208087500Y-60775000D03*
G04 #@! TD*
D11*
G04 #@! TO.C,SW9*
X71437500Y-60775000D03*
X66437500Y-62975000D03*
D12*
X63137500Y-62975000D03*
X74737500Y-60775000D03*
G04 #@! TD*
D11*
G04 #@! TO.C,SW18*
X95012500Y-82025000D03*
X100012500Y-79825000D03*
D12*
X91712500Y-82025000D03*
X103312500Y-79825000D03*
G04 #@! TD*
D11*
G04 #@! TO.C,SW20*
X138112500Y-79825000D03*
X133112500Y-82025000D03*
D12*
X129812500Y-82025000D03*
X141412500Y-79825000D03*
G04 #@! TD*
D11*
G04 #@! TO.C,SW8*
X195262500Y-53525000D03*
X200262500Y-51325000D03*
D12*
X203562500Y-51325000D03*
X191962500Y-53525000D03*
G04 #@! TD*
D11*
G04 #@! TO.C,SW15*
X180737500Y-62975000D03*
X185737500Y-60775000D03*
D12*
X177437500Y-62975000D03*
X189037500Y-60775000D03*
G04 #@! TD*
D11*
G04 #@! TO.C,SW23*
X190262500Y-82025000D03*
X195262500Y-79825000D03*
D12*
X186962500Y-82025000D03*
X198562500Y-79825000D03*
G04 #@! TD*
D11*
G04 #@! TO.C,SW10*
X90487500Y-60775000D03*
X85487500Y-62975000D03*
D12*
X82187500Y-62975000D03*
X93787500Y-60775000D03*
G04 #@! TD*
D14*
G04 #@! TO.C,SW1*
X218510859Y-64069784D03*
X219639573Y-70471034D03*
G04 #@! TD*
D11*
G04 #@! TO.C,SW17*
X76200000Y-79825000D03*
X71200000Y-82025000D03*
D12*
X67900000Y-82025000D03*
X79500000Y-79825000D03*
G04 #@! TD*
D15*
G04 #@! TO.C,J3*
X228525225Y-112049007D03*
X226023813Y-112490074D03*
X223522401Y-112931140D03*
X221020989Y-113372207D03*
G04 #@! TD*
D11*
G04 #@! TO.C,SW13*
X147637500Y-60775000D03*
X142637500Y-62975000D03*
D12*
X139337500Y-62975000D03*
X150937500Y-60775000D03*
G04 #@! TD*
D11*
G04 #@! TO.C,SW26*
X109537500Y-98875000D03*
X104537500Y-101075000D03*
D12*
X101237500Y-101075000D03*
X112837500Y-98875000D03*
G04 #@! TD*
D11*
G04 #@! TO.C,SW7*
X181212500Y-51325000D03*
X176212500Y-53525000D03*
D12*
X184512500Y-51325000D03*
X172912500Y-53525000D03*
G04 #@! TD*
D11*
G04 #@! TO.C,SW3*
X100012500Y-53525000D03*
X105012500Y-51325000D03*
D12*
X108312500Y-51325000D03*
X96712500Y-53525000D03*
G04 #@! TD*
D11*
G04 #@! TO.C,SW24*
X71437500Y-98875000D03*
X66437500Y-101075000D03*
D12*
X63137500Y-101075000D03*
X74737500Y-98875000D03*
G04 #@! TD*
D11*
G04 #@! TO.C,SW36*
X147400000Y-120125000D03*
X152400000Y-117925000D03*
D12*
X144100000Y-120125000D03*
X155700000Y-117925000D03*
G04 #@! TD*
D11*
G04 #@! TO.C,SW19*
X119062500Y-79825000D03*
X114062500Y-82025000D03*
D12*
X110762500Y-82025000D03*
X122362500Y-79825000D03*
G04 #@! TD*
D11*
G04 #@! TO.C,SW5*
X138112500Y-53525000D03*
X143112500Y-51325000D03*
D12*
X146412500Y-51325000D03*
X134812500Y-53525000D03*
G04 #@! TD*
D11*
G04 #@! TO.C,SW14*
X161687500Y-62975000D03*
X166687500Y-60775000D03*
D12*
X158387500Y-62975000D03*
X169987500Y-60775000D03*
G04 #@! TD*
D11*
G04 #@! TO.C,SW35*
X123587355Y-120124855D03*
X128587355Y-117924855D03*
D12*
X120287355Y-120124855D03*
X131887355Y-117924855D03*
G04 #@! TD*
D11*
G04 #@! TO.C,SW25*
X85487500Y-101075000D03*
X90487500Y-98875000D03*
D12*
X82187500Y-101075000D03*
X93787500Y-98875000D03*
G04 #@! TD*
D11*
G04 #@! TO.C,SW30*
X185737500Y-98875000D03*
X180737500Y-101075000D03*
D12*
X177437500Y-101075000D03*
X189037500Y-98875000D03*
G04 #@! TD*
D11*
G04 #@! TO.C,SW38*
X205779421Y-139031739D03*
X207759320Y-133940570D03*
D16*
X203445969Y-141365191D03*
X210092772Y-131607118D03*
G04 #@! TD*
D17*
G04 #@! TO.C,J2*
X217567592Y-50887332D03*
X210673938Y-52102870D03*
D18*
X207788734Y-54744005D03*
X215430277Y-49131803D03*
X212475854Y-49652747D03*
X208536623Y-50347340D03*
G04 #@! TD*
D19*
G04 #@! TO.C,D37*
X120253125Y-126790625D03*
X120253125Y-123240625D03*
G04 #@! TD*
D20*
G04 #@! TO.C,C6*
X218598700Y-75784340D03*
X218598700Y-74234340D03*
G04 #@! TD*
D19*
G04 #@! TO.C,D8*
X165497046Y-48209454D03*
X165497046Y-44659454D03*
G04 #@! TD*
D21*
G04 #@! TO.C,R2*
X210867774Y-46196215D03*
X212517774Y-46196215D03*
G04 #@! TD*
D20*
G04 #@! TO.C,C7*
X220027450Y-75784340D03*
X220027450Y-74234340D03*
G04 #@! TD*
D22*
G04 #@! TO.C,*
X61912500Y-38100000D03*
G04 #@! TD*
D23*
G04 #@! TO.C,D48*
X74186560Y-109432945D03*
X74186560Y-110832945D03*
X68686560Y-110832945D03*
X68686560Y-109432945D03*
G04 #@! TD*
D22*
G04 #@! TO.C,*
X217884490Y-58935947D03*
G04 #@! TD*
D24*
G04 #@! TO.C,D3*
X228062539Y-104435463D03*
X229613611Y-104161967D03*
G04 #@! TD*
D19*
G04 #@! TO.C,D33*
X196453125Y-107740625D03*
X196453125Y-104190625D03*
G04 #@! TD*
D23*
G04 #@! TO.C,D61*
X102761680Y-90383195D03*
X102761680Y-91783195D03*
X97261680Y-91783195D03*
X97261680Y-90383195D03*
G04 #@! TD*
D25*
G04 #@! TO.C,J1*
X212226200Y-43843822D03*
X211826200Y-43843822D03*
X211426200Y-43843822D03*
X211026200Y-43843822D03*
X210626200Y-43843822D03*
X210226200Y-43843822D03*
X209826200Y-43843822D03*
X209426200Y-43843822D03*
X209026200Y-43843822D03*
X208626200Y-43843822D03*
X208226200Y-43843822D03*
X207826200Y-43843822D03*
X206626200Y-43843822D03*
X207026200Y-43843822D03*
X207426200Y-43843822D03*
D26*
X208026200Y-42918822D03*
X208826200Y-42918822D03*
X209626200Y-42918822D03*
X210426200Y-42918822D03*
X211226200Y-42918822D03*
X212026200Y-42918822D03*
D25*
X212626200Y-43843822D03*
X213026200Y-43843822D03*
X213426200Y-43843822D03*
D27*
X215576200Y-43368822D03*
D28*
X213941200Y-43843822D03*
X206111200Y-43843822D03*
D27*
X204476200Y-43368822D03*
X215576200Y-38318822D03*
X204476200Y-38318822D03*
G04 #@! TD*
D23*
G04 #@! TO.C,D75*
X121811952Y-41567365D03*
X121811952Y-42967365D03*
X116311952Y-42967365D03*
X116311952Y-41567365D03*
G04 #@! TD*
D19*
G04 #@! TO.C,D10*
X186928314Y-48209454D03*
X186928314Y-44659454D03*
G04 #@! TD*
D29*
G04 #@! TO.C,R6*
X223242407Y-90121990D03*
X223242407Y-88471990D03*
G04 #@! TD*
D22*
G04 #@! TO.C,*
X128586800Y-38099965D03*
G04 #@! TD*
D19*
G04 #@! TO.C,D17*
X177403322Y-69640722D03*
X177403322Y-66090722D03*
G04 #@! TD*
D23*
G04 #@! TO.C,D60*
X121811760Y-90383195D03*
X121811760Y-91783195D03*
X116311760Y-91783195D03*
X116311760Y-90383195D03*
G04 #@! TD*
D30*
G04 #@! TO.C,R8*
X224424325Y-103108090D03*
X222774325Y-103108090D03*
G04 #@! TD*
D31*
G04 #@! TO.C,D42*
X182415469Y-136306604D03*
X182053123Y-137658900D03*
X176740531Y-136235396D03*
X177102877Y-134883100D03*
G04 #@! TD*
D19*
G04 #@! TO.C,D26*
X63103218Y-107740754D03*
X63103218Y-104190754D03*
G04 #@! TD*
D32*
G04 #@! TO.C,R10*
X222408700Y-109537465D03*
X222408700Y-111187465D03*
G04 #@! TD*
D19*
G04 #@! TO.C,D14*
X120253274Y-69640722D03*
X120253274Y-66090722D03*
G04 #@! TD*
D23*
G04 #@! TO.C,D70*
X207537120Y-71333115D03*
X207537120Y-72733115D03*
X202037120Y-72733115D03*
X202037120Y-71333115D03*
G04 #@! TD*
D19*
G04 #@! TO.C,D31*
X158353322Y-107740754D03*
X158353322Y-104190754D03*
G04 #@! TD*
G04 #@! TO.C,D21*
X110728266Y-88690738D03*
X110728266Y-85140738D03*
G04 #@! TD*
G04 #@! TO.C,D4*
X84534375Y-48209454D03*
X84534375Y-44659454D03*
G04 #@! TD*
G04 #@! TO.C,D30*
X139303306Y-107740754D03*
X139303306Y-104190754D03*
G04 #@! TD*
D22*
G04 #@! TO.C,*
X61912500Y-57149965D03*
G04 #@! TD*
D23*
G04 #@! TO.C,D72*
X178962000Y-41567365D03*
X178962000Y-42967365D03*
X173462000Y-42967365D03*
X173462000Y-41567365D03*
G04 #@! TD*
D19*
G04 #@! TO.C,D28*
X101203274Y-107740754D03*
X101203274Y-104190754D03*
G04 #@! TD*
D33*
G04 #@! TO.C,D39*
X172180706Y-131493188D03*
X173099514Y-128064152D03*
G04 #@! TD*
D22*
G04 #@! TO.C,*
X128587556Y-93464101D03*
G04 #@! TD*
D19*
G04 #@! TO.C,D25*
X186927670Y-88690990D03*
X186927670Y-85140990D03*
G04 #@! TD*
D32*
G04 #@! TO.C,R11*
X220979950Y-109537465D03*
X220979950Y-111187465D03*
G04 #@! TD*
D23*
G04 #@! TO.C,D71*
X198012080Y-41567263D03*
X198012080Y-42967263D03*
X192512080Y-42967263D03*
X192512080Y-41567263D03*
G04 #@! TD*
G04 #@! TO.C,D46*
X93236768Y-128482961D03*
X93236768Y-129882961D03*
X87736768Y-129882961D03*
X87736768Y-128482961D03*
G04 #@! TD*
G04 #@! TO.C,D56*
X198012080Y-90383195D03*
X198012080Y-91783195D03*
X192512080Y-91783195D03*
X192512080Y-90383195D03*
G04 #@! TD*
G04 #@! TO.C,D76*
X102761680Y-41567365D03*
X102761680Y-42967365D03*
X97261680Y-42967365D03*
X97261680Y-41567365D03*
G04 #@! TD*
D19*
G04 #@! TO.C,D29*
X120253290Y-107740754D03*
X120253290Y-104190754D03*
G04 #@! TD*
G04 #@! TO.C,D15*
X139303290Y-69640722D03*
X139303290Y-66090722D03*
G04 #@! TD*
D34*
G04 #@! TO.C,X1*
X219893034Y-78923682D03*
X220741562Y-79772210D03*
X221590090Y-80620738D03*
G04 #@! TD*
D35*
G04 #@! TO.C,D40*
X207828180Y-145916660D03*
X205317950Y-143406430D03*
G04 #@! TD*
D23*
G04 #@! TO.C,D66*
X131336672Y-71333115D03*
X131336672Y-72733115D03*
X125836672Y-72733115D03*
X125836672Y-71333115D03*
G04 #@! TD*
D22*
G04 #@! TO.C,REF\u002A\u002A*
X100012532Y-58935947D03*
G04 #@! TD*
D23*
G04 #@! TO.C,D77*
X79068143Y-41567365D03*
X79068143Y-42967365D03*
X73568143Y-42967365D03*
X73568143Y-41567365D03*
G04 #@! TD*
D19*
G04 #@! TO.C,D32*
X177403125Y-107740625D03*
X177403125Y-104190625D03*
G04 #@! TD*
D32*
G04 #@! TO.C,R7*
X205383017Y-85376215D03*
X205383017Y-87026215D03*
G04 #@! TD*
D30*
G04 #@! TO.C,R4*
X209184010Y-46196215D03*
X207534010Y-46196215D03*
G04 #@! TD*
D20*
G04 #@! TO.C,C2*
X206930254Y-94239455D03*
X206930254Y-92689455D03*
G04 #@! TD*
D23*
G04 #@! TO.C,D44*
X131336800Y-128482961D03*
X131336800Y-129882961D03*
X125836800Y-129882961D03*
X125836800Y-128482961D03*
G04 #@! TD*
D19*
G04 #@! TO.C,D22*
X129778282Y-88690738D03*
X129778282Y-85140738D03*
G04 #@! TD*
D36*
G04 #@! TO.C,U1*
X215514794Y-92584048D03*
X216080479Y-92018362D03*
X216646164Y-91452677D03*
X217211850Y-90886992D03*
X217777535Y-90321306D03*
X218343221Y-89755621D03*
X218908906Y-89189935D03*
X219474592Y-88624250D03*
X220040277Y-88058564D03*
X220605962Y-87492879D03*
X221171648Y-86927194D03*
D37*
X221171648Y-84523030D03*
X220605962Y-83957345D03*
X220040277Y-83391660D03*
X219474592Y-82825974D03*
X218908906Y-82260289D03*
X218343221Y-81694603D03*
X217777535Y-81128918D03*
X217211850Y-80563232D03*
X216646164Y-79997547D03*
X216080479Y-79431862D03*
X215514794Y-78866176D03*
D36*
X213110630Y-78866176D03*
X212544945Y-79431862D03*
X211979260Y-79997547D03*
X211413574Y-80563232D03*
X210847889Y-81128918D03*
X210282203Y-81694603D03*
X209716518Y-82260289D03*
X209150832Y-82825974D03*
X208585147Y-83391660D03*
X208019462Y-83957345D03*
X207453776Y-84523030D03*
D37*
X207453776Y-86927194D03*
X208019462Y-87492879D03*
X208585147Y-88058564D03*
X209150832Y-88624250D03*
X209716518Y-89189935D03*
X210282203Y-89755621D03*
X210847889Y-90321306D03*
X211413574Y-90886992D03*
X211979260Y-91452677D03*
X212544945Y-92018362D03*
X213110630Y-92584048D03*
G04 #@! TD*
D19*
G04 #@! TO.C,D7*
X146447030Y-48209454D03*
X146447030Y-44659454D03*
G04 #@! TD*
G04 #@! TO.C,D35*
X82153234Y-126790770D03*
X82153234Y-123240770D03*
G04 #@! TD*
G04 #@! TO.C,D23*
X148828298Y-88690738D03*
X148828298Y-85140738D03*
G04 #@! TD*
G04 #@! TO.C,D20*
X91678250Y-88690738D03*
X91678250Y-85140738D03*
G04 #@! TD*
D23*
G04 #@! TO.C,D63*
X74186560Y-71333115D03*
X74186560Y-72733115D03*
X68686560Y-72733115D03*
X68686560Y-71333115D03*
G04 #@! TD*
D22*
G04 #@! TO.C,REF\u002A\u002A*
X80962500Y-114300000D03*
G04 #@! TD*
D23*
G04 #@! TO.C,D65*
X112286656Y-71333115D03*
X112286656Y-72733115D03*
X106786656Y-72733115D03*
X106786656Y-71333115D03*
G04 #@! TD*
D19*
G04 #@! TO.C,D19*
X67865726Y-88690738D03*
X67865726Y-85140738D03*
G04 #@! TD*
D23*
G04 #@! TO.C,D52*
X150386624Y-109432945D03*
X150386624Y-110832945D03*
X144886624Y-110832945D03*
X144886624Y-109432945D03*
G04 #@! TD*
D19*
G04 #@! TO.C,D24*
X167878314Y-88690738D03*
X167878314Y-85140738D03*
G04 #@! TD*
D23*
G04 #@! TO.C,D62*
X78949080Y-90383195D03*
X78949080Y-91783195D03*
X73449080Y-91783195D03*
X73449080Y-90383195D03*
G04 #@! TD*
D30*
G04 #@! TO.C,R3*
X209184010Y-47624965D03*
X207534010Y-47624965D03*
G04 #@! TD*
D19*
G04 #@! TO.C,D16*
X158353306Y-69640722D03*
X158353306Y-66090722D03*
G04 #@! TD*
G04 #@! TO.C,D27*
X82153258Y-107740754D03*
X82153258Y-104190754D03*
G04 #@! TD*
D23*
G04 #@! TO.C,D55*
X207537120Y-109433275D03*
X207537120Y-110833275D03*
X202037120Y-110833275D03*
X202037120Y-109433275D03*
G04 #@! TD*
G04 #@! TO.C,D45*
X112286784Y-128482961D03*
X112286784Y-129882961D03*
X106786784Y-129882961D03*
X106786784Y-128482961D03*
G04 #@! TD*
D30*
G04 #@! TO.C,R5*
X224424325Y-101322151D03*
X222774325Y-101322151D03*
G04 #@! TD*
D23*
G04 #@! TO.C,D74*
X140861968Y-41567365D03*
X140861968Y-42967365D03*
X135361968Y-42967365D03*
X135361968Y-41567365D03*
G04 #@! TD*
D19*
G04 #@! TO.C,D36*
X101203250Y-126790770D03*
X101203250Y-123240770D03*
G04 #@! TD*
D38*
G04 #@! TO.C,D41*
X217349569Y-139546482D03*
X218339518Y-140536431D03*
X214450431Y-144425518D03*
X213460482Y-143435569D03*
G04 #@! TD*
D19*
G04 #@! TO.C,D12*
X82153242Y-69640722D03*
X82153242Y-66090722D03*
G04 #@! TD*
G04 #@! TO.C,D5*
X108346998Y-48209454D03*
X108346998Y-44659454D03*
G04 #@! TD*
G04 #@! TO.C,D38*
X144064990Y-126791150D03*
X144064990Y-123241150D03*
G04 #@! TD*
D20*
G04 #@! TO.C,C4*
X215741200Y-75784340D03*
X215741200Y-74234340D03*
G04 #@! TD*
D23*
G04 #@! TO.C,D51*
X131336608Y-109432945D03*
X131336608Y-110832945D03*
X125836608Y-110832945D03*
X125836608Y-109432945D03*
G04 #@! TD*
G04 #@! TO.C,D43*
X155149400Y-128483355D03*
X155149400Y-129883355D03*
X149649400Y-129883355D03*
X149649400Y-128483355D03*
G04 #@! TD*
G04 #@! TO.C,D50*
X112286592Y-109432945D03*
X112286592Y-110832945D03*
X106786592Y-110832945D03*
X106786592Y-109432945D03*
G04 #@! TD*
G04 #@! TO.C,D47*
X74187600Y-128483355D03*
X74187600Y-129883355D03*
X68687600Y-129883355D03*
X68687600Y-128483355D03*
G04 #@! TD*
D21*
G04 #@! TO.C,R1*
X210867774Y-47624965D03*
X212517774Y-47624965D03*
G04 #@! TD*
D23*
G04 #@! TO.C,D58*
X159911920Y-90383195D03*
X159911920Y-91783195D03*
X154411920Y-91783195D03*
X154411920Y-90383195D03*
G04 #@! TD*
D39*
G04 #@! TO.C,C1*
X205501498Y-92689455D03*
X205501498Y-94239455D03*
G04 #@! TD*
D22*
G04 #@! TO.C,REF\u002A\u002A*
X157161920Y-58935947D03*
G04 #@! TD*
D23*
G04 #@! TO.C,D64*
X93236640Y-71333115D03*
X93236640Y-72733115D03*
X87736640Y-72733115D03*
X87736640Y-71333115D03*
G04 #@! TD*
G04 #@! TO.C,D53*
X169436960Y-109433275D03*
X169436960Y-110833275D03*
X163936960Y-110833275D03*
X163936960Y-109433275D03*
G04 #@! TD*
G04 #@! TO.C,D59*
X140861840Y-90383195D03*
X140861840Y-91783195D03*
X135361840Y-91783195D03*
X135361840Y-90383195D03*
G04 #@! TD*
D19*
G04 #@! TO.C,D13*
X101203258Y-69640722D03*
X101203258Y-66090722D03*
G04 #@! TD*
G04 #@! TO.C,D34*
X63103218Y-126790770D03*
X63103218Y-123240770D03*
G04 #@! TD*
G04 #@! TO.C,D18*
X196453125Y-69640625D03*
X196453125Y-66090625D03*
G04 #@! TD*
D23*
G04 #@! TO.C,D68*
X169436960Y-71333115D03*
X169436960Y-72733115D03*
X163936960Y-72733115D03*
X163936960Y-71333115D03*
G04 #@! TD*
G04 #@! TO.C,D69*
X188487040Y-71333115D03*
X188487040Y-72733115D03*
X182987040Y-72733115D03*
X182987040Y-71333115D03*
G04 #@! TD*
D22*
G04 #@! TO.C,REF\u002A\u002A*
X205978230Y-125015690D03*
G04 #@! TD*
D24*
G04 #@! TO.C,D1*
X227110039Y-101101713D03*
X228661111Y-100828217D03*
G04 #@! TD*
D20*
G04 #@! TO.C,C3*
X214312450Y-75784340D03*
X214312450Y-74234340D03*
G04 #@! TD*
D23*
G04 #@! TO.C,D49*
X93236576Y-109432945D03*
X93236576Y-110832945D03*
X87736576Y-110832945D03*
X87736576Y-109432945D03*
G04 #@! TD*
D19*
G04 #@! TO.C,D11*
X63103222Y-69640722D03*
X63103222Y-66090722D03*
G04 #@! TD*
D20*
G04 #@! TO.C,C5*
X217169950Y-75784340D03*
X217169950Y-74234340D03*
G04 #@! TD*
D23*
G04 #@! TO.C,D57*
X178962000Y-90383195D03*
X178962000Y-91783195D03*
X173462000Y-91783195D03*
X173462000Y-90383195D03*
G04 #@! TD*
G04 #@! TO.C,D73*
X159911984Y-41567365D03*
X159911984Y-42967365D03*
X154411984Y-42967365D03*
X154411984Y-41567365D03*
G04 #@! TD*
D40*
G04 #@! TO.C,J4*
X167268383Y-134540590D03*
D41*
X167925783Y-132087138D03*
X168583184Y-129633687D03*
X169240584Y-127180235D03*
X169897984Y-124726784D03*
X170555385Y-122273332D03*
X171212785Y-119819880D03*
G04 #@! TD*
D24*
G04 #@! TO.C,D2*
X227586289Y-102768588D03*
X229137361Y-102495092D03*
G04 #@! TD*
D21*
G04 #@! TO.C,R9*
X222774325Y-104894029D03*
X224424325Y-104894029D03*
G04 #@! TD*
D19*
G04 #@! TO.C,D6*
X127397014Y-48209454D03*
X127397014Y-44659454D03*
G04 #@! TD*
G04 #@! TO.C,D9*
X184547062Y-48209454D03*
X184547062Y-44659454D03*
G04 #@! TD*
D23*
G04 #@! TO.C,D54*
X188367977Y-109433275D03*
X188367977Y-110833275D03*
X182867977Y-110833275D03*
X182867977Y-109433275D03*
G04 #@! TD*
G04 #@! TO.C,D67*
X150386688Y-71333115D03*
X150386688Y-72733115D03*
X144886688Y-72733115D03*
X144886688Y-71333115D03*
G04 #@! TD*
M02*
