G04 #@! TF.GenerationSoftware,KiCad,Pcbnew,(6.0.8)*
G04 #@! TF.CreationDate,2023-02-19T02:59:28+09:00*
G04 #@! TF.ProjectId,ma8ic_split_69_right,6d613869-635f-4737-906c-69745f36395f,0.1*
G04 #@! TF.SameCoordinates,Original*
G04 #@! TF.FileFunction,Soldermask,Top*
G04 #@! TF.FilePolarity,Negative*
%FSLAX46Y46*%
G04 Gerber Fmt 4.6, Leading zero omitted, Abs format (unit mm)*
G04 Created by KiCad (PCBNEW (6.0.8)) date 2023-02-19 02:59:28*
%MOMM*%
%LPD*%
G01*
G04 APERTURE LIST*
G04 Aperture macros list*
%AMHorizOval*
0 Thick line with rounded ends*
0 $1 width*
0 $2 $3 position (X,Y) of the first rounded end (center of the circle)*
0 $4 $5 position (X,Y) of the second rounded end (center of the circle)*
0 Add line between two ends*
20,1,$1,$2,$3,$4,$5,0*
0 Add two circle primitives to create the rounded ends*
1,1,$1,$2,$3*
1,1,$1,$4,$5*%
%AMRotRect*
0 Rectangle, with rotation*
0 The origin of the aperture is its center*
0 $1 length*
0 $2 width*
0 $3 Rotation angle, in degrees counterclockwise*
0 Add horizontal line*
21,1,$1,$2,0,0,$3*%
G04 Aperture macros list end*
%ADD10C,3.000000*%
%ADD11C,1.200000*%
%ADD12C,2.200000*%
%ADD13C,0.600000*%
%ADD14O,1.200000X2.400000*%
%ADD15RotRect,1.700000X1.700000X15.000000*%
%ADD16HorizOval,1.700000X0.000000X0.000000X0.000000X0.000000X0*%
G04 APERTURE END LIST*
D10*
G04 #@! TO.C,SW6*
X133112500Y-51325000D03*
X138112500Y-53525000D03*
G04 #@! TD*
G04 #@! TO.C,SW37*
X112772968Y-125269788D03*
X118171999Y-126100729D03*
G04 #@! TD*
G04 #@! TO.C,SW28*
X147637500Y-98875000D03*
X152637500Y-101075000D03*
G04 #@! TD*
G04 #@! TO.C,SW22*
X119062500Y-79825000D03*
X124062500Y-82025000D03*
G04 #@! TD*
G04 #@! TO.C,SW21*
X138112500Y-79825000D03*
X143112500Y-82025000D03*
G04 #@! TD*
G04 #@! TO.C,SW32*
X223837500Y-117925000D03*
X228837500Y-120125000D03*
G04 #@! TD*
G04 #@! TO.C,SW4*
X176212500Y-53525000D03*
X171212500Y-51325000D03*
G04 #@! TD*
G04 #@! TO.C,SW31*
X95487500Y-101075000D03*
X90487500Y-98875000D03*
G04 #@! TD*
G04 #@! TO.C,SW27*
X171687500Y-101075000D03*
X166687500Y-98875000D03*
G04 #@! TD*
G04 #@! TO.C,SW11*
X185737500Y-60775000D03*
X190737500Y-62975000D03*
G04 #@! TD*
G04 #@! TO.C,SW12*
X171687500Y-62975000D03*
X166687500Y-60775000D03*
G04 #@! TD*
G04 #@! TO.C,SW33*
X204787500Y-117925000D03*
X209787500Y-120125000D03*
G04 #@! TD*
G04 #@! TO.C,SW34*
X185737500Y-117925000D03*
X190737500Y-120125000D03*
G04 #@! TD*
G04 #@! TO.C,SW2*
X214075000Y-51325000D03*
X219075000Y-53525000D03*
G04 #@! TD*
G04 #@! TO.C,SW29*
X128587500Y-98875000D03*
X133587500Y-101075000D03*
G04 #@! TD*
G04 #@! TO.C,SW16*
X90487500Y-60775000D03*
X95487500Y-62975000D03*
G04 #@! TD*
G04 #@! TO.C,SW9*
X223837500Y-60775000D03*
X228837500Y-62975000D03*
G04 #@! TD*
G04 #@! TO.C,SW18*
X200262500Y-82025000D03*
X195262500Y-79825000D03*
G04 #@! TD*
G04 #@! TO.C,SW20*
X157162500Y-79825000D03*
X162162500Y-82025000D03*
G04 #@! TD*
G04 #@! TO.C,SW8*
X100012500Y-53525000D03*
X95012500Y-51325000D03*
G04 #@! TD*
G04 #@! TO.C,SW15*
X114537500Y-62975000D03*
X109537500Y-60775000D03*
G04 #@! TD*
G04 #@! TO.C,SW23*
X105012500Y-82025000D03*
X100012500Y-79825000D03*
G04 #@! TD*
G04 #@! TO.C,SW10*
X204787500Y-60775000D03*
X209787500Y-62975000D03*
G04 #@! TD*
G04 #@! TO.C,SW17*
X219075000Y-79825000D03*
X224075000Y-82025000D03*
G04 #@! TD*
G04 #@! TO.C,SW13*
X147637500Y-60775000D03*
X152637500Y-62975000D03*
G04 #@! TD*
G04 #@! TO.C,SW26*
X185737500Y-98875000D03*
X190737500Y-101075000D03*
G04 #@! TD*
G04 #@! TO.C,SW7*
X114062500Y-51325000D03*
X119062500Y-53525000D03*
G04 #@! TD*
G04 #@! TO.C,SW3*
X195262500Y-53525000D03*
X190262500Y-51325000D03*
G04 #@! TD*
G04 #@! TO.C,SW24*
X223837500Y-98875000D03*
X228837500Y-101075000D03*
G04 #@! TD*
G04 #@! TO.C,SW36*
X147875000Y-120125000D03*
X142875000Y-117925000D03*
G04 #@! TD*
G04 #@! TO.C,SW19*
X176212500Y-79825000D03*
X181212500Y-82025000D03*
G04 #@! TD*
G04 #@! TO.C,SW5*
X157162500Y-53525000D03*
X152162500Y-51325000D03*
G04 #@! TD*
G04 #@! TO.C,SW14*
X133587500Y-62975000D03*
X128587500Y-60775000D03*
G04 #@! TD*
G04 #@! TO.C,SW35*
X171687645Y-120124855D03*
X166687645Y-117924855D03*
G04 #@! TD*
G04 #@! TO.C,SW25*
X209787500Y-101075000D03*
X204787500Y-98875000D03*
G04 #@! TD*
G04 #@! TO.C,SW30*
X109537500Y-98875000D03*
X114537500Y-101075000D03*
G04 #@! TD*
G04 #@! TO.C,SW38*
X89495579Y-139031739D03*
X87515680Y-133940570D03*
G04 #@! TD*
D11*
G04 #@! TO.C,J2*
X77707408Y-50887332D03*
X84601062Y-52102870D03*
G04 #@! TD*
D12*
G04 #@! TO.C,*
X233362500Y-38100000D03*
G04 #@! TD*
G04 #@! TO.C,*
X77390510Y-58935947D03*
G04 #@! TD*
D13*
G04 #@! TO.C,J1*
X87248800Y-42918822D03*
X86448800Y-42918822D03*
X85648800Y-42918822D03*
X84848800Y-42918822D03*
X84048800Y-42918822D03*
X83248800Y-42918822D03*
D14*
X79698800Y-43368822D03*
X90798800Y-43368822D03*
X79698800Y-38318822D03*
X90798800Y-38318822D03*
G04 #@! TD*
D12*
G04 #@! TO.C,*
X166688200Y-38099965D03*
G04 #@! TD*
G04 #@! TO.C,*
X233362500Y-57149965D03*
G04 #@! TD*
G04 #@! TO.C,*
X166687444Y-93464101D03*
G04 #@! TD*
G04 #@! TO.C,REF\u002A\u002A*
X195262468Y-58935947D03*
G04 #@! TD*
G04 #@! TO.C,REF\u002A\u002A*
X214312500Y-114300000D03*
G04 #@! TD*
G04 #@! TO.C,REF\u002A\u002A*
X138113080Y-58935947D03*
G04 #@! TD*
G04 #@! TO.C,REF\u002A\u002A*
X89296770Y-125015690D03*
G04 #@! TD*
D15*
G04 #@! TO.C,J4*
X128006617Y-134540590D03*
D16*
X127349217Y-132087138D03*
X126691816Y-129633687D03*
X126034416Y-127180235D03*
X125377016Y-124726784D03*
X124719615Y-122273332D03*
X124062215Y-119819880D03*
G04 #@! TD*
M02*
