M48
; DRILL file {KiCad (6.0.8)} date Sun Feb 19 02:59:30 2023
; FORMAT={-:-/ absolute / metric / decimal}
; #@! TF.CreationDate,2023-02-19T02:59:30+09:00
; #@! TF.GenerationSoftware,Kicad,Pcbnew,(6.0.8)
; #@! TF.FileFunction,MixedPlating,1,2
FMAT,2
METRIC
; #@! TA.AperFunction,Plated,PTH,ViaDrill
T1C0.200
; #@! TA.AperFunction,Plated,PTH,ComponentDrill
T2C0.400
; #@! TA.AperFunction,Plated,PTH,ComponentDrill
T3C0.600
; #@! TA.AperFunction,Plated,PTH,ComponentDrill
T4C1.000
; #@! TA.AperFunction,Plated,PTH,ComponentDrill
T5C1.300
; #@! TA.AperFunction,NonPlated,NPTH,ComponentDrill
T6C1.200
; #@! TA.AperFunction,NonPlated,NPTH,ComponentDrill
T7C1.900
; #@! TA.AperFunction,NonPlated,NPTH,ComponentDrill
T8C2.200
; #@! TA.AperFunction,NonPlated,NPTH,ComponentDrill
T9C3.000
; #@! TA.AperFunction,NonPlated,NPTH,ComponentDrill
T10C5.000
%
G90
G05
T1
X67.866Y-95.25
X69.057Y-95.25
X70.247Y-95.25
X70.247Y-107.157
X70.247Y-126.207
X70.247Y-127.397
X70.247Y-128.588
X71.438Y-126.207
X71.438Y-127.397
X71.438Y-128.588
X71.914Y-109.538
X72.033Y-87.63
X72.509Y-102.275
X72.628Y-126.207
X72.628Y-127.397
X72.628Y-128.588
X72.986Y-88.226
X73.462Y-89.535
X73.462Y-101.323
X73.7Y-88.464
X75.01Y-95.25
X75.248Y-109.538
X75.367Y-94.774
X75.605Y-80.844
X75.724Y-94.298
X75.843Y-139.423
X76.081Y-87.273
X76.2Y-101.204
X76.2Y-102.394
X76.2Y-103.585
X76.438Y-77.748
X76.677Y-91.798
X77.867Y-77.034
X78.582Y-55.96
X78.582Y-70.247
X78.582Y-82.153
X78.582Y-126.207
X78.582Y-127.397
X78.582Y-128.588
X78.772Y-95.25
X78.82Y-114.777
X79.058Y-90.012
X79.117Y-94.82
X79.177Y-81.677
X79.248Y-114.349
X79.534Y-90.607
X79.534Y-94.417
X79.676Y-113.348
X79.772Y-126.207
X79.772Y-127.397
X79.772Y-128.588
X80.129Y-80.368
X80.844Y-47.03
X80.963Y-77.629
X80.963Y-101.204
X80.963Y-102.394
X80.963Y-103.585
X80.963Y-126.207
X80.963Y-127.397
X80.963Y-128.588
X81.082Y-44.768
X81.439Y-90.488
X81.677Y-70.247
X82.153Y-113.824
X82.273Y-45.363
X82.511Y-89.535
X83.344Y-54.769
X83.344Y-55.96
X83.344Y-57.15
X83.582Y-89.416
X84.178Y-69.652
X84.535Y-94.06
X85.249Y-45.958
X85.249Y-46.911
X85.249Y-47.863
X85.249Y-83.82
X85.487Y-45.006
X85.725Y-71.438
X85.725Y-76.2
X85.725Y-77.391
X85.725Y-109.419
X85.728Y-112.75
X87.154Y-63.103
X87.202Y-90.726
X87.202Y-107.752
X87.63Y-90.012
X88.107Y-96.441
X88.226Y-45.363
X88.535Y-80.253
X88.583Y-46.554
X88.583Y-74.295
X88.922Y-80.718
X89.059Y-47.625
X89.059Y-74.772
X89.178Y-44.887
X89.297Y-81.201
X89.357Y-88.285
X89.416Y-75.248
X89.893Y-55.96
X90.607Y-91.321
X90.618Y-88.691
X91.502Y-95.834
X91.537Y-89.416
X91.679Y-54.769
X91.965Y-82.987
X92.003Y-95.403
X92.393Y-82.153
X92.393Y-95.012
X92.869Y-76.2
X92.869Y-90.369
X94.06Y-58.341
X94.06Y-80.963
X94.06Y-82.153
X94.06Y-83.344
X94.06Y-91.679
X94.06Y-92.869
X94.06Y-94.06
X94.06Y-97.632
X95.186Y-145.917
X95.25Y-58.341
X95.25Y-97.632
X95.489Y-39.767
X95.489Y-41.553
X96.441Y-58.341
X96.441Y-82.153
X96.441Y-97.632
X97.632Y-94.06
X97.632Y-119.063
X97.632Y-120.254
X97.632Y-121.444
X98.822Y-36.91
X98.822Y-72.628
X98.822Y-94.06
X98.822Y-110.729
X98.822Y-135.613
X98.822Y-136.803
X98.822Y-137.994
X100.013Y-36.91
X100.013Y-94.06
X100.013Y-98.822
X100.013Y-135.613
X100.013Y-136.803
X100.013Y-137.994
X101.084Y-135.613
X101.084Y-136.803
X101.084Y-137.994
X101.204Y-36.91
X101.204Y-60.722
X101.204Y-111.919
X102.394Y-73.819
X102.394Y-98.822
X102.394Y-129.779
X103.585Y-76.915
X104.775Y-42.863
X104.775Y-71.319
X104.775Y-76.2
X104.775Y-109.538
X104.778Y-112.75
X105.371Y-50.006
X105.371Y-55.96
X105.966Y-41.553
X105.966Y-53.578
X105.966Y-90.488
X106.204Y-67.271
X107.157Y-118.944
X107.157Y-120.135
X107.157Y-121.325
X108.347Y-42.863
X108.347Y-90.488
X109.657Y-122.635
X110.729Y-42.863
X110.729Y-49.649
X110.729Y-80.963
X110.729Y-82.153
X110.729Y-83.344
X110.729Y-94.06
X111.086Y-136.684
X111.919Y-76.2
X111.919Y-90.369
X111.919Y-94.06
X113.11Y-58.341
X113.11Y-94.06
X113.11Y-97.632
X114.3Y-39.767
X114.3Y-41.553
X114.3Y-58.341
X114.3Y-97.632
X115.491Y-58.341
X115.491Y-97.632
X115.729Y-82.153
X115.848Y-77.391
X117.872Y-72.628
X117.872Y-74.295
X117.872Y-110.729
X117.872Y-116.682
X119.063Y-116.682
X120.254Y-60.722
X120.254Y-116.682
X122.635Y-98.822
X123.823Y-112.75
X123.826Y-42.863
X123.826Y-71.319
X123.826Y-76.2
X123.826Y-109.538
X124.064Y-113.348
X125.016Y-53.578
X125.016Y-90.488
X125.016Y-136.208
X125.254Y-58.341
X125.254Y-63.103
X125.254Y-113.824
X125.373Y-101.204
X127.397Y-50.006
X127.397Y-51.197
X127.397Y-52.388
X129.779Y-42.863
X129.779Y-49.649
X129.779Y-80.963
X129.779Y-82.153
X129.779Y-83.344
X129.779Y-94.06
X130.969Y-76.2
X130.969Y-90.369
X130.969Y-94.06
X130.972Y-112.75
X131.565Y-114.3
X131.993Y-114.777
X132.16Y-58.341
X132.16Y-94.06
X132.16Y-97.632
X133.351Y-39.767
X133.351Y-41.553
X133.351Y-58.341
X133.351Y-97.632
X134.541Y-58.341
X134.541Y-97.632
X134.779Y-82.153
X134.898Y-74.772
X134.898Y-77.391
X135.732Y-128.469
X135.734Y-112.75
X136.922Y-72.747
X136.922Y-110.729
X139.304Y-61.913
X139.304Y-63.103
X139.304Y-64.294
X139.661Y-115.491
X142.873Y-112.75
X142.876Y-42.863
X142.876Y-71.438
X142.876Y-76.2
X142.876Y-109.538
X144.066Y-90.488
X144.304Y-53.578
X144.304Y-58.341
X144.304Y-63.103
X144.304Y-96.56
X144.304Y-101.204
X146.447Y-36.91
X146.447Y-50.006
X146.447Y-51.197
X146.447Y-52.388
X147.638Y-36.91
X147.638Y-115.491
X148.829Y-36.91
X148.829Y-42.863
X148.829Y-49.649
X148.829Y-80.963
X148.829Y-82.153
X148.829Y-83.344
X148.829Y-94.06
X148.829Y-115.491
X148.829Y-128.469
X148.829Y-131.565
X150.019Y-76.2
X150.019Y-90.369
X150.019Y-94.06
X150.019Y-115.491
X151.21Y-58.341
X151.21Y-94.06
X151.21Y-97.632
X152.401Y-39.767
X152.401Y-41.553
X152.401Y-58.341
X152.401Y-97.632
X153.591Y-58.341
X153.591Y-97.632
X153.591Y-119.063
X153.591Y-120.254
X153.591Y-121.444
X153.591Y-128.588
X153.829Y-82.153
X153.948Y-75.248
X153.948Y-77.391
X155.973Y-72.747
X155.973Y-110.729
X158.354Y-61.913
X158.354Y-63.103
X158.354Y-64.294
X159.544Y-128.469
X159.547Y-112.75
X160.735Y-98.822
X161.923Y-112.75
X161.926Y-42.863
X161.926Y-71.438
X161.926Y-76.2
X161.926Y-109.538
X163.116Y-90.488
X163.354Y-53.578
X163.354Y-58.341
X163.354Y-63.103
X163.354Y-101.204
X163.354Y-115.491
X165.498Y-50.006
X165.498Y-51.197
X165.498Y-52.388
X167.879Y-42.863
X167.879Y-49.649
X167.879Y-80.963
X167.879Y-82.153
X167.879Y-83.344
X169.069Y-76.2
X169.069Y-90.369
X169.069Y-94.06
X170.26Y-58.341
X170.26Y-94.06
X170.26Y-97.632
X171.451Y-39.767
X171.451Y-41.553
X171.451Y-58.341
X171.451Y-94.06
X171.451Y-97.632
X171.451Y-115.491
X172.641Y-58.341
X172.641Y-97.632
X172.641Y-115.491
X172.641Y-128.588
X172.879Y-82.153
X172.999Y-77.391
X173.832Y-115.491
X175.023Y-72.628
X175.023Y-110.729
X175.975Y-95.012
X177.404Y-61.913
X177.404Y-63.103
X177.404Y-64.294
X177.404Y-119.182
X177.404Y-120.373
X177.404Y-121.563
X178.592Y-112.75
X178.594Y-128.469
X179.785Y-98.822
X180.973Y-112.75
X180.976Y-42.863
X180.976Y-71.438
X180.976Y-76.2
X180.976Y-109.538
X182.166Y-90.488
X182.405Y-53.578
X182.405Y-58.341
X182.405Y-63.103
X182.405Y-101.204
X182.405Y-115.491
X184.548Y-36.91
X184.548Y-50.006
X184.548Y-51.197
X184.548Y-52.388
X185.738Y-36.91
X186.929Y-36.91
X186.929Y-42.863
X186.929Y-49.649
X186.929Y-80.963
X186.929Y-82.153
X186.929Y-83.344
X186.929Y-94.06
X188.12Y-94.06
X188.239Y-76.2
X188.239Y-90.369
X189.31Y-58.341
X189.31Y-94.06
X189.31Y-97.632
X190.501Y-39.767
X190.501Y-41.553
X190.501Y-58.341
X190.501Y-97.632
X190.501Y-115.491
X191.691Y-58.341
X191.691Y-97.632
X191.691Y-115.491
X191.691Y-128.588
X191.93Y-82.153
X192.049Y-77.391
X192.882Y-115.491
X194.073Y-72.628
X194.073Y-110.729
X195.621Y-95.489
X196.454Y-61.913
X196.454Y-63.103
X196.454Y-64.294
X196.454Y-119.063
X196.454Y-120.254
X196.454Y-121.444
X197.642Y-112.75
X197.645Y-128.469
X198.954Y-98.822
X200.026Y-42.863
X200.026Y-71.438
X200.026Y-76.2
X200.026Y-109.538
X200.029Y-112.75
X201.216Y-90.488
X201.455Y-53.578
X201.455Y-58.341
X201.455Y-63.103
X201.455Y-101.204
X201.455Y-115.491
X203.598Y-50.006
X203.598Y-51.197
X203.598Y-52.388
X207.17Y-94.06
X208.36Y-58.341
X208.36Y-94.06
X208.36Y-97.632
X208.479Y-80.963
X208.479Y-82.153
X208.479Y-83.344
X209.551Y-58.341
X209.551Y-94.06
X209.551Y-97.632
X209.551Y-115.491
X210.742Y-42.863
X210.742Y-49.649
X210.742Y-58.341
X210.742Y-97.632
X210.742Y-115.491
X210.742Y-128.588
X211.932Y-76.2
X211.932Y-90.369
X211.932Y-115.491
X213.123Y-72.628
X213.123Y-110.729
X214.313Y-39.767
X214.313Y-41.553
X215.504Y-119.063
X215.504Y-120.254
X215.504Y-121.444
X215.742Y-60.722
X215.742Y-77.986
X215.742Y-82.153
X215.742Y-95.965
X216.695Y-128.469
X216.697Y-112.75
X217.885Y-98.822
X219.076Y-71.438
X219.076Y-76.2
X219.076Y-109.538
X219.076Y-112.753
X220.505Y-59.055
X220.505Y-101.204
X220.505Y-115.491
X222.41Y-55.245
X225.029Y-90.488
X226.22Y-36.91
X227.41Y-36.91
X227.41Y-58.341
X227.41Y-97.632
X228.601Y-36.91
X228.601Y-50.006
X228.601Y-51.197
X228.601Y-52.388
X228.601Y-58.341
X228.601Y-97.632
X228.601Y-115.491
X229.196Y-111.086
X229.792Y-58.341
X229.792Y-71.438
X229.792Y-89.297
X229.792Y-97.632
X229.792Y-109.538
X229.792Y-115.491
X229.792Y-128.588
X230.982Y-115.491
X232.173Y-72.628
X232.173Y-80.963
X232.173Y-82.153
X232.173Y-83.344
X232.173Y-109.538
X234.554Y-128.588
T2
X83.249Y-42.919
X84.049Y-42.919
X84.849Y-42.919
X85.649Y-42.919
X86.449Y-42.919
X87.249Y-42.919
T4
X66.75Y-112.049
X69.251Y-112.49
X71.753Y-112.931
X74.254Y-113.372
X124.062Y-119.82
X124.72Y-122.273
X125.377Y-124.727
X126.034Y-127.18
X126.692Y-129.634
X127.349Y-132.087
X128.007Y-134.541
T5
X75.635Y-70.471
X76.764Y-64.07
T6
X77.707Y-50.887
X84.601Y-52.103
T7
X79.455Y-134.223
X84.987Y-66.675
X84.987Y-104.775
X87.233Y-142.002
X94.512Y-47.625
X94.512Y-85.725
X95.987Y-66.675
X95.987Y-104.775
X104.037Y-66.675
X104.037Y-104.775
X105.512Y-47.625
X105.512Y-85.725
X108.987Y-132.392
X113.562Y-47.625
X113.562Y-85.725
X115.037Y-66.675
X115.037Y-104.775
X119.613Y-129.545
X123.087Y-66.675
X123.087Y-104.775
X124.562Y-47.625
X124.562Y-85.725
X132.612Y-47.625
X132.612Y-85.725
X134.088Y-66.675
X134.088Y-104.775
X137.375Y-123.825
X142.137Y-66.675
X142.137Y-104.775
X143.612Y-47.625
X143.612Y-85.725
X148.375Y-123.825
X151.662Y-47.625
X151.662Y-85.725
X153.137Y-66.675
X153.137Y-104.775
X161.188Y-66.675
X161.188Y-104.775
X161.188Y-123.825
X162.662Y-47.625
X162.662Y-85.725
X170.713Y-47.625
X170.713Y-85.725
X172.188Y-66.675
X172.188Y-104.775
X172.188Y-123.825
X180.237Y-66.675
X180.237Y-104.775
X180.237Y-123.825
X181.713Y-47.625
X181.713Y-85.725
X189.762Y-47.625
X189.762Y-85.725
X191.237Y-66.675
X191.237Y-104.775
X191.237Y-123.825
X199.287Y-66.675
X199.287Y-104.775
X199.287Y-123.825
X200.762Y-47.625
X200.762Y-85.725
X210.287Y-66.675
X210.287Y-104.775
X210.287Y-123.825
X213.575Y-47.625
X213.575Y-85.725
X218.337Y-66.675
X218.337Y-104.775
X218.337Y-123.825
X224.575Y-47.625
X224.575Y-85.725
X229.337Y-66.675
X229.337Y-104.775
X229.337Y-123.825
T8
X77.391Y-58.936
X89.297Y-125.016
X138.113Y-58.936
X166.687Y-93.464
X166.688Y-38.1
X195.262Y-58.936
X214.312Y-114.3
X233.362Y-38.1
X233.362Y-57.15
T9
X87.516Y-133.941
X89.496Y-139.032
X90.487Y-60.775
X90.487Y-98.875
X95.012Y-51.325
X95.487Y-62.975
X95.487Y-101.075
X100.012Y-53.525
X100.012Y-79.825
X105.012Y-82.025
X109.537Y-60.775
X109.537Y-98.875
X112.773Y-125.27
X114.062Y-51.325
X114.537Y-62.975
X114.537Y-101.075
X118.172Y-126.101
X119.062Y-53.525
X119.062Y-79.825
X124.062Y-82.025
X128.588Y-60.775
X128.588Y-98.875
X133.112Y-51.325
X133.588Y-62.975
X133.588Y-101.075
X138.112Y-53.525
X138.112Y-79.825
X142.875Y-117.925
X143.112Y-82.025
X147.637Y-60.775
X147.637Y-98.875
X147.875Y-120.125
X152.162Y-51.325
X152.637Y-62.975
X152.637Y-101.075
X157.162Y-53.525
X157.162Y-79.825
X162.162Y-82.025
X166.688Y-60.775
X166.688Y-98.875
X166.688Y-117.925
X171.213Y-51.325
X171.688Y-62.975
X171.688Y-101.075
X171.688Y-120.125
X176.213Y-53.525
X176.213Y-79.825
X181.213Y-82.025
X185.737Y-60.775
X185.737Y-98.875
X185.737Y-117.925
X190.262Y-51.325
X190.737Y-62.975
X190.737Y-101.075
X190.737Y-120.125
X195.262Y-53.525
X195.262Y-79.825
X200.262Y-82.025
X204.787Y-60.775
X204.787Y-98.875
X204.787Y-117.925
X209.787Y-62.975
X209.787Y-101.075
X209.787Y-120.125
X214.075Y-51.325
X219.075Y-53.525
X219.075Y-79.825
X223.837Y-60.775
X223.837Y-98.875
X223.837Y-117.925
X224.075Y-82.025
X228.837Y-62.975
X228.837Y-101.075
X228.837Y-120.125
T10
X83.344Y-138.112
X90.487Y-66.675
X90.487Y-104.775
X100.012Y-47.625
X100.012Y-85.725
X109.537Y-66.675
X109.537Y-104.775
X114.3Y-130.969
X119.062Y-47.625
X119.062Y-85.725
X128.588Y-66.675
X128.588Y-104.775
X138.112Y-47.625
X138.112Y-85.725
X142.875Y-123.825
X147.637Y-66.675
X147.637Y-104.775
X157.162Y-47.625
X157.162Y-85.725
X166.688Y-66.675
X166.688Y-104.775
X166.688Y-123.825
X176.213Y-47.625
X176.213Y-85.725
X185.737Y-66.675
X185.737Y-104.775
X185.737Y-123.825
X195.262Y-47.625
X195.262Y-85.725
X204.787Y-66.675
X204.787Y-104.775
X204.787Y-123.825
X219.075Y-47.625
X219.075Y-85.725
X223.837Y-66.675
X223.837Y-104.775
X223.837Y-123.825
T3
G00X79.699Y-37.769
M15
G01X79.699Y-38.869
M16
G05
G00X79.699Y-42.819
M15
G01X79.699Y-43.919
M16
G05
G00X90.799Y-37.769
M15
G01X90.799Y-38.869
M16
G05
G00X90.799Y-42.819
M15
G01X90.799Y-43.919
M16
G05
T4
G00X79.599Y-49.088
M15
G01X80.091Y-49.175
M16
G05
G00X82.553Y-49.609
M15
G01X83.045Y-49.696
M16
G05
G00X86.492Y-50.304
M15
G01X86.985Y-50.391
M16
G05
G00X87.24Y-54.701
M15
G01X87.732Y-54.787
M16
G05
T0
M30
