G04 #@! TF.GenerationSoftware,KiCad,Pcbnew,(6.0.8)*
G04 #@! TF.CreationDate,2023-02-19T02:59:28+09:00*
G04 #@! TF.ProjectId,ma8ic_split_69_right,6d613869-635f-4737-906c-69745f36395f,0.1*
G04 #@! TF.SameCoordinates,Original*
G04 #@! TF.FileFunction,Soldermask,Bot*
G04 #@! TF.FilePolarity,Negative*
%FSLAX46Y46*%
G04 Gerber Fmt 4.6, Leading zero omitted, Abs format (unit mm)*
G04 Created by KiCad (PCBNEW (6.0.8)) date 2023-02-19 02:59:28*
%MOMM*%
%LPD*%
G01*
G04 APERTURE LIST*
G04 Aperture macros list*
%AMRoundRect*
0 Rectangle with rounded corners*
0 $1 Rounding radius*
0 $2 $3 $4 $5 $6 $7 $8 $9 X,Y pos of 4 corners*
0 Add a 4 corners polygon primitive as box body*
4,1,4,$2,$3,$4,$5,$6,$7,$8,$9,$2,$3,0*
0 Add four circle primitives for the rounded corners*
1,1,$1+$1,$2,$3*
1,1,$1+$1,$4,$5*
1,1,$1+$1,$6,$7*
1,1,$1+$1,$8,$9*
0 Add four rect primitives between the rounded corners*
20,1,$1+$1,$2,$3,$4,$5,0*
20,1,$1+$1,$4,$5,$6,$7,0*
20,1,$1+$1,$6,$7,$8,$9,0*
20,1,$1+$1,$8,$9,$2,$3,0*%
%AMHorizOval*
0 Thick line with rounded ends*
0 $1 width*
0 $2 $3 position (X,Y) of the first rounded end (center of the circle)*
0 $4 $5 position (X,Y) of the second rounded end (center of the circle)*
0 Add line between two ends*
20,1,$1,$2,$3,$4,$5,0*
0 Add two circle primitives to create the rounded ends*
1,1,$1,$2,$3*
1,1,$1,$4,$5*%
%AMRotRect*
0 Rectangle, with rotation*
0 The origin of the aperture is its center*
0 $1 length*
0 $2 width*
0 $3 Rotation angle, in degrees counterclockwise*
0 Add horizontal line*
21,1,$1,$2,0,0,$3*%
G04 Aperture macros list end*
%ADD10C,0.010000*%
%ADD11C,3.000000*%
%ADD12R,2.600000X2.600000*%
%ADD13RotRect,2.600000X2.600000X15.000000*%
%ADD14C,2.000000*%
%ADD15C,1.700000*%
%ADD16RotRect,2.600000X2.600000X315.000000*%
%ADD17C,1.200000*%
%ADD18HorizOval,1.700000X-0.393923X0.069459X0.393923X-0.069459X0*%
%ADD19R,1.000000X1.400000*%
%ADD20RoundRect,0.225000X0.250000X-0.225000X0.250000X0.225000X-0.250000X0.225000X-0.250000X-0.225000X0*%
%ADD21RoundRect,0.200000X0.200000X0.275000X-0.200000X0.275000X-0.200000X-0.275000X0.200000X-0.275000X0*%
%ADD22C,2.200000*%
%ADD23R,1.700000X1.000000*%
%ADD24RoundRect,0.218750X0.259924X0.214371X-0.170929X0.290343X-0.259924X-0.214371X0.170929X-0.290343X0*%
%ADD25R,0.230000X0.850000*%
%ADD26C,0.600000*%
%ADD27O,1.200000X2.400000*%
%ADD28R,0.460000X0.850000*%
%ADD29RoundRect,0.200000X0.275000X-0.200000X0.275000X0.200000X-0.275000X0.200000X-0.275000X-0.200000X0*%
%ADD30RoundRect,0.200000X-0.200000X-0.275000X0.200000X-0.275000X0.200000X0.275000X-0.200000X0.275000X0*%
%ADD31RotRect,1.700000X1.000000X15.000000*%
%ADD32RoundRect,0.200000X-0.275000X0.200000X-0.275000X-0.200000X0.275000X-0.200000X0.275000X0.200000X0*%
%ADD33RotRect,1.400000X1.000000X105.000000*%
%ADD34RotRect,0.400000X1.900000X225.000000*%
%ADD35RotRect,1.400000X1.000000X45.000000*%
%ADD36RotRect,1.500000X0.550000X45.000000*%
%ADD37RotRect,1.500000X0.550000X315.000000*%
%ADD38RotRect,1.700000X1.000000X315.000000*%
%ADD39RoundRect,0.225000X-0.250000X0.225000X-0.250000X-0.225000X0.250000X-0.225000X0.250000X0.225000X0*%
%ADD40RotRect,1.700000X1.700000X15.000000*%
%ADD41HorizOval,1.700000X0.000000X0.000000X0.000000X0.000000X0*%
G04 APERTURE END LIST*
G04 #@! TO.C,J1*
G36*
X80498800Y-39618822D02*
G01*
X79641610Y-39618822D01*
X79641610Y-37017152D01*
X80498800Y-37017152D01*
X80498800Y-39618822D01*
G37*
D10*
X80498800Y-39618822D02*
X79641610Y-39618822D01*
X79641610Y-37017152D01*
X80498800Y-37017152D01*
X80498800Y-39618822D01*
G36*
X90798800Y-39618822D02*
G01*
X89998910Y-39618822D01*
X89998910Y-37018792D01*
X90798800Y-37018792D01*
X90798800Y-39618822D01*
G37*
X90798800Y-39618822D02*
X89998910Y-39618822D01*
X89998910Y-37018792D01*
X90798800Y-37018792D01*
X90798800Y-39618822D01*
G04 #@! TD*
D11*
G04 #@! TO.C,SW6*
X133112500Y-51325000D03*
X138112500Y-53525000D03*
D12*
X129812500Y-51325000D03*
X141412500Y-53525000D03*
G04 #@! TD*
D11*
G04 #@! TO.C,SW37*
X112772968Y-125269788D03*
X118171999Y-126100729D03*
D13*
X121359554Y-125246626D03*
X109585412Y-126123890D03*
G04 #@! TD*
D11*
G04 #@! TO.C,SW28*
X147637500Y-98875000D03*
X152637500Y-101075000D03*
D12*
X155937500Y-101075000D03*
X144337500Y-98875000D03*
G04 #@! TD*
D11*
G04 #@! TO.C,SW22*
X119062500Y-79825000D03*
X124062500Y-82025000D03*
D12*
X127362500Y-82025000D03*
X115762500Y-79825000D03*
G04 #@! TD*
D11*
G04 #@! TO.C,SW21*
X138112500Y-79825000D03*
X143112500Y-82025000D03*
D12*
X146412500Y-82025000D03*
X134812500Y-79825000D03*
G04 #@! TD*
D11*
G04 #@! TO.C,SW32*
X223837500Y-117925000D03*
X228837500Y-120125000D03*
D12*
X232137500Y-120125000D03*
X220537500Y-117925000D03*
G04 #@! TD*
D11*
G04 #@! TO.C,SW4*
X176212500Y-53525000D03*
X171212500Y-51325000D03*
D12*
X167912500Y-51325000D03*
X179512500Y-53525000D03*
G04 #@! TD*
D11*
G04 #@! TO.C,SW31*
X95487500Y-101075000D03*
X90487500Y-98875000D03*
D12*
X98787500Y-101075000D03*
X87187500Y-98875000D03*
G04 #@! TD*
D11*
G04 #@! TO.C,SW27*
X171687500Y-101075000D03*
X166687500Y-98875000D03*
D12*
X174987500Y-101075000D03*
X163387500Y-98875000D03*
G04 #@! TD*
D11*
G04 #@! TO.C,SW11*
X185737500Y-60775000D03*
X190737500Y-62975000D03*
D12*
X194037500Y-62975000D03*
X182437500Y-60775000D03*
G04 #@! TD*
D11*
G04 #@! TO.C,SW12*
X171687500Y-62975000D03*
X166687500Y-60775000D03*
D12*
X174987500Y-62975000D03*
X163387500Y-60775000D03*
G04 #@! TD*
D11*
G04 #@! TO.C,SW33*
X204787500Y-117925000D03*
X209787500Y-120125000D03*
D12*
X213087500Y-120125000D03*
X201487500Y-117925000D03*
G04 #@! TD*
D11*
G04 #@! TO.C,SW34*
X185737500Y-117925000D03*
X190737500Y-120125000D03*
D12*
X194037500Y-120125000D03*
X182437500Y-117925000D03*
G04 #@! TD*
D11*
G04 #@! TO.C,SW2*
X214075000Y-51325000D03*
X219075000Y-53525000D03*
D12*
X210775000Y-51325000D03*
X222375000Y-53525000D03*
G04 #@! TD*
D11*
G04 #@! TO.C,SW29*
X128587500Y-98875000D03*
X133587500Y-101075000D03*
D12*
X136887500Y-101075000D03*
X125287500Y-98875000D03*
G04 #@! TD*
D11*
G04 #@! TO.C,SW16*
X90487500Y-60775000D03*
X95487500Y-62975000D03*
D12*
X98787500Y-62975000D03*
X87187500Y-60775000D03*
G04 #@! TD*
D11*
G04 #@! TO.C,SW9*
X223837500Y-60775000D03*
X228837500Y-62975000D03*
D12*
X232137500Y-62975000D03*
X220537500Y-60775000D03*
G04 #@! TD*
D11*
G04 #@! TO.C,SW18*
X200262500Y-82025000D03*
X195262500Y-79825000D03*
D12*
X203562500Y-82025000D03*
X191962500Y-79825000D03*
G04 #@! TD*
D11*
G04 #@! TO.C,SW20*
X157162500Y-79825000D03*
X162162500Y-82025000D03*
D12*
X165462500Y-82025000D03*
X153862500Y-79825000D03*
G04 #@! TD*
D11*
G04 #@! TO.C,SW8*
X100012500Y-53525000D03*
X95012500Y-51325000D03*
D12*
X91712500Y-51325000D03*
X103312500Y-53525000D03*
G04 #@! TD*
D11*
G04 #@! TO.C,SW15*
X114537500Y-62975000D03*
X109537500Y-60775000D03*
D12*
X117837500Y-62975000D03*
X106237500Y-60775000D03*
G04 #@! TD*
D11*
G04 #@! TO.C,SW23*
X105012500Y-82025000D03*
X100012500Y-79825000D03*
D12*
X108312500Y-82025000D03*
X96712500Y-79825000D03*
G04 #@! TD*
D11*
G04 #@! TO.C,SW10*
X204787500Y-60775000D03*
X209787500Y-62975000D03*
D12*
X213087500Y-62975000D03*
X201487500Y-60775000D03*
G04 #@! TD*
D14*
G04 #@! TO.C,SW1*
X76764141Y-64069784D03*
X75635427Y-70471034D03*
G04 #@! TD*
D11*
G04 #@! TO.C,SW17*
X219075000Y-79825000D03*
X224075000Y-82025000D03*
D12*
X227375000Y-82025000D03*
X215775000Y-79825000D03*
G04 #@! TD*
D15*
G04 #@! TO.C,J3*
X66749775Y-112049007D03*
X69251187Y-112490074D03*
X71752599Y-112931140D03*
X74254011Y-113372207D03*
G04 #@! TD*
D11*
G04 #@! TO.C,SW13*
X147637500Y-60775000D03*
X152637500Y-62975000D03*
D12*
X155937500Y-62975000D03*
X144337500Y-60775000D03*
G04 #@! TD*
D11*
G04 #@! TO.C,SW26*
X185737500Y-98875000D03*
X190737500Y-101075000D03*
D12*
X194037500Y-101075000D03*
X182437500Y-98875000D03*
G04 #@! TD*
D11*
G04 #@! TO.C,SW7*
X114062500Y-51325000D03*
X119062500Y-53525000D03*
D12*
X110762500Y-51325000D03*
X122362500Y-53525000D03*
G04 #@! TD*
D11*
G04 #@! TO.C,SW3*
X195262500Y-53525000D03*
X190262500Y-51325000D03*
D12*
X186962500Y-51325000D03*
X198562500Y-53525000D03*
G04 #@! TD*
D11*
G04 #@! TO.C,SW24*
X223837500Y-98875000D03*
X228837500Y-101075000D03*
D12*
X232137500Y-101075000D03*
X220537500Y-98875000D03*
G04 #@! TD*
D11*
G04 #@! TO.C,SW36*
X147875000Y-120125000D03*
X142875000Y-117925000D03*
D12*
X151175000Y-120125000D03*
X139575000Y-117925000D03*
G04 #@! TD*
D11*
G04 #@! TO.C,SW19*
X176212500Y-79825000D03*
X181212500Y-82025000D03*
D12*
X184512500Y-82025000D03*
X172912500Y-79825000D03*
G04 #@! TD*
D11*
G04 #@! TO.C,SW5*
X157162500Y-53525000D03*
X152162500Y-51325000D03*
D12*
X148862500Y-51325000D03*
X160462500Y-53525000D03*
G04 #@! TD*
D11*
G04 #@! TO.C,SW14*
X133587500Y-62975000D03*
X128587500Y-60775000D03*
D12*
X136887500Y-62975000D03*
X125287500Y-60775000D03*
G04 #@! TD*
D11*
G04 #@! TO.C,SW35*
X171687645Y-120124855D03*
X166687645Y-117924855D03*
D12*
X174987645Y-120124855D03*
X163387645Y-117924855D03*
G04 #@! TD*
D11*
G04 #@! TO.C,SW25*
X209787500Y-101075000D03*
X204787500Y-98875000D03*
D12*
X213087500Y-101075000D03*
X201487500Y-98875000D03*
G04 #@! TD*
D11*
G04 #@! TO.C,SW30*
X109537500Y-98875000D03*
X114537500Y-101075000D03*
D12*
X117837500Y-101075000D03*
X106237500Y-98875000D03*
G04 #@! TD*
D11*
G04 #@! TO.C,SW38*
X89495579Y-139031739D03*
X87515680Y-133940570D03*
D16*
X91829031Y-141365191D03*
X85182228Y-131607118D03*
G04 #@! TD*
D17*
G04 #@! TO.C,J2*
X77707408Y-50887332D03*
X84601062Y-52102870D03*
D18*
X87486266Y-54744005D03*
X79844723Y-49131803D03*
X82799146Y-49652747D03*
X86738377Y-50347340D03*
G04 #@! TD*
D19*
G04 #@! TO.C,D37*
X175021875Y-126790625D03*
X175021875Y-123240625D03*
G04 #@! TD*
D20*
G04 #@! TO.C,C6*
X76676300Y-75784340D03*
X76676300Y-74234340D03*
G04 #@! TD*
D19*
G04 #@! TO.C,D8*
X129777954Y-48209454D03*
X129777954Y-44659454D03*
G04 #@! TD*
D21*
G04 #@! TO.C,R2*
X84407226Y-46196215D03*
X82757226Y-46196215D03*
G04 #@! TD*
D20*
G04 #@! TO.C,C7*
X75247550Y-75784340D03*
X75247550Y-74234340D03*
G04 #@! TD*
D22*
G04 #@! TO.C,*
X233362500Y-38100000D03*
G04 #@! TD*
D23*
G04 #@! TO.C,D48*
X221088440Y-109432945D03*
X221088440Y-110832945D03*
X226588440Y-110832945D03*
X226588440Y-109432945D03*
G04 #@! TD*
D22*
G04 #@! TO.C,*
X77390510Y-58935947D03*
G04 #@! TD*
D24*
G04 #@! TO.C,D3*
X65661389Y-104161967D03*
X67212461Y-104435463D03*
G04 #@! TD*
D19*
G04 #@! TO.C,D33*
X98821875Y-107740625D03*
X98821875Y-104190625D03*
G04 #@! TD*
D23*
G04 #@! TO.C,D61*
X192513320Y-90383195D03*
X192513320Y-91783195D03*
X198013320Y-91783195D03*
X198013320Y-90383195D03*
G04 #@! TD*
D25*
G04 #@! TO.C,J1*
X83048800Y-43843822D03*
X83448800Y-43843822D03*
X83848800Y-43843822D03*
X84248800Y-43843822D03*
X84648800Y-43843822D03*
X85048800Y-43843822D03*
X85448800Y-43843822D03*
X85848800Y-43843822D03*
X86248800Y-43843822D03*
X86648800Y-43843822D03*
X87048800Y-43843822D03*
X87448800Y-43843822D03*
X88648800Y-43843822D03*
X88248800Y-43843822D03*
X87848800Y-43843822D03*
D26*
X87248800Y-42918822D03*
X86448800Y-42918822D03*
X85648800Y-42918822D03*
X84848800Y-42918822D03*
X84048800Y-42918822D03*
X83248800Y-42918822D03*
D25*
X82648800Y-43843822D03*
X82248800Y-43843822D03*
X81848800Y-43843822D03*
D27*
X79698800Y-43368822D03*
D28*
X81333800Y-43843822D03*
X89163800Y-43843822D03*
D27*
X90798800Y-43368822D03*
X79698800Y-38318822D03*
X90798800Y-38318822D03*
G04 #@! TD*
D23*
G04 #@! TO.C,D75*
X173463048Y-41567365D03*
X173463048Y-42967365D03*
X178963048Y-42967365D03*
X178963048Y-41567365D03*
G04 #@! TD*
D19*
G04 #@! TO.C,D10*
X108346686Y-48209454D03*
X108346686Y-44659454D03*
G04 #@! TD*
D29*
G04 #@! TO.C,R6*
X72032593Y-90121990D03*
X72032593Y-88471990D03*
G04 #@! TD*
D22*
G04 #@! TO.C,*
X166688200Y-38099965D03*
G04 #@! TD*
D19*
G04 #@! TO.C,D17*
X117871678Y-69640722D03*
X117871678Y-66090722D03*
G04 #@! TD*
D23*
G04 #@! TO.C,D60*
X173463240Y-90383195D03*
X173463240Y-91783195D03*
X178963240Y-91783195D03*
X178963240Y-90383195D03*
G04 #@! TD*
D30*
G04 #@! TO.C,R8*
X70850675Y-103108090D03*
X72500675Y-103108090D03*
G04 #@! TD*
D31*
G04 #@! TO.C,D42*
X118534469Y-136235396D03*
X118172123Y-134883100D03*
X112859531Y-136306604D03*
X113221877Y-137658900D03*
G04 #@! TD*
D19*
G04 #@! TO.C,D26*
X232171782Y-107740754D03*
X232171782Y-104190754D03*
G04 #@! TD*
D32*
G04 #@! TO.C,R10*
X72866300Y-109537465D03*
X72866300Y-111187465D03*
G04 #@! TD*
D19*
G04 #@! TO.C,D14*
X175021726Y-69640722D03*
X175021726Y-66090722D03*
G04 #@! TD*
D23*
G04 #@! TO.C,D70*
X87737880Y-71333115D03*
X87737880Y-72733115D03*
X93237880Y-72733115D03*
X93237880Y-71333115D03*
G04 #@! TD*
D19*
G04 #@! TO.C,D31*
X136921678Y-107740754D03*
X136921678Y-104190754D03*
G04 #@! TD*
G04 #@! TO.C,D21*
X184546734Y-88690738D03*
X184546734Y-85140738D03*
G04 #@! TD*
G04 #@! TO.C,D4*
X210740625Y-48209454D03*
X210740625Y-44659454D03*
G04 #@! TD*
G04 #@! TO.C,D30*
X155971694Y-107740754D03*
X155971694Y-104190754D03*
G04 #@! TD*
D22*
G04 #@! TO.C,*
X233362500Y-57149965D03*
G04 #@! TD*
D23*
G04 #@! TO.C,D72*
X116313000Y-41567365D03*
X116313000Y-42967365D03*
X121813000Y-42967365D03*
X121813000Y-41567365D03*
G04 #@! TD*
D19*
G04 #@! TO.C,D28*
X194071726Y-107740754D03*
X194071726Y-104190754D03*
G04 #@! TD*
D33*
G04 #@! TO.C,D39*
X123094294Y-131493188D03*
X122175486Y-128064152D03*
G04 #@! TD*
D22*
G04 #@! TO.C,*
X166687444Y-93464101D03*
G04 #@! TD*
D19*
G04 #@! TO.C,D25*
X108347330Y-88690990D03*
X108347330Y-85140990D03*
G04 #@! TD*
D32*
G04 #@! TO.C,R11*
X74295050Y-109537465D03*
X74295050Y-111187465D03*
G04 #@! TD*
D23*
G04 #@! TO.C,D71*
X97262920Y-41567263D03*
X97262920Y-42967263D03*
X102762920Y-42967263D03*
X102762920Y-41567263D03*
G04 #@! TD*
G04 #@! TO.C,D46*
X202038232Y-128482961D03*
X202038232Y-129882961D03*
X207538232Y-129882961D03*
X207538232Y-128482961D03*
G04 #@! TD*
G04 #@! TO.C,D56*
X97262920Y-90383195D03*
X97262920Y-91783195D03*
X102762920Y-91783195D03*
X102762920Y-90383195D03*
G04 #@! TD*
G04 #@! TO.C,D76*
X192513320Y-41567365D03*
X192513320Y-42967365D03*
X198013320Y-42967365D03*
X198013320Y-41567365D03*
G04 #@! TD*
D19*
G04 #@! TO.C,D29*
X175021710Y-107740754D03*
X175021710Y-104190754D03*
G04 #@! TD*
G04 #@! TO.C,D15*
X155971710Y-69640722D03*
X155971710Y-66090722D03*
G04 #@! TD*
D34*
G04 #@! TO.C,X1*
X75381966Y-78923682D03*
X74533438Y-79772210D03*
X73684910Y-80620738D03*
G04 #@! TD*
D35*
G04 #@! TO.C,D40*
X87446820Y-145916660D03*
X89957050Y-143406430D03*
G04 #@! TD*
D23*
G04 #@! TO.C,D66*
X163938328Y-71333115D03*
X163938328Y-72733115D03*
X169438328Y-72733115D03*
X169438328Y-71333115D03*
G04 #@! TD*
D22*
G04 #@! TO.C,REF\u002A\u002A*
X195262468Y-58935947D03*
G04 #@! TD*
D23*
G04 #@! TO.C,D77*
X216206857Y-41567365D03*
X216206857Y-42967365D03*
X221706857Y-42967365D03*
X221706857Y-41567365D03*
G04 #@! TD*
D19*
G04 #@! TO.C,D32*
X117871875Y-107740625D03*
X117871875Y-104190625D03*
G04 #@! TD*
D32*
G04 #@! TO.C,R7*
X89891983Y-85376215D03*
X89891983Y-87026215D03*
G04 #@! TD*
D30*
G04 #@! TO.C,R4*
X86090990Y-46196215D03*
X87740990Y-46196215D03*
G04 #@! TD*
D20*
G04 #@! TO.C,C2*
X88344746Y-94239455D03*
X88344746Y-92689455D03*
G04 #@! TD*
D23*
G04 #@! TO.C,D44*
X163938200Y-128482961D03*
X163938200Y-129882961D03*
X169438200Y-129882961D03*
X169438200Y-128482961D03*
G04 #@! TD*
D19*
G04 #@! TO.C,D22*
X165496718Y-88690738D03*
X165496718Y-85140738D03*
G04 #@! TD*
D36*
G04 #@! TO.C,U1*
X79760206Y-92584048D03*
X79194521Y-92018362D03*
X78628836Y-91452677D03*
X78063150Y-90886992D03*
X77497465Y-90321306D03*
X76931779Y-89755621D03*
X76366094Y-89189935D03*
X75800408Y-88624250D03*
X75234723Y-88058564D03*
X74669038Y-87492879D03*
X74103352Y-86927194D03*
D37*
X74103352Y-84523030D03*
X74669038Y-83957345D03*
X75234723Y-83391660D03*
X75800408Y-82825974D03*
X76366094Y-82260289D03*
X76931779Y-81694603D03*
X77497465Y-81128918D03*
X78063150Y-80563232D03*
X78628836Y-79997547D03*
X79194521Y-79431862D03*
X79760206Y-78866176D03*
D36*
X82164370Y-78866176D03*
X82730055Y-79431862D03*
X83295740Y-79997547D03*
X83861426Y-80563232D03*
X84427111Y-81128918D03*
X84992797Y-81694603D03*
X85558482Y-82260289D03*
X86124168Y-82825974D03*
X86689853Y-83391660D03*
X87255538Y-83957345D03*
X87821224Y-84523030D03*
D37*
X87821224Y-86927194D03*
X87255538Y-87492879D03*
X86689853Y-88058564D03*
X86124168Y-88624250D03*
X85558482Y-89189935D03*
X84992797Y-89755621D03*
X84427111Y-90321306D03*
X83861426Y-90886992D03*
X83295740Y-91452677D03*
X82730055Y-92018362D03*
X82164370Y-92584048D03*
G04 #@! TD*
D19*
G04 #@! TO.C,D7*
X148827970Y-48209454D03*
X148827970Y-44659454D03*
G04 #@! TD*
G04 #@! TO.C,D35*
X213121766Y-126790770D03*
X213121766Y-123240770D03*
G04 #@! TD*
G04 #@! TO.C,D23*
X146446702Y-88690738D03*
X146446702Y-85140738D03*
G04 #@! TD*
G04 #@! TO.C,D20*
X203596750Y-88690738D03*
X203596750Y-85140738D03*
G04 #@! TD*
D23*
G04 #@! TO.C,D63*
X221088440Y-71333115D03*
X221088440Y-72733115D03*
X226588440Y-72733115D03*
X226588440Y-71333115D03*
G04 #@! TD*
D22*
G04 #@! TO.C,REF\u002A\u002A*
X214312500Y-114300000D03*
G04 #@! TD*
D23*
G04 #@! TO.C,D65*
X182988344Y-71333115D03*
X182988344Y-72733115D03*
X188488344Y-72733115D03*
X188488344Y-71333115D03*
G04 #@! TD*
D19*
G04 #@! TO.C,D19*
X227409274Y-88690738D03*
X227409274Y-85140738D03*
G04 #@! TD*
D23*
G04 #@! TO.C,D52*
X144888376Y-109432945D03*
X144888376Y-110832945D03*
X150388376Y-110832945D03*
X150388376Y-109432945D03*
G04 #@! TD*
D19*
G04 #@! TO.C,D24*
X127396686Y-88690738D03*
X127396686Y-85140738D03*
G04 #@! TD*
D23*
G04 #@! TO.C,D62*
X216325920Y-90383195D03*
X216325920Y-91783195D03*
X221825920Y-91783195D03*
X221825920Y-90383195D03*
G04 #@! TD*
D30*
G04 #@! TO.C,R3*
X86090990Y-47624965D03*
X87740990Y-47624965D03*
G04 #@! TD*
D19*
G04 #@! TO.C,D16*
X136921694Y-69640722D03*
X136921694Y-66090722D03*
G04 #@! TD*
G04 #@! TO.C,D27*
X213121742Y-107740754D03*
X213121742Y-104190754D03*
G04 #@! TD*
D23*
G04 #@! TO.C,D55*
X87737880Y-109433275D03*
X87737880Y-110833275D03*
X93237880Y-110833275D03*
X93237880Y-109433275D03*
G04 #@! TD*
G04 #@! TO.C,D45*
X182988216Y-128482961D03*
X182988216Y-129882961D03*
X188488216Y-129882961D03*
X188488216Y-128482961D03*
G04 #@! TD*
D30*
G04 #@! TO.C,R5*
X70850675Y-101322151D03*
X72500675Y-101322151D03*
G04 #@! TD*
D23*
G04 #@! TO.C,D74*
X154413032Y-41567365D03*
X154413032Y-42967365D03*
X159913032Y-42967365D03*
X159913032Y-41567365D03*
G04 #@! TD*
D19*
G04 #@! TO.C,D36*
X194071750Y-126790770D03*
X194071750Y-123240770D03*
G04 #@! TD*
D38*
G04 #@! TO.C,D41*
X80824569Y-144425518D03*
X81814518Y-143435569D03*
X77925431Y-139546482D03*
X76935482Y-140536431D03*
G04 #@! TD*
D19*
G04 #@! TO.C,D12*
X213121758Y-69640722D03*
X213121758Y-66090722D03*
G04 #@! TD*
G04 #@! TO.C,D5*
X186928002Y-48209454D03*
X186928002Y-44659454D03*
G04 #@! TD*
G04 #@! TO.C,D38*
X151210010Y-126791150D03*
X151210010Y-123241150D03*
G04 #@! TD*
D20*
G04 #@! TO.C,C4*
X79533800Y-75784340D03*
X79533800Y-74234340D03*
G04 #@! TD*
D23*
G04 #@! TO.C,D51*
X163938392Y-109432945D03*
X163938392Y-110832945D03*
X169438392Y-110832945D03*
X169438392Y-109432945D03*
G04 #@! TD*
G04 #@! TO.C,D43*
X140125600Y-128483355D03*
X140125600Y-129883355D03*
X145625600Y-129883355D03*
X145625600Y-128483355D03*
G04 #@! TD*
G04 #@! TO.C,D50*
X182988408Y-109432945D03*
X182988408Y-110832945D03*
X188488408Y-110832945D03*
X188488408Y-109432945D03*
G04 #@! TD*
G04 #@! TO.C,D47*
X221087400Y-128483355D03*
X221087400Y-129883355D03*
X226587400Y-129883355D03*
X226587400Y-128483355D03*
G04 #@! TD*
D21*
G04 #@! TO.C,R1*
X84407226Y-47624965D03*
X82757226Y-47624965D03*
G04 #@! TD*
D23*
G04 #@! TO.C,D58*
X135363080Y-90383195D03*
X135363080Y-91783195D03*
X140863080Y-91783195D03*
X140863080Y-90383195D03*
G04 #@! TD*
D39*
G04 #@! TO.C,C1*
X89773502Y-92689455D03*
X89773502Y-94239455D03*
G04 #@! TD*
D22*
G04 #@! TO.C,REF\u002A\u002A*
X138113080Y-58935947D03*
G04 #@! TD*
D23*
G04 #@! TO.C,D64*
X202038360Y-71333115D03*
X202038360Y-72733115D03*
X207538360Y-72733115D03*
X207538360Y-71333115D03*
G04 #@! TD*
G04 #@! TO.C,D53*
X125838040Y-109433275D03*
X125838040Y-110833275D03*
X131338040Y-110833275D03*
X131338040Y-109433275D03*
G04 #@! TD*
G04 #@! TO.C,D59*
X154413160Y-90383195D03*
X154413160Y-91783195D03*
X159913160Y-91783195D03*
X159913160Y-90383195D03*
G04 #@! TD*
D19*
G04 #@! TO.C,D13*
X194071742Y-69640722D03*
X194071742Y-66090722D03*
G04 #@! TD*
G04 #@! TO.C,D34*
X232171782Y-126790770D03*
X232171782Y-123240770D03*
G04 #@! TD*
G04 #@! TO.C,D18*
X98821875Y-69640625D03*
X98821875Y-66090625D03*
G04 #@! TD*
D23*
G04 #@! TO.C,D68*
X125838040Y-71333115D03*
X125838040Y-72733115D03*
X131338040Y-72733115D03*
X131338040Y-71333115D03*
G04 #@! TD*
G04 #@! TO.C,D69*
X106787960Y-71333115D03*
X106787960Y-72733115D03*
X112287960Y-72733115D03*
X112287960Y-71333115D03*
G04 #@! TD*
D22*
G04 #@! TO.C,REF\u002A\u002A*
X89296770Y-125015690D03*
G04 #@! TD*
D24*
G04 #@! TO.C,D1*
X66613889Y-100828217D03*
X68164961Y-101101713D03*
G04 #@! TD*
D20*
G04 #@! TO.C,C3*
X80962550Y-75784340D03*
X80962550Y-74234340D03*
G04 #@! TD*
D23*
G04 #@! TO.C,D49*
X202038424Y-109432945D03*
X202038424Y-110832945D03*
X207538424Y-110832945D03*
X207538424Y-109432945D03*
G04 #@! TD*
D19*
G04 #@! TO.C,D11*
X232171778Y-69640722D03*
X232171778Y-66090722D03*
G04 #@! TD*
D20*
G04 #@! TO.C,C5*
X78105050Y-75784340D03*
X78105050Y-74234340D03*
G04 #@! TD*
D23*
G04 #@! TO.C,D57*
X116313000Y-90383195D03*
X116313000Y-91783195D03*
X121813000Y-91783195D03*
X121813000Y-90383195D03*
G04 #@! TD*
G04 #@! TO.C,D73*
X135363016Y-41567365D03*
X135363016Y-42967365D03*
X140863016Y-42967365D03*
X140863016Y-41567365D03*
G04 #@! TD*
D40*
G04 #@! TO.C,J4*
X128006617Y-134540590D03*
D41*
X127349217Y-132087138D03*
X126691816Y-129633687D03*
X126034416Y-127180235D03*
X125377016Y-124726784D03*
X124719615Y-122273332D03*
X124062215Y-119819880D03*
G04 #@! TD*
D24*
G04 #@! TO.C,D2*
X66137639Y-102495092D03*
X67688711Y-102768588D03*
G04 #@! TD*
D21*
G04 #@! TO.C,R9*
X72500675Y-104894029D03*
X70850675Y-104894029D03*
G04 #@! TD*
D19*
G04 #@! TO.C,D6*
X167877986Y-48209454D03*
X167877986Y-44659454D03*
G04 #@! TD*
G04 #@! TO.C,D9*
X110727938Y-48209454D03*
X110727938Y-44659454D03*
G04 #@! TD*
D23*
G04 #@! TO.C,D54*
X106907023Y-109433275D03*
X106907023Y-110833275D03*
X112407023Y-110833275D03*
X112407023Y-109433275D03*
G04 #@! TD*
G04 #@! TO.C,D67*
X144888312Y-71333115D03*
X144888312Y-72733115D03*
X150388312Y-72733115D03*
X150388312Y-71333115D03*
G04 #@! TD*
M02*
