G04 #@! TF.GenerationSoftware,KiCad,Pcbnew,(6.0.8)*
G04 #@! TF.CreationDate,2023-03-04T03:17:21+09:00*
G04 #@! TF.ProjectId,ma8ic_split_69_right,6d613869-635f-4737-906c-69745f36395f,0.1*
G04 #@! TF.SameCoordinates,Original*
G04 #@! TF.FileFunction,Legend,Bot*
G04 #@! TF.FilePolarity,Positive*
%FSLAX46Y46*%
G04 Gerber Fmt 4.6, Leading zero omitted, Abs format (unit mm)*
G04 Created by KiCad (PCBNEW (6.0.8)) date 2023-03-04 03:17:21*
%MOMM*%
%LPD*%
G01*
G04 APERTURE LIST*
%ADD10C,0.150000*%
%ADD11C,1.700000*%
G04 APERTURE END LIST*
D10*
X213121534Y-86915986D02*
X215502786Y-84534734D01*
X213121534Y-84534734D02*
X215502786Y-86915986D01*
G04 #@! TO.C,SW1*
X219268520Y-65761537D02*
X218741682Y-65515958D01*
X219169293Y-65198790D02*
X218184485Y-65372438D01*
X218250637Y-65747603D01*
X218314070Y-65833125D01*
X218369235Y-65871752D01*
X218471295Y-65902110D01*
X218611982Y-65877303D01*
X218697504Y-65813869D01*
X218736131Y-65758705D01*
X218766489Y-65656645D01*
X218700337Y-65281480D01*
X218827089Y-66274556D02*
X218884972Y-66602826D01*
X219425631Y-66652554D02*
X219342941Y-66183598D01*
X218358133Y-66357246D01*
X218440823Y-66826202D01*
X219444887Y-67035988D02*
X219516589Y-67168406D01*
X219557934Y-67402884D01*
X219527576Y-67504944D01*
X219488950Y-67560108D01*
X219403428Y-67623542D01*
X219309636Y-67640080D01*
X219207576Y-67609722D01*
X219152412Y-67571095D01*
X219088978Y-67485573D01*
X219009007Y-67306260D01*
X218945573Y-67220737D01*
X218890408Y-67182111D01*
X218788348Y-67151753D01*
X218694557Y-67168291D01*
X218609035Y-67231725D01*
X218570408Y-67286889D01*
X218540050Y-67388949D01*
X218581395Y-67623427D01*
X218653098Y-67755845D01*
X219149579Y-68103485D02*
X219207462Y-68431754D01*
X219748120Y-68481483D02*
X219665431Y-68012526D01*
X218680623Y-68186175D01*
X218763312Y-68655131D01*
X218812926Y-68936504D02*
X218912154Y-69499252D01*
X219847348Y-69044230D02*
X218862540Y-69217878D01*
G04 #@! TO.C,J3*
X225778397Y-110047969D02*
X225590815Y-110081045D01*
X225505293Y-110144478D01*
X225428039Y-110254807D01*
X225414220Y-110450659D01*
X225472102Y-110778928D01*
X225552074Y-110958241D01*
X225662403Y-111035495D01*
X225764463Y-111065852D01*
X225952046Y-111032776D01*
X226037568Y-110969343D01*
X226114821Y-110859014D01*
X226128641Y-110663162D01*
X226070758Y-110334893D01*
X225990787Y-110155580D01*
X225880458Y-110078326D01*
X225778397Y-110047969D01*
X224638969Y-111264307D02*
X225107925Y-111181618D01*
X224934277Y-110196810D01*
X224219741Y-110806338D02*
X223891472Y-110864221D01*
X223841743Y-111404880D02*
X224310699Y-111322190D01*
X224137051Y-110337382D01*
X223668095Y-110420072D01*
X223419683Y-111479300D02*
X223246035Y-110494493D01*
X223011557Y-110535837D01*
X222879139Y-110607540D01*
X222801885Y-110717869D01*
X222771528Y-110819929D01*
X222757708Y-111015781D01*
X222782515Y-111156467D01*
X222862486Y-111335781D01*
X222925920Y-111421303D01*
X223036249Y-111498556D01*
X223185205Y-111520645D01*
X223419683Y-111479300D01*
G04 #@! TO.C,J2*
X211977778Y-50845452D02*
X212077006Y-51408199D01*
X213012200Y-50953178D02*
X212027392Y-51126826D01*
X213218924Y-52125568D02*
X212692085Y-51879988D01*
X213119696Y-51562820D02*
X212134889Y-51736469D01*
X212201040Y-52111633D01*
X212264474Y-52197156D01*
X212319639Y-52235782D01*
X212421699Y-52266140D01*
X212562386Y-52241333D01*
X212647908Y-52177900D01*
X212686534Y-52122735D01*
X212716892Y-52020675D01*
X212650740Y-51645510D01*
X213392572Y-53110375D02*
X212865733Y-52864796D01*
X213293345Y-52547628D02*
X212308537Y-52721276D01*
X212374689Y-53096441D01*
X212438122Y-53181963D01*
X212493287Y-53220590D01*
X212595347Y-53250948D01*
X212736034Y-53226141D01*
X212821556Y-53162707D01*
X212860183Y-53107543D01*
X212890540Y-53005483D01*
X212824389Y-52630318D01*
X213411828Y-53493809D02*
X213483531Y-53626227D01*
X213524876Y-53860705D01*
X213494518Y-53962765D01*
X213455891Y-54017930D01*
X213370369Y-54081363D01*
X213276578Y-54097901D01*
X213174518Y-54067544D01*
X213119353Y-54028917D01*
X213055919Y-53943395D01*
X212975948Y-53764081D01*
X212912515Y-53678559D01*
X212857350Y-53639932D01*
X212755290Y-53609575D01*
X212661499Y-53626113D01*
X212575976Y-53689546D01*
X212537350Y-53744711D01*
X212506992Y-53846771D01*
X212548337Y-54081249D01*
X212620039Y-54213667D01*
G04 #@! TO.C,SW1*
X217994421Y-70354948D02*
X218240623Y-70311536D01*
X217994421Y-70354948D02*
X217004626Y-64741544D01*
X217004626Y-64741544D02*
X217250828Y-64698132D01*
X221145806Y-69799274D02*
X220156011Y-64185870D01*
X220156011Y-64185870D02*
X219909809Y-64229282D01*
X221145806Y-69799274D02*
X220899604Y-69842686D01*
G04 #@! TO.C,J2*
X219400663Y-53508850D02*
X218393503Y-47796965D01*
X207829171Y-55549216D02*
X219400663Y-53508850D01*
X206822012Y-49837331D02*
X207829171Y-55549216D01*
X218393503Y-47796965D02*
X206822012Y-49837331D01*
G04 #@! TD*
D11*
G04 #@! TO.C,J3*
X228525225Y-112049007D03*
X226023813Y-112490074D03*
X223522401Y-112931140D03*
X221020989Y-113372207D03*
G04 #@! TD*
M02*
