G04 #@! TF.GenerationSoftware,KiCad,Pcbnew,(6.0.8)*
G04 #@! TF.CreationDate,2023-03-04T13:52:04+09:00*
G04 #@! TF.ProjectId,ma8ic_split_69_left,6d613869-635f-4737-906c-69745f36395f,0.1*
G04 #@! TF.SameCoordinates,Original*
G04 #@! TF.FileFunction,Soldermask,Top*
G04 #@! TF.FilePolarity,Negative*
%FSLAX46Y46*%
G04 Gerber Fmt 4.6, Leading zero omitted, Abs format (unit mm)*
G04 Created by KiCad (PCBNEW (6.0.8)) date 2023-03-04 13:52:04*
%MOMM*%
%LPD*%
G01*
G04 APERTURE LIST*
G04 Aperture macros list*
%AMRoundRect*
0 Rectangle with rounded corners*
0 $1 Rounding radius*
0 $2 $3 $4 $5 $6 $7 $8 $9 X,Y pos of 4 corners*
0 Add a 4 corners polygon primitive as box body*
4,1,4,$2,$3,$4,$5,$6,$7,$8,$9,$2,$3,0*
0 Add four circle primitives for the rounded corners*
1,1,$1+$1,$2,$3*
1,1,$1+$1,$4,$5*
1,1,$1+$1,$6,$7*
1,1,$1+$1,$8,$9*
0 Add four rect primitives between the rounded corners*
20,1,$1+$1,$2,$3,$4,$5,0*
20,1,$1+$1,$4,$5,$6,$7,0*
20,1,$1+$1,$6,$7,$8,$9,0*
20,1,$1+$1,$8,$9,$2,$3,0*%
%AMHorizOval*
0 Thick line with rounded ends*
0 $1 width*
0 $2 $3 position (X,Y) of the first rounded end (center of the circle)*
0 $4 $5 position (X,Y) of the second rounded end (center of the circle)*
0 Add line between two ends*
20,1,$1,$2,$3,$4,$5,0*
0 Add two circle primitives to create the rounded ends*
1,1,$1,$2,$3*
1,1,$1,$4,$5*%
%AMRotRect*
0 Rectangle, with rotation*
0 The origin of the aperture is its center*
0 $1 length*
0 $2 width*
0 $3 Rotation angle, in degrees counterclockwise*
0 Add horizontal line*
21,1,$1,$2,0,0,$3*%
G04 Aperture macros list end*
%ADD10C,0.010000*%
%ADD11R,1.000000X1.400000*%
%ADD12RoundRect,0.225000X0.250000X-0.225000X0.250000X0.225000X-0.250000X0.225000X-0.250000X-0.225000X0*%
%ADD13RoundRect,0.200000X-0.200000X-0.275000X0.200000X-0.275000X0.200000X0.275000X-0.200000X0.275000X0*%
%ADD14R,1.700000X1.000000*%
%ADD15RoundRect,0.218750X0.259924X0.214371X-0.170929X0.290343X-0.259924X-0.214371X0.170929X-0.290343X0*%
%ADD16R,0.230000X0.850000*%
%ADD17C,0.600000*%
%ADD18O,1.200000X2.400000*%
%ADD19R,0.460000X0.850000*%
%ADD20RoundRect,0.200000X0.275000X-0.200000X0.275000X0.200000X-0.275000X0.200000X-0.275000X-0.200000X0*%
%ADD21RotRect,1.700000X1.000000X15.000000*%
%ADD22RoundRect,0.200000X-0.275000X0.200000X-0.275000X-0.200000X0.275000X-0.200000X0.275000X0.200000X0*%
%ADD23RotRect,1.400000X1.000000X45.000000*%
%ADD24RotRect,0.400000X1.900000X135.000000*%
%ADD25RoundRect,0.200000X0.200000X0.275000X-0.200000X0.275000X-0.200000X-0.275000X0.200000X-0.275000X0*%
%ADD26RoundRect,0.225000X-0.250000X0.225000X-0.250000X-0.225000X0.250000X-0.225000X0.250000X0.225000X0*%
%ADD27RotRect,1.500000X0.550000X315.000000*%
%ADD28RotRect,1.500000X0.550000X45.000000*%
%ADD29RotRect,1.700000X1.000000X315.000000*%
%ADD30RotRect,1.400000X1.000000X105.000000*%
%ADD31RotRect,1.700000X1.700000X195.000000*%
%ADD32HorizOval,1.700000X0.000000X0.000000X0.000000X0.000000X0*%
%ADD33C,3.000000*%
%ADD34R,2.600000X2.600000*%
%ADD35RotRect,2.600000X2.600000X135.000000*%
%ADD36C,2.200000*%
%ADD37C,2.000000*%
%ADD38C,1.700000*%
%ADD39RotRect,2.600000X2.600000X195.000000*%
%ADD40C,1.200000*%
%ADD41HorizOval,1.700000X-0.393923X0.069459X0.393923X-0.069459X0*%
G04 APERTURE END LIST*
G04 #@! TO.C,J1*
G36*
X97999740Y-34856332D02*
G01*
X97142550Y-34856332D01*
X97142550Y-32254662D01*
X97999740Y-32254662D01*
X97999740Y-34856332D01*
G37*
D10*
X97999740Y-34856332D02*
X97142550Y-34856332D01*
X97142550Y-32254662D01*
X97999740Y-32254662D01*
X97999740Y-34856332D01*
G36*
X87642440Y-34856332D02*
G01*
X86842550Y-34856332D01*
X86842550Y-32256302D01*
X87642440Y-32256302D01*
X87642440Y-34856332D01*
G37*
X87642440Y-34856332D02*
X86842550Y-34856332D01*
X86842550Y-32256302D01*
X87642440Y-32256302D01*
X87642440Y-34856332D01*
G04 #@! TD*
D11*
G04 #@! TO.C,D33*
X167877980Y-122028280D03*
X167877980Y-118478280D03*
G04 #@! TD*
D12*
G04 #@! TO.C,C6*
X83820050Y-71021850D03*
X83820050Y-69471850D03*
G04 #@! TD*
D11*
G04 #@! TO.C,D8*
X136921704Y-43446964D03*
X136921704Y-39896964D03*
G04 #@! TD*
D13*
G04 #@! TO.C,R2*
X93234425Y-41433725D03*
X94884425Y-41433725D03*
G04 #@! TD*
D12*
G04 #@! TO.C,C7*
X82391300Y-71021850D03*
X82391300Y-69471850D03*
G04 #@! TD*
D14*
G04 #@! TO.C,D43*
X176581110Y-104670455D03*
X176581110Y-106070455D03*
X171081110Y-106070455D03*
X171081110Y-104670455D03*
G04 #@! TD*
D15*
G04 #@! TO.C,D3*
X74356211Y-99672973D03*
X72805139Y-99399477D03*
G04 #@! TD*
D14*
G04 #@! TO.C,D55*
X195631126Y-66570423D03*
X195631126Y-67970423D03*
X190131126Y-67970423D03*
X190131126Y-66570423D03*
G04 #@! TD*
D16*
G04 #@! TO.C,J1*
X94592550Y-39081332D03*
X94192550Y-39081332D03*
X93792550Y-39081332D03*
X93392550Y-39081332D03*
X92992550Y-39081332D03*
X92592550Y-39081332D03*
X92192550Y-39081332D03*
X91792550Y-39081332D03*
X91392550Y-39081332D03*
X90992550Y-39081332D03*
X90592550Y-39081332D03*
X90192550Y-39081332D03*
X88992550Y-39081332D03*
X89392550Y-39081332D03*
X89792550Y-39081332D03*
D17*
X90392550Y-38156332D03*
X91192550Y-38156332D03*
X91992550Y-38156332D03*
X92792550Y-38156332D03*
X93592550Y-38156332D03*
X94392550Y-38156332D03*
D16*
X94992550Y-39081332D03*
X95392550Y-39081332D03*
X95792550Y-39081332D03*
D18*
X97942550Y-38606332D03*
D19*
X96307550Y-39081332D03*
X88477550Y-39081332D03*
D18*
X86842550Y-38606332D03*
X97942550Y-33556332D03*
X86842550Y-33556332D03*
G04 #@! TD*
D14*
G04 #@! TO.C,D66*
X205156134Y-36804773D03*
X205156134Y-38204773D03*
X199656134Y-38204773D03*
X199656134Y-36804773D03*
G04 #@! TD*
D11*
G04 #@! TO.C,D10*
X115490436Y-43446964D03*
X115490436Y-39896964D03*
G04 #@! TD*
D20*
G04 #@! TO.C,R6*
X79176343Y-85359500D03*
X79176343Y-83709500D03*
G04 #@! TD*
D11*
G04 #@! TO.C,D17*
X105965428Y-64878232D03*
X105965428Y-61328232D03*
G04 #@! TD*
D14*
G04 #@! TO.C,D54*
X219443646Y-66570423D03*
X219443646Y-67970423D03*
X213943646Y-67970423D03*
X213943646Y-66570423D03*
G04 #@! TD*
D13*
G04 #@! TO.C,R8*
X77994425Y-98345600D03*
X79644425Y-98345600D03*
G04 #@! TD*
D21*
G04 #@! TO.C,D37*
X125315873Y-130120610D03*
X125678219Y-131472906D03*
X120365627Y-132896410D03*
X120003281Y-131544114D03*
G04 #@! TD*
D11*
G04 #@! TO.C,D24*
X215503020Y-102978264D03*
X215503020Y-99428264D03*
G04 #@! TD*
D22*
G04 #@! TO.C,R10*
X80010050Y-104774975D03*
X80010050Y-106424975D03*
G04 #@! TD*
D11*
G04 #@! TO.C,D14*
X163115476Y-64878232D03*
X163115476Y-61328232D03*
G04 #@! TD*
G04 #@! TO.C,D29*
X105965428Y-102978264D03*
X105965428Y-99428264D03*
G04 #@! TD*
G04 #@! TO.C,D20*
X172640484Y-83928248D03*
X172640484Y-80378248D03*
G04 #@! TD*
G04 #@! TO.C,D4*
X213121768Y-43446964D03*
X213121768Y-39896964D03*
G04 #@! TD*
G04 #@! TO.C,D28*
X125015444Y-102978264D03*
X125015444Y-99428264D03*
G04 #@! TD*
D14*
G04 #@! TO.C,D63*
X148006086Y-36804773D03*
X148006086Y-38204773D03*
X142506086Y-38204773D03*
X142506086Y-36804773D03*
G04 #@! TD*
D11*
G04 #@! TO.C,D26*
X163115476Y-102978264D03*
X163115476Y-99428264D03*
G04 #@! TD*
D23*
G04 #@! TO.C,D35*
X94589992Y-141153724D03*
X97100222Y-138643494D03*
G04 #@! TD*
D22*
G04 #@! TO.C,R11*
X81438800Y-104774975D03*
X81438800Y-106424975D03*
G04 #@! TD*
D14*
G04 #@! TO.C,D62*
X128956070Y-36804773D03*
X128956070Y-38204773D03*
X123456070Y-38204773D03*
X123456070Y-36804773D03*
G04 #@! TD*
G04 #@! TO.C,D41*
X224206150Y-123720471D03*
X224206150Y-125120471D03*
X218706150Y-125120471D03*
X218706150Y-123720471D03*
G04 #@! TD*
G04 #@! TO.C,D50*
X148006086Y-85620439D03*
X148006086Y-87020439D03*
X142506086Y-87020439D03*
X142506086Y-85620439D03*
G04 #@! TD*
G04 #@! TO.C,D67*
X224206150Y-36804773D03*
X224206150Y-38204773D03*
X218706150Y-38204773D03*
X218706150Y-36804773D03*
G04 #@! TD*
D11*
G04 #@! TO.C,D27*
X144065460Y-102978264D03*
X144065460Y-99428264D03*
G04 #@! TD*
G04 #@! TO.C,D15*
X144065460Y-64878232D03*
X144065460Y-61328232D03*
G04 #@! TD*
D24*
G04 #@! TO.C,X1*
X82406123Y-87764280D03*
X81557595Y-86915752D03*
X80709067Y-86067224D03*
G04 #@! TD*
D14*
G04 #@! TO.C,D59*
X119431062Y-66570423D03*
X119431062Y-67970423D03*
X113931062Y-67970423D03*
X113931062Y-66570423D03*
G04 #@! TD*
D20*
G04 #@! TO.C,R7*
X97035733Y-82263725D03*
X97035733Y-80613725D03*
G04 #@! TD*
D25*
G04 #@! TO.C,R4*
X91550675Y-41433725D03*
X89900675Y-41433725D03*
G04 #@! TD*
D26*
G04 #@! TO.C,C2*
X82391300Y-72448553D03*
X82391300Y-73998553D03*
G04 #@! TD*
D14*
G04 #@! TO.C,D39*
X186106118Y-123720471D03*
X186106118Y-125120471D03*
X180606118Y-125120471D03*
X180606118Y-123720471D03*
G04 #@! TD*
D11*
G04 #@! TO.C,D21*
X153590468Y-83928248D03*
X153590468Y-80378248D03*
G04 #@! TD*
D27*
G04 #@! TO.C,U1*
X86903956Y-74103686D03*
X86338271Y-74669372D03*
X85772586Y-75235057D03*
X85206900Y-75800742D03*
X84641215Y-76366428D03*
X84075529Y-76932113D03*
X83509844Y-77497799D03*
X82944158Y-78063484D03*
X82378473Y-78629170D03*
X81812788Y-79194855D03*
X81247102Y-79760540D03*
D28*
X81247102Y-82164704D03*
X81812788Y-82730389D03*
X82378473Y-83296074D03*
X82944158Y-83861760D03*
X83509844Y-84427445D03*
X84075529Y-84993131D03*
X84641215Y-85558816D03*
X85206900Y-86124502D03*
X85772586Y-86690187D03*
X86338271Y-87255872D03*
X86903956Y-87821558D03*
D27*
X89308120Y-87821558D03*
X89873805Y-87255872D03*
X90439490Y-86690187D03*
X91005176Y-86124502D03*
X91570861Y-85558816D03*
X92136547Y-84993131D03*
X92702232Y-84427445D03*
X93267918Y-83861760D03*
X93833603Y-83296074D03*
X94399288Y-82730389D03*
X94964974Y-82164704D03*
D28*
X94964974Y-79760540D03*
X94399288Y-79194855D03*
X93833603Y-78629170D03*
X93267918Y-78063484D03*
X92702232Y-77497799D03*
X92136547Y-76932113D03*
X91570861Y-76366428D03*
X91005176Y-75800742D03*
X90439490Y-75235057D03*
X89873805Y-74669372D03*
X89308120Y-74103686D03*
G04 #@! TD*
D11*
G04 #@! TO.C,D7*
X155971720Y-43446964D03*
X155971720Y-39896964D03*
G04 #@! TD*
G04 #@! TO.C,D31*
X210740516Y-122028280D03*
X210740516Y-118478280D03*
G04 #@! TD*
G04 #@! TO.C,D22*
X134540452Y-83928248D03*
X134540452Y-80378248D03*
G04 #@! TD*
G04 #@! TO.C,D19*
X191690500Y-83928248D03*
X191690500Y-80378248D03*
G04 #@! TD*
D14*
G04 #@! TO.C,D56*
X176581110Y-66570423D03*
X176581110Y-67970423D03*
X171081110Y-67970423D03*
X171081110Y-66570423D03*
G04 #@! TD*
G04 #@! TO.C,D58*
X138481078Y-66570423D03*
X138481078Y-67970423D03*
X132981078Y-67970423D03*
X132981078Y-66570423D03*
G04 #@! TD*
D11*
G04 #@! TO.C,D18*
X220265524Y-83928248D03*
X220265524Y-80378248D03*
G04 #@! TD*
D14*
G04 #@! TO.C,D47*
X100381046Y-104670455D03*
X100381046Y-106070455D03*
X94881046Y-106070455D03*
X94881046Y-104670455D03*
G04 #@! TD*
D11*
G04 #@! TO.C,D23*
X115490436Y-83928248D03*
X115490436Y-80378248D03*
G04 #@! TD*
D25*
G04 #@! TO.C,R3*
X91550675Y-42862475D03*
X89900675Y-42862475D03*
G04 #@! TD*
D11*
G04 #@! TO.C,D16*
X125015444Y-64878232D03*
X125015444Y-61328232D03*
G04 #@! TD*
G04 #@! TO.C,D25*
X182165492Y-102978264D03*
X182165492Y-99428264D03*
G04 #@! TD*
D14*
G04 #@! TO.C,D40*
X205156134Y-123720471D03*
X205156134Y-125120471D03*
X199656134Y-125120471D03*
X199656134Y-123720471D03*
G04 #@! TD*
D13*
G04 #@! TO.C,R5*
X77994425Y-96559661D03*
X79644425Y-96559661D03*
G04 #@! TD*
D14*
G04 #@! TO.C,D65*
X186106118Y-36804773D03*
X186106118Y-38204773D03*
X180606118Y-38204773D03*
X180606118Y-36804773D03*
G04 #@! TD*
D11*
G04 #@! TO.C,D32*
X191690500Y-122028280D03*
X191690500Y-118478280D03*
G04 #@! TD*
D29*
G04 #@! TO.C,D36*
X88958268Y-138673079D03*
X87968319Y-139663028D03*
X84079232Y-135773941D03*
X85069181Y-134783992D03*
G04 #@! TD*
D11*
G04 #@! TO.C,D12*
X201215508Y-64878232D03*
X201215508Y-61328232D03*
G04 #@! TD*
G04 #@! TO.C,D5*
X194071752Y-43446964D03*
X194071752Y-39896964D03*
G04 #@! TD*
D30*
G04 #@! TO.C,D34*
X130237352Y-126730302D03*
X129318544Y-123301266D03*
G04 #@! TD*
D12*
G04 #@! TO.C,C4*
X86677550Y-71021850D03*
X86677550Y-69471850D03*
G04 #@! TD*
D14*
G04 #@! TO.C,D46*
X119431062Y-104670455D03*
X119431062Y-106070455D03*
X113931062Y-106070455D03*
X113931062Y-104670455D03*
G04 #@! TD*
G04 #@! TO.C,D38*
X162293750Y-123720471D03*
X162293750Y-125120471D03*
X156793750Y-125120471D03*
X156793750Y-123720471D03*
G04 #@! TD*
G04 #@! TO.C,D45*
X138481078Y-104670455D03*
X138481078Y-106070455D03*
X132981078Y-106070455D03*
X132981078Y-104670455D03*
G04 #@! TD*
G04 #@! TO.C,D42*
X209918638Y-104670455D03*
X209918638Y-106070455D03*
X204418638Y-106070455D03*
X204418638Y-104670455D03*
G04 #@! TD*
D13*
G04 #@! TO.C,R1*
X93234425Y-42862475D03*
X94884425Y-42862475D03*
G04 #@! TD*
D14*
G04 #@! TO.C,D52*
X186106118Y-85620439D03*
X186106118Y-87020439D03*
X180606118Y-87020439D03*
X180606118Y-85620439D03*
G04 #@! TD*
D12*
G04 #@! TO.C,C1*
X89535050Y-71021850D03*
X89535050Y-69471850D03*
G04 #@! TD*
D14*
G04 #@! TO.C,D57*
X157531094Y-66570423D03*
X157531094Y-67970423D03*
X152031094Y-67970423D03*
X152031094Y-66570423D03*
G04 #@! TD*
G04 #@! TO.C,D48*
X109906054Y-85620439D03*
X109906054Y-87020439D03*
X104406054Y-87020439D03*
X104406054Y-85620439D03*
G04 #@! TD*
G04 #@! TO.C,D53*
X214681142Y-85620439D03*
X214681142Y-87020439D03*
X209181142Y-87020439D03*
X209181142Y-85620439D03*
G04 #@! TD*
D11*
G04 #@! TO.C,D13*
X182165492Y-64878232D03*
X182165492Y-61328232D03*
G04 #@! TD*
G04 #@! TO.C,D30*
X229790532Y-122028280D03*
X229790532Y-118478280D03*
G04 #@! TD*
D14*
G04 #@! TO.C,D61*
X109906054Y-36804773D03*
X109906054Y-38204773D03*
X104406054Y-38204773D03*
X104406054Y-36804773D03*
G04 #@! TD*
D15*
G04 #@! TO.C,D1*
X75308711Y-96339223D03*
X73757639Y-96065727D03*
G04 #@! TD*
D12*
G04 #@! TO.C,C3*
X88106300Y-71021850D03*
X88106300Y-69471850D03*
G04 #@! TD*
D14*
G04 #@! TO.C,D44*
X157531094Y-104670455D03*
X157531094Y-106070455D03*
X152031094Y-106070455D03*
X152031094Y-104670455D03*
G04 #@! TD*
D11*
G04 #@! TO.C,D11*
X225028028Y-64878232D03*
X225028028Y-61328232D03*
G04 #@! TD*
D12*
G04 #@! TO.C,C5*
X85248800Y-71021850D03*
X85248800Y-69471850D03*
G04 #@! TD*
D14*
G04 #@! TO.C,D51*
X167056102Y-85620439D03*
X167056102Y-87020439D03*
X161556102Y-87020439D03*
X161556102Y-85620439D03*
G04 #@! TD*
G04 #@! TO.C,D64*
X167056102Y-36804773D03*
X167056102Y-38204773D03*
X161556102Y-38204773D03*
X161556102Y-36804773D03*
G04 #@! TD*
D31*
G04 #@! TO.C,J4*
X135150367Y-129778100D03*
D32*
X134492967Y-127324648D03*
X133835566Y-124871197D03*
X133178166Y-122417745D03*
X132520766Y-119964294D03*
X131863365Y-117510842D03*
X131205965Y-115057390D03*
G04 #@! TD*
D15*
G04 #@! TO.C,D2*
X74832461Y-98006098D03*
X73281389Y-97732602D03*
G04 #@! TD*
D25*
G04 #@! TO.C,R9*
X79644425Y-100131539D03*
X77994425Y-100131539D03*
G04 #@! TD*
D11*
G04 #@! TO.C,D6*
X175021736Y-43446964D03*
X175021736Y-39896964D03*
G04 #@! TD*
G04 #@! TO.C,D9*
X117871688Y-43446964D03*
X117871688Y-39896964D03*
G04 #@! TD*
D14*
G04 #@! TO.C,D49*
X128956070Y-85620439D03*
X128956070Y-87020439D03*
X123456070Y-87020439D03*
X123456070Y-85620439D03*
G04 #@! TD*
G04 #@! TO.C,D60*
X100381046Y-66570423D03*
X100381046Y-67970423D03*
X94881046Y-67970423D03*
X94881046Y-66570423D03*
G04 #@! TD*
D33*
G04 #@! TO.C,SW6*
X145256250Y-48762510D03*
X150256250Y-46562510D03*
D34*
X153556250Y-46562510D03*
X141956250Y-48762510D03*
G04 #@! TD*
D33*
G04 #@! TO.C,SW33*
X89568261Y-127198181D03*
X94659430Y-129178080D03*
D35*
X87234809Y-124864729D03*
X96992882Y-131511532D03*
G04 #@! TD*
D36*
G04 #@! TO.C,*
X230981258Y-33337475D03*
G04 #@! TD*
D33*
G04 #@! TO.C,SW26*
X111681250Y-96312510D03*
X116681250Y-94112510D03*
D34*
X108381250Y-96312510D03*
X119981250Y-94112510D03*
G04 #@! TD*
D33*
G04 #@! TO.C,SW21*
X107156250Y-75062510D03*
X102156250Y-77262510D03*
D34*
X98856250Y-77262510D03*
X110456250Y-75062510D03*
G04 #@! TD*
D36*
G04 #@! TO.C,*
X84534260Y-54173457D03*
G04 #@! TD*
D33*
G04 #@! TO.C,SW20*
X126206250Y-75062510D03*
X121206250Y-77262510D03*
D34*
X117906250Y-77262510D03*
X129506250Y-75062510D03*
G04 #@! TD*
D33*
G04 #@! TO.C,SW28*
X216456250Y-115362510D03*
X221456250Y-113162510D03*
D34*
X213156250Y-115362510D03*
X224756250Y-113162510D03*
G04 #@! TD*
D36*
G04 #@! TO.C,*
X154781194Y-33337475D03*
G04 #@! TD*
D33*
G04 #@! TO.C,SW4*
X183356250Y-48762510D03*
X188356250Y-46562510D03*
D34*
X191656250Y-46562510D03*
X180056250Y-48762510D03*
G04 #@! TD*
D33*
G04 #@! TO.C,SW25*
X135731250Y-94112510D03*
X130731250Y-96312510D03*
D34*
X127431250Y-96312510D03*
X139031250Y-94112510D03*
G04 #@! TD*
D33*
G04 #@! TO.C,SW11*
X168831250Y-58212510D03*
X173831250Y-56012510D03*
D34*
X165531250Y-58212510D03*
X177131250Y-56012510D03*
G04 #@! TD*
D33*
G04 #@! TO.C,SW12*
X154781250Y-56012510D03*
X149781250Y-58212510D03*
D34*
X146481250Y-58212510D03*
X158081250Y-56012510D03*
G04 #@! TD*
D33*
G04 #@! TO.C,SW29*
X202406250Y-113162510D03*
X197406250Y-115362510D03*
D34*
X194106250Y-115362510D03*
X205706250Y-113162510D03*
G04 #@! TD*
D33*
G04 #@! TO.C,SW30*
X183356250Y-113162510D03*
X178356250Y-115362510D03*
D34*
X175056250Y-115362510D03*
X186656250Y-113162510D03*
G04 #@! TD*
D36*
G04 #@! TO.C,*
X230981258Y-52387475D03*
G04 #@! TD*
D33*
G04 #@! TO.C,SW2*
X226456250Y-46562510D03*
X221456250Y-48762510D03*
D34*
X229756250Y-46562510D03*
X218156250Y-48762510D03*
G04 #@! TD*
D36*
G04 #@! TO.C,*
X154781194Y-88701611D03*
G04 #@! TD*
D33*
G04 #@! TO.C,SW27*
X97631250Y-94112510D03*
X92631250Y-96312510D03*
D34*
X89331250Y-96312510D03*
X100931250Y-94112510D03*
G04 #@! TD*
D33*
G04 #@! TO.C,SW9*
X216693750Y-56012510D03*
X211693750Y-58212510D03*
D34*
X208393750Y-58212510D03*
X219993750Y-56012510D03*
G04 #@! TD*
D33*
G04 #@! TO.C,SW17*
X183356250Y-75062510D03*
X178356250Y-77262510D03*
D34*
X175056250Y-77262510D03*
X186656250Y-75062510D03*
G04 #@! TD*
D33*
G04 #@! TO.C,SW19*
X145256250Y-75062510D03*
X140256250Y-77262510D03*
D34*
X136956250Y-77262510D03*
X148556250Y-75062510D03*
G04 #@! TD*
D33*
G04 #@! TO.C,SW8*
X112156250Y-46562510D03*
X107156250Y-48762510D03*
D34*
X115456250Y-46562510D03*
X103856250Y-48762510D03*
G04 #@! TD*
D33*
G04 #@! TO.C,SW15*
X97631250Y-56012510D03*
X92631250Y-58212510D03*
D34*
X89331250Y-58212510D03*
X100931250Y-56012510D03*
G04 #@! TD*
D36*
G04 #@! TO.C,REF\u002A\u002A*
X183356218Y-54173457D03*
G04 #@! TD*
D33*
G04 #@! TO.C,SW10*
X187881250Y-58212510D03*
X192881250Y-56012510D03*
D34*
X184581250Y-58212510D03*
X196181250Y-56012510D03*
G04 #@! TD*
D37*
G04 #@! TO.C,SW1*
X83907891Y-59307294D03*
X82779177Y-65708544D03*
G04 #@! TD*
D33*
G04 #@! TO.C,SW16*
X211931250Y-75062510D03*
X206931250Y-77262510D03*
D34*
X203631250Y-77262510D03*
X215231250Y-75062510D03*
G04 #@! TD*
D38*
G04 #@! TO.C,J3*
X81397761Y-108609717D03*
X78896349Y-108168650D03*
X76394937Y-107727584D03*
X73893525Y-107286517D03*
G04 #@! TD*
D36*
G04 #@! TO.C,REF\u002A\u002A*
X211931242Y-110132879D03*
G04 #@! TD*
D33*
G04 #@! TO.C,SW13*
X135731250Y-56012510D03*
X130731250Y-58212510D03*
D34*
X127431250Y-58212510D03*
X139031250Y-56012510D03*
G04 #@! TD*
D33*
G04 #@! TO.C,SW24*
X149781250Y-96312510D03*
X154781250Y-94112510D03*
D34*
X146481250Y-96312510D03*
X158081250Y-94112510D03*
G04 #@! TD*
D33*
G04 #@! TO.C,SW7*
X126206250Y-48762510D03*
X131206250Y-46562510D03*
D34*
X134506250Y-46562510D03*
X122906250Y-48762510D03*
G04 #@! TD*
D33*
G04 #@! TO.C,SW3*
X202406250Y-48762510D03*
X207406250Y-46562510D03*
D34*
X210706250Y-46562510D03*
X199106250Y-48762510D03*
G04 #@! TD*
D33*
G04 #@! TO.C,SW22*
X202168738Y-96312510D03*
X207168738Y-94112510D03*
D34*
X198868738Y-96312510D03*
X210468738Y-94112510D03*
G04 #@! TD*
D33*
G04 #@! TO.C,SW32*
X115656490Y-123926430D03*
X119916718Y-120507298D03*
D39*
X112468935Y-124780533D03*
X123104273Y-119653195D03*
G04 #@! TD*
D33*
G04 #@! TO.C,SW18*
X159306250Y-77262510D03*
X164306250Y-75062510D03*
D34*
X156006250Y-77262510D03*
X167606250Y-75062510D03*
G04 #@! TD*
D33*
G04 #@! TO.C,SW5*
X164306250Y-48762510D03*
X169306250Y-46562510D03*
D34*
X172606250Y-46562510D03*
X161006250Y-48762510D03*
G04 #@! TD*
D36*
G04 #@! TO.C,REF\u002A\u002A*
X107156154Y-54173457D03*
G04 #@! TD*
D33*
G04 #@! TO.C,SW14*
X111681250Y-58212510D03*
X116681250Y-56012510D03*
D34*
X108381250Y-58212510D03*
X119981250Y-56012510D03*
G04 #@! TD*
D36*
G04 #@! TO.C,REF\u002A\u002A*
X96440520Y-120253200D03*
G04 #@! TD*
D33*
G04 #@! TO.C,SW31*
X154543750Y-115362510D03*
X159543750Y-113162510D03*
D34*
X151243750Y-115362510D03*
X162843750Y-113162510D03*
G04 #@! TD*
D33*
G04 #@! TO.C,SW23*
X168831250Y-96312510D03*
X173831250Y-94112510D03*
D34*
X165531250Y-96312510D03*
X177131250Y-94112510D03*
G04 #@! TD*
D40*
G04 #@! TO.C,J2*
X84851158Y-46124842D03*
X91744812Y-47340380D03*
D41*
X95359339Y-45845322D03*
X86259150Y-48505505D03*
X89213574Y-49026450D03*
X93152805Y-49721043D03*
G04 #@! TD*
M02*
