G04 #@! TF.GenerationSoftware,KiCad,Pcbnew,(6.0.8)*
G04 #@! TF.CreationDate,2023-03-04T13:52:04+09:00*
G04 #@! TF.ProjectId,ma8ic_split_69_left,6d613869-635f-4737-906c-69745f36395f,0.1*
G04 #@! TF.SameCoordinates,Original*
G04 #@! TF.FileFunction,Profile,NP*
%FSLAX46Y46*%
G04 Gerber Fmt 4.6, Leading zero omitted, Abs format (unit mm)*
G04 Created by KiCad (PCBNEW (6.0.8)) date 2023-03-04 13:52:04*
%MOMM*%
%LPD*%
G01*
G04 APERTURE LIST*
G04 #@! TA.AperFunction,Profile*
%ADD10C,0.100000*%
G04 #@! TD*
G04 #@! TA.AperFunction,Profile*
%ADD11C,0.150000*%
G04 #@! TD*
G04 #@! TA.AperFunction,Profile*
%ADD12C,0.120000*%
G04 #@! TD*
G04 APERTURE END LIST*
D10*
X87722550Y-30956332D02*
X85725050Y-30956225D01*
X155019425Y-130968727D02*
G75*
G03*
X99434265Y-155616569I-1056755J-72617843D01*
G01*
X67151300Y-124777475D02*
X83355618Y-33100532D01*
D11*
X233362490Y-33337510D02*
G75*
G03*
X230981300Y-30956210I-2381290J10D01*
G01*
D10*
X85725050Y-30956198D02*
G75*
G03*
X83355618Y-33100532I50J-2381302D01*
G01*
X67151302Y-124777475D02*
G75*
G03*
X68341925Y-128587475I4077798J-816725D01*
G01*
D11*
X155019425Y-130968725D02*
X230981250Y-130968725D01*
D10*
X68341925Y-128587475D02*
X95250050Y-155971850D01*
X230981300Y-30956210D02*
X97062550Y-30956332D01*
X95250093Y-155971796D02*
G75*
G03*
X99434265Y-155616569I1905007J2381196D01*
G01*
D11*
X230981250Y-130968765D02*
G75*
G03*
X233362465Y-128587475I-50J2381265D01*
G01*
X233362550Y-33337510D02*
X233362465Y-128587475D01*
D10*
X223122916Y-42862510D02*
G75*
G03*
X223122916Y-42862510I-1666666J0D01*
G01*
X218956250Y-42862510D02*
X223956250Y-42862510D01*
X221456250Y-40362510D02*
X221456250Y-45362510D01*
X223122916Y-42862510D02*
G75*
G03*
X223122916Y-42862510I-1666666J0D01*
G01*
X218956250Y-42862510D02*
X223956250Y-42862510D01*
X221456250Y-40362510D02*
X221456250Y-45362510D01*
D12*
G04 #@! TO.C,D43*
X172031110Y-103820455D02*
X172031110Y-106920455D01*
X172031110Y-106920455D02*
X175631110Y-106920455D01*
X175631110Y-103820455D02*
X172031110Y-103820455D01*
X175631110Y-106920455D02*
X175631110Y-103820455D01*
G04 #@! TO.C,D55*
X194681126Y-68820423D02*
X194681126Y-65720423D01*
X191081126Y-68820423D02*
X194681126Y-68820423D01*
X194681126Y-65720423D02*
X191081126Y-65720423D01*
X191081126Y-65720423D02*
X191081126Y-68820423D01*
D10*
G04 #@! TO.C,J1*
X87722550Y-37606332D02*
X87722550Y-30956332D01*
X97062550Y-37606332D02*
X87722550Y-37606332D01*
X97062550Y-30956332D02*
X97062550Y-37606332D01*
D12*
G04 #@! TO.C,D66*
X200606134Y-39054773D02*
X204206134Y-39054773D01*
X200606134Y-35954773D02*
X200606134Y-39054773D01*
X204206134Y-35954773D02*
X200606134Y-35954773D01*
X204206134Y-39054773D02*
X204206134Y-35954773D01*
G04 #@! TO.C,D54*
X218493646Y-68820423D02*
X218493646Y-65720423D01*
X214893646Y-68820423D02*
X218493646Y-68820423D01*
X218493646Y-65720423D02*
X214893646Y-65720423D01*
X214893646Y-65720423D02*
X214893646Y-68820423D01*
G04 #@! TO.C,D37*
X121503253Y-133471569D02*
X124980586Y-132539821D01*
X124178247Y-129545451D02*
X120700914Y-130477199D01*
X120700914Y-130477199D02*
X121503253Y-133471569D01*
X124980586Y-132539821D02*
X124178247Y-129545451D01*
G04 #@! TO.C,D63*
X143456086Y-35954773D02*
X143456086Y-39054773D01*
X147056086Y-35954773D02*
X143456086Y-35954773D01*
X147056086Y-39054773D02*
X147056086Y-35954773D01*
X143456086Y-39054773D02*
X147056086Y-39054773D01*
G04 #@! TO.C,D62*
X124406070Y-35954773D02*
X124406070Y-39054773D01*
X128006070Y-35954773D02*
X124406070Y-35954773D01*
X128006070Y-39054773D02*
X128006070Y-35954773D01*
X124406070Y-39054773D02*
X128006070Y-39054773D01*
G04 #@! TO.C,D41*
X219656150Y-125970471D02*
X223256150Y-125970471D01*
X219656150Y-122870471D02*
X219656150Y-125970471D01*
X223256150Y-125970471D02*
X223256150Y-122870471D01*
X223256150Y-122870471D02*
X219656150Y-122870471D01*
G04 #@! TO.C,D50*
X143456086Y-87870439D02*
X147056086Y-87870439D01*
X147056086Y-87870439D02*
X147056086Y-84770439D01*
X147056086Y-84770439D02*
X143456086Y-84770439D01*
X143456086Y-84770439D02*
X143456086Y-87870439D01*
G04 #@! TO.C,D67*
X223256150Y-35954773D02*
X219656150Y-35954773D01*
X223256150Y-39054773D02*
X223256150Y-35954773D01*
X219656150Y-35954773D02*
X219656150Y-39054773D01*
X219656150Y-39054773D02*
X223256150Y-39054773D01*
G04 #@! TO.C,D59*
X118481062Y-68820423D02*
X118481062Y-65720423D01*
X114881062Y-65720423D02*
X114881062Y-68820423D01*
X118481062Y-65720423D02*
X114881062Y-65720423D01*
X114881062Y-68820423D02*
X118481062Y-68820423D01*
G04 #@! TO.C,D39*
X185156118Y-125970471D02*
X185156118Y-122870471D01*
X181556118Y-122870471D02*
X181556118Y-125970471D01*
X185156118Y-122870471D02*
X181556118Y-122870471D01*
X181556118Y-125970471D02*
X185156118Y-125970471D01*
G04 #@! TO.C,D56*
X175631110Y-68820423D02*
X175631110Y-65720423D01*
X172031110Y-68820423D02*
X175631110Y-68820423D01*
X175631110Y-65720423D02*
X172031110Y-65720423D01*
X172031110Y-65720423D02*
X172031110Y-68820423D01*
G04 #@! TO.C,D58*
X133931078Y-68820423D02*
X137531078Y-68820423D01*
X137531078Y-65720423D02*
X133931078Y-65720423D01*
X137531078Y-68820423D02*
X137531078Y-65720423D01*
X133931078Y-65720423D02*
X133931078Y-68820423D01*
G04 #@! TO.C,D47*
X99431046Y-103820455D02*
X95831046Y-103820455D01*
X99431046Y-106920455D02*
X99431046Y-103820455D01*
X95831046Y-103820455D02*
X95831046Y-106920455D01*
X95831046Y-106920455D02*
X99431046Y-106920455D01*
G04 #@! TO.C,D40*
X200606134Y-125970471D02*
X204206134Y-125970471D01*
X200606134Y-122870471D02*
X200606134Y-125970471D01*
X204206134Y-125970471D02*
X204206134Y-122870471D01*
X204206134Y-122870471D02*
X200606134Y-122870471D01*
G04 #@! TO.C,D65*
X185156118Y-39054773D02*
X185156118Y-35954773D01*
X181556118Y-35954773D02*
X181556118Y-39054773D01*
X185156118Y-35954773D02*
X181556118Y-35954773D01*
X181556118Y-39054773D02*
X185156118Y-39054773D01*
G04 #@! TO.C,D36*
X84149942Y-137046733D02*
X86695527Y-139592318D01*
X86695527Y-139592318D02*
X88887558Y-137400287D01*
X88887558Y-137400287D02*
X86341973Y-134854702D01*
X86341973Y-134854702D02*
X84149942Y-137046733D01*
G04 #@! TO.C,D46*
X118481062Y-103820455D02*
X114881062Y-103820455D01*
X118481062Y-106920455D02*
X118481062Y-103820455D01*
X114881062Y-103820455D02*
X114881062Y-106920455D01*
X114881062Y-106920455D02*
X118481062Y-106920455D01*
G04 #@! TO.C,D38*
X157743750Y-125970471D02*
X161343750Y-125970471D01*
X161343750Y-122870471D02*
X157743750Y-122870471D01*
X157743750Y-122870471D02*
X157743750Y-125970471D01*
X161343750Y-125970471D02*
X161343750Y-122870471D01*
G04 #@! TO.C,D45*
X137531078Y-103820455D02*
X133931078Y-103820455D01*
X137531078Y-106920455D02*
X137531078Y-103820455D01*
X133931078Y-106920455D02*
X137531078Y-106920455D01*
X133931078Y-103820455D02*
X133931078Y-106920455D01*
G04 #@! TO.C,D42*
X208968638Y-106920455D02*
X208968638Y-103820455D01*
X208968638Y-103820455D02*
X205368638Y-103820455D01*
X205368638Y-103820455D02*
X205368638Y-106920455D01*
X205368638Y-106920455D02*
X208968638Y-106920455D01*
G04 #@! TO.C,D52*
X181556118Y-87870439D02*
X185156118Y-87870439D01*
X185156118Y-87870439D02*
X185156118Y-84770439D01*
X181556118Y-84770439D02*
X181556118Y-87870439D01*
X185156118Y-84770439D02*
X181556118Y-84770439D01*
G04 #@! TO.C,D57*
X152981094Y-68820423D02*
X156581094Y-68820423D01*
X152981094Y-65720423D02*
X152981094Y-68820423D01*
X156581094Y-65720423D02*
X152981094Y-65720423D01*
X156581094Y-68820423D02*
X156581094Y-65720423D01*
G04 #@! TO.C,D48*
X105356054Y-84770439D02*
X105356054Y-87870439D01*
X108956054Y-84770439D02*
X105356054Y-84770439D01*
X105356054Y-87870439D02*
X108956054Y-87870439D01*
X108956054Y-87870439D02*
X108956054Y-84770439D01*
G04 #@! TO.C,D53*
X210131142Y-84770439D02*
X210131142Y-87870439D01*
X213731142Y-87870439D02*
X213731142Y-84770439D01*
X210131142Y-87870439D02*
X213731142Y-87870439D01*
X213731142Y-84770439D02*
X210131142Y-84770439D01*
G04 #@! TO.C,D61*
X108956054Y-35954773D02*
X105356054Y-35954773D01*
X105356054Y-39054773D02*
X108956054Y-39054773D01*
X108956054Y-39054773D02*
X108956054Y-35954773D01*
X105356054Y-35954773D02*
X105356054Y-39054773D01*
G04 #@! TO.C,D44*
X156581094Y-106920455D02*
X156581094Y-103820455D01*
X156581094Y-103820455D02*
X152981094Y-103820455D01*
X152981094Y-103820455D02*
X152981094Y-106920455D01*
X152981094Y-106920455D02*
X156581094Y-106920455D01*
G04 #@! TO.C,D51*
X162506102Y-84770439D02*
X162506102Y-87870439D01*
X166106102Y-84770439D02*
X162506102Y-84770439D01*
X166106102Y-87870439D02*
X166106102Y-84770439D01*
X162506102Y-87870439D02*
X166106102Y-87870439D01*
G04 #@! TO.C,D64*
X166106102Y-39054773D02*
X166106102Y-35954773D01*
X166106102Y-35954773D02*
X162506102Y-35954773D01*
X162506102Y-35954773D02*
X162506102Y-39054773D01*
X162506102Y-39054773D02*
X166106102Y-39054773D01*
G04 #@! TO.C,D49*
X128006070Y-87870439D02*
X128006070Y-84770439D01*
X128006070Y-84770439D02*
X124406070Y-84770439D01*
X124406070Y-87870439D02*
X128006070Y-87870439D01*
X124406070Y-84770439D02*
X124406070Y-87870439D01*
G04 #@! TO.C,D60*
X95831046Y-65720423D02*
X95831046Y-68820423D01*
X99431046Y-68820423D02*
X99431046Y-65720423D01*
X95831046Y-68820423D02*
X99431046Y-68820423D01*
X99431046Y-65720423D02*
X95831046Y-65720423D01*
G04 #@! TD*
M02*
