G04 #@! TF.GenerationSoftware,KiCad,Pcbnew,(6.0.8)*
G04 #@! TF.CreationDate,2023-02-18T22:21:53+09:00*
G04 #@! TF.ProjectId,ma8ic_split_69_left,6d613869-635f-4737-906c-69745f36395f,0.1*
G04 #@! TF.SameCoordinates,Original*
G04 #@! TF.FileFunction,Soldermask,Bot*
G04 #@! TF.FilePolarity,Negative*
%FSLAX46Y46*%
G04 Gerber Fmt 4.6, Leading zero omitted, Abs format (unit mm)*
G04 Created by KiCad (PCBNEW (6.0.8)) date 2023-02-18 22:21:53*
%MOMM*%
%LPD*%
G01*
G04 APERTURE LIST*
G04 Aperture macros list*
%AMRoundRect*
0 Rectangle with rounded corners*
0 $1 Rounding radius*
0 $2 $3 $4 $5 $6 $7 $8 $9 X,Y pos of 4 corners*
0 Add a 4 corners polygon primitive as box body*
4,1,4,$2,$3,$4,$5,$6,$7,$8,$9,$2,$3,0*
0 Add four circle primitives for the rounded corners*
1,1,$1+$1,$2,$3*
1,1,$1+$1,$4,$5*
1,1,$1+$1,$6,$7*
1,1,$1+$1,$8,$9*
0 Add four rect primitives between the rounded corners*
20,1,$1+$1,$2,$3,$4,$5,0*
20,1,$1+$1,$4,$5,$6,$7,0*
20,1,$1+$1,$6,$7,$8,$9,0*
20,1,$1+$1,$8,$9,$2,$3,0*%
%AMHorizOval*
0 Thick line with rounded ends*
0 $1 width*
0 $2 $3 position (X,Y) of the first rounded end (center of the circle)*
0 $4 $5 position (X,Y) of the second rounded end (center of the circle)*
0 Add line between two ends*
20,1,$1,$2,$3,$4,$5,0*
0 Add two circle primitives to create the rounded ends*
1,1,$1,$2,$3*
1,1,$1,$4,$5*%
%AMRotRect*
0 Rectangle, with rotation*
0 The origin of the aperture is its center*
0 $1 length*
0 $2 width*
0 $3 Rotation angle, in degrees counterclockwise*
0 Add horizontal line*
21,1,$1,$2,0,0,$3*%
G04 Aperture macros list end*
%ADD10C,0.010000*%
%ADD11C,3.000000*%
%ADD12R,2.600000X2.600000*%
%ADD13RotRect,2.600000X2.600000X45.000000*%
%ADD14C,2.200000*%
%ADD15C,2.000000*%
%ADD16C,1.700000*%
%ADD17RotRect,2.600000X2.600000X345.000000*%
%ADD18C,1.200000*%
%ADD19HorizOval,1.700000X-0.393923X-0.069459X0.393923X0.069459X0*%
%ADD20R,1.000000X1.400000*%
%ADD21RoundRect,0.225000X0.250000X-0.225000X0.250000X0.225000X-0.250000X0.225000X-0.250000X-0.225000X0*%
%ADD22RoundRect,0.200000X0.200000X0.275000X-0.200000X0.275000X-0.200000X-0.275000X0.200000X-0.275000X0*%
%ADD23R,1.700000X1.000000*%
%ADD24RoundRect,0.218750X-0.170929X-0.290343X0.259924X-0.214371X0.170929X0.290343X-0.259924X0.214371X0*%
%ADD25R,0.230000X0.850000*%
%ADD26C,0.600000*%
%ADD27O,1.200000X2.400000*%
%ADD28R,0.460000X0.850000*%
%ADD29RoundRect,0.200000X0.275000X-0.200000X0.275000X0.200000X-0.275000X0.200000X-0.275000X-0.200000X0*%
%ADD30RotRect,1.700000X1.000000X165.000000*%
%ADD31RoundRect,0.200000X-0.275000X0.200000X-0.275000X-0.200000X0.275000X-0.200000X0.275000X0.200000X0*%
%ADD32RotRect,1.400000X1.000000X135.000000*%
%ADD33RotRect,0.400000X1.900000X45.000000*%
%ADD34RoundRect,0.200000X-0.200000X-0.275000X0.200000X-0.275000X0.200000X0.275000X-0.200000X0.275000X0*%
%ADD35RoundRect,0.225000X-0.250000X0.225000X-0.250000X-0.225000X0.250000X-0.225000X0.250000X0.225000X0*%
%ADD36RotRect,1.500000X0.550000X225.000000*%
%ADD37RotRect,1.500000X0.550000X135.000000*%
%ADD38RotRect,1.700000X1.000000X225.000000*%
%ADD39RotRect,1.400000X1.000000X75.000000*%
%ADD40RotRect,1.700000X1.700000X345.000000*%
%ADD41HorizOval,1.700000X0.000000X0.000000X0.000000X0.000000X0*%
G04 APERTURE END LIST*
G04 #@! TO.C,J1*
G36*
X183845000Y-33665732D02*
G01*
X182987810Y-33665732D01*
X182987810Y-31064062D01*
X183845000Y-31064062D01*
X183845000Y-33665732D01*
G37*
D10*
X183845000Y-33665732D02*
X182987810Y-33665732D01*
X182987810Y-31064062D01*
X183845000Y-31064062D01*
X183845000Y-33665732D01*
G36*
X194145000Y-33665732D02*
G01*
X193345110Y-33665732D01*
X193345110Y-31065702D01*
X194145000Y-31065702D01*
X194145000Y-33665732D01*
G37*
X194145000Y-33665732D02*
X193345110Y-33665732D01*
X193345110Y-31065702D01*
X194145000Y-31065702D01*
X194145000Y-33665732D01*
G04 #@! TD*
D11*
G04 #@! TO.C,SW6*
X135731300Y-47571910D03*
X130731300Y-45371910D03*
D12*
X127431300Y-45371910D03*
X139031300Y-47571910D03*
G04 #@! TD*
D11*
G04 #@! TO.C,SW33*
X191419289Y-126007581D03*
X186328120Y-127987480D03*
D13*
X193752741Y-123674129D03*
X183994668Y-130320932D03*
G04 #@! TD*
D14*
G04 #@! TO.C,*
X50006292Y-32146875D03*
G04 #@! TD*
D11*
G04 #@! TO.C,SW26*
X169306300Y-95121910D03*
X164306300Y-92921910D03*
D12*
X172606300Y-95121910D03*
X161006300Y-92921910D03*
G04 #@! TD*
D11*
G04 #@! TO.C,SW21*
X173831300Y-73871910D03*
X178831300Y-76071910D03*
D12*
X182131300Y-76071910D03*
X170531300Y-73871910D03*
G04 #@! TD*
D14*
G04 #@! TO.C,*
X196453290Y-52982857D03*
G04 #@! TD*
D11*
G04 #@! TO.C,SW20*
X154781300Y-73871910D03*
X159781300Y-76071910D03*
D12*
X163081300Y-76071910D03*
X151481300Y-73871910D03*
G04 #@! TD*
D11*
G04 #@! TO.C,SW28*
X64531300Y-114171910D03*
X59531300Y-111971910D03*
D12*
X67831300Y-114171910D03*
X56231300Y-111971910D03*
G04 #@! TD*
D14*
G04 #@! TO.C,*
X126206356Y-32146875D03*
G04 #@! TD*
D11*
G04 #@! TO.C,SW4*
X97631300Y-47571910D03*
X92631300Y-45371910D03*
D12*
X89331300Y-45371910D03*
X100931300Y-47571910D03*
G04 #@! TD*
D11*
G04 #@! TO.C,SW25*
X145256300Y-92921910D03*
X150256300Y-95121910D03*
D12*
X153556300Y-95121910D03*
X141956300Y-92921910D03*
G04 #@! TD*
D11*
G04 #@! TO.C,SW11*
X112156300Y-57021910D03*
X107156300Y-54821910D03*
D12*
X115456300Y-57021910D03*
X103856300Y-54821910D03*
G04 #@! TD*
D11*
G04 #@! TO.C,SW12*
X126206300Y-54821910D03*
X131206300Y-57021910D03*
D12*
X134506300Y-57021910D03*
X122906300Y-54821910D03*
G04 #@! TD*
D11*
G04 #@! TO.C,SW29*
X78581300Y-111971910D03*
X83581300Y-114171910D03*
D12*
X86881300Y-114171910D03*
X75281300Y-111971910D03*
G04 #@! TD*
D11*
G04 #@! TO.C,SW30*
X97631300Y-111971910D03*
X102631300Y-114171910D03*
D12*
X105931300Y-114171910D03*
X94331300Y-111971910D03*
G04 #@! TD*
D14*
G04 #@! TO.C,*
X50006292Y-51196875D03*
G04 #@! TD*
D11*
G04 #@! TO.C,SW2*
X54531300Y-45371910D03*
X59531300Y-47571910D03*
D12*
X51231300Y-45371910D03*
X62831300Y-47571910D03*
G04 #@! TD*
D14*
G04 #@! TO.C,*
X126206356Y-87511011D03*
G04 #@! TD*
D11*
G04 #@! TO.C,SW27*
X183356300Y-92921910D03*
X188356300Y-95121910D03*
D12*
X191656300Y-95121910D03*
X180056300Y-92921910D03*
G04 #@! TD*
D11*
G04 #@! TO.C,SW9*
X64293800Y-54821910D03*
X69293800Y-57021910D03*
D12*
X72593800Y-57021910D03*
X60993800Y-54821910D03*
G04 #@! TD*
D11*
G04 #@! TO.C,SW17*
X97631300Y-73871910D03*
X102631300Y-76071910D03*
D12*
X105931300Y-76071910D03*
X94331300Y-73871910D03*
G04 #@! TD*
D11*
G04 #@! TO.C,SW19*
X135731300Y-73871910D03*
X140731300Y-76071910D03*
D12*
X144031300Y-76071910D03*
X132431300Y-73871910D03*
G04 #@! TD*
D11*
G04 #@! TO.C,SW8*
X168831300Y-45371910D03*
X173831300Y-47571910D03*
D12*
X165531300Y-45371910D03*
X177131300Y-47571910D03*
G04 #@! TD*
D11*
G04 #@! TO.C,SW15*
X183356300Y-54821910D03*
X188356300Y-57021910D03*
D12*
X191656300Y-57021910D03*
X180056300Y-54821910D03*
G04 #@! TD*
D14*
G04 #@! TO.C,REF\u002A\u002A*
X97631332Y-52982857D03*
G04 #@! TD*
D11*
G04 #@! TO.C,SW10*
X93106300Y-57021910D03*
X88106300Y-54821910D03*
D12*
X96406300Y-57021910D03*
X84806300Y-54821910D03*
G04 #@! TD*
D15*
G04 #@! TO.C,SW1*
X197079659Y-58116694D03*
X198208373Y-64517944D03*
G04 #@! TD*
D11*
G04 #@! TO.C,SW16*
X69056300Y-73871910D03*
X74056300Y-76071910D03*
D12*
X77356300Y-76071910D03*
X65756300Y-73871910D03*
G04 #@! TD*
D16*
G04 #@! TO.C,J3*
X199589789Y-107419117D03*
X202091201Y-106978050D03*
X204592613Y-106536984D03*
X207094025Y-106095917D03*
G04 #@! TD*
D14*
G04 #@! TO.C,REF\u002A\u002A*
X69056308Y-108942279D03*
G04 #@! TD*
D11*
G04 #@! TO.C,SW13*
X145256300Y-54821910D03*
X150256300Y-57021910D03*
D12*
X153556300Y-57021910D03*
X141956300Y-54821910D03*
G04 #@! TD*
D11*
G04 #@! TO.C,SW24*
X131206300Y-95121910D03*
X126206300Y-92921910D03*
D12*
X134506300Y-95121910D03*
X122906300Y-92921910D03*
G04 #@! TD*
D11*
G04 #@! TO.C,SW7*
X154781300Y-47571910D03*
X149781300Y-45371910D03*
D12*
X146481300Y-45371910D03*
X158081300Y-47571910D03*
G04 #@! TD*
D11*
G04 #@! TO.C,SW3*
X78581300Y-47571910D03*
X73581300Y-45371910D03*
D12*
X70281300Y-45371910D03*
X81881300Y-47571910D03*
G04 #@! TD*
D11*
G04 #@! TO.C,SW22*
X78818812Y-95121910D03*
X73818812Y-92921910D03*
D12*
X82118812Y-95121910D03*
X70518812Y-92921910D03*
G04 #@! TD*
D11*
G04 #@! TO.C,SW32*
X165331060Y-122735830D03*
X161070832Y-119316698D03*
D17*
X168518615Y-123589933D03*
X157883277Y-118462595D03*
G04 #@! TD*
D11*
G04 #@! TO.C,SW18*
X121681300Y-76071910D03*
X116681300Y-73871910D03*
D12*
X124981300Y-76071910D03*
X113381300Y-73871910D03*
G04 #@! TD*
D11*
G04 #@! TO.C,SW5*
X116681300Y-47571910D03*
X111681300Y-45371910D03*
D12*
X108381300Y-45371910D03*
X119981300Y-47571910D03*
G04 #@! TD*
D14*
G04 #@! TO.C,REF\u002A\u002A*
X173831396Y-52982857D03*
G04 #@! TD*
D11*
G04 #@! TO.C,SW14*
X169306300Y-57021910D03*
X164306300Y-54821910D03*
D12*
X172606300Y-57021910D03*
X161006300Y-54821910D03*
G04 #@! TD*
D14*
G04 #@! TO.C,REF\u002A\u002A*
X184547030Y-119062600D03*
G04 #@! TD*
D11*
G04 #@! TO.C,SW31*
X126443800Y-114171910D03*
X121443800Y-111971910D03*
D12*
X129743800Y-114171910D03*
X118143800Y-111971910D03*
G04 #@! TD*
D11*
G04 #@! TO.C,SW23*
X112156300Y-95121910D03*
X107156300Y-92921910D03*
D12*
X115456300Y-95121910D03*
X103856300Y-92921910D03*
G04 #@! TD*
D18*
G04 #@! TO.C,J2*
X196136392Y-44934242D03*
X189242738Y-46149780D03*
D19*
X185628211Y-44654722D03*
X194728400Y-47314905D03*
X191773976Y-47835850D03*
X187834745Y-48530443D03*
G04 #@! TD*
D20*
G04 #@! TO.C,D33*
X113109570Y-120837680D03*
X113109570Y-117287680D03*
G04 #@! TD*
D21*
G04 #@! TO.C,C6*
X197167500Y-69831250D03*
X197167500Y-68281250D03*
G04 #@! TD*
D20*
G04 #@! TO.C,D8*
X144065846Y-42256364D03*
X144065846Y-38706364D03*
G04 #@! TD*
D22*
G04 #@! TO.C,R2*
X187753125Y-40243125D03*
X186103125Y-40243125D03*
G04 #@! TD*
D21*
G04 #@! TO.C,C7*
X198596250Y-69831250D03*
X198596250Y-68281250D03*
G04 #@! TD*
D23*
G04 #@! TO.C,D43*
X104406440Y-103479855D03*
X104406440Y-104879855D03*
X109906440Y-104879855D03*
X109906440Y-103479855D03*
G04 #@! TD*
D24*
G04 #@! TO.C,D3*
X206631339Y-98482373D03*
X208182411Y-98208877D03*
G04 #@! TD*
D23*
G04 #@! TO.C,D55*
X85356424Y-65379823D03*
X85356424Y-66779823D03*
X90856424Y-66779823D03*
X90856424Y-65379823D03*
G04 #@! TD*
D25*
G04 #@! TO.C,J1*
X186395000Y-37890732D03*
X186795000Y-37890732D03*
X187195000Y-37890732D03*
X187595000Y-37890732D03*
X187995000Y-37890732D03*
X188395000Y-37890732D03*
X188795000Y-37890732D03*
X189195000Y-37890732D03*
X189595000Y-37890732D03*
X189995000Y-37890732D03*
X190395000Y-37890732D03*
X190795000Y-37890732D03*
X191995000Y-37890732D03*
X191595000Y-37890732D03*
X191195000Y-37890732D03*
D26*
X190595000Y-36965732D03*
X189795000Y-36965732D03*
X188995000Y-36965732D03*
X188195000Y-36965732D03*
X187395000Y-36965732D03*
X186595000Y-36965732D03*
D25*
X185995000Y-37890732D03*
X185595000Y-37890732D03*
X185195000Y-37890732D03*
D27*
X183045000Y-37415732D03*
D28*
X184680000Y-37890732D03*
X192510000Y-37890732D03*
D27*
X194145000Y-37415732D03*
X183045000Y-32365732D03*
X194145000Y-32365732D03*
G04 #@! TD*
D23*
G04 #@! TO.C,D66*
X75831416Y-35614173D03*
X75831416Y-37014173D03*
X81331416Y-37014173D03*
X81331416Y-35614173D03*
G04 #@! TD*
D20*
G04 #@! TO.C,D10*
X165497114Y-42256364D03*
X165497114Y-38706364D03*
G04 #@! TD*
D29*
G04 #@! TO.C,R6*
X201811207Y-84168900D03*
X201811207Y-82518900D03*
G04 #@! TD*
D20*
G04 #@! TO.C,D17*
X175022122Y-63687632D03*
X175022122Y-60137632D03*
G04 #@! TD*
D23*
G04 #@! TO.C,D54*
X61543904Y-65379823D03*
X61543904Y-66779823D03*
X67043904Y-66779823D03*
X67043904Y-65379823D03*
G04 #@! TD*
D22*
G04 #@! TO.C,R8*
X202993125Y-97155000D03*
X201343125Y-97155000D03*
G04 #@! TD*
D30*
G04 #@! TO.C,D37*
X155671677Y-128930010D03*
X155309331Y-130282306D03*
X160621923Y-131705810D03*
X160984269Y-130353514D03*
G04 #@! TD*
D20*
G04 #@! TO.C,D24*
X65484530Y-101787664D03*
X65484530Y-98237664D03*
G04 #@! TD*
D31*
G04 #@! TO.C,R10*
X200977500Y-103584375D03*
X200977500Y-105234375D03*
G04 #@! TD*
D20*
G04 #@! TO.C,D14*
X117872074Y-63687632D03*
X117872074Y-60137632D03*
G04 #@! TD*
G04 #@! TO.C,D29*
X175022122Y-101787664D03*
X175022122Y-98237664D03*
G04 #@! TD*
G04 #@! TO.C,D20*
X108347066Y-82737648D03*
X108347066Y-79187648D03*
G04 #@! TD*
G04 #@! TO.C,D4*
X67865782Y-42256364D03*
X67865782Y-38706364D03*
G04 #@! TD*
G04 #@! TO.C,D28*
X155972106Y-101787664D03*
X155972106Y-98237664D03*
G04 #@! TD*
D23*
G04 #@! TO.C,D63*
X132981464Y-35614173D03*
X132981464Y-37014173D03*
X138481464Y-37014173D03*
X138481464Y-35614173D03*
G04 #@! TD*
D20*
G04 #@! TO.C,D26*
X117872074Y-101787664D03*
X117872074Y-98237664D03*
G04 #@! TD*
D32*
G04 #@! TO.C,D35*
X186397558Y-139963124D03*
X183887328Y-137452894D03*
G04 #@! TD*
D31*
G04 #@! TO.C,R11*
X199548750Y-103584375D03*
X199548750Y-105234375D03*
G04 #@! TD*
D23*
G04 #@! TO.C,D62*
X152031480Y-35614173D03*
X152031480Y-37014173D03*
X157531480Y-37014173D03*
X157531480Y-35614173D03*
G04 #@! TD*
G04 #@! TO.C,D41*
X56781400Y-122529871D03*
X56781400Y-123929871D03*
X62281400Y-123929871D03*
X62281400Y-122529871D03*
G04 #@! TD*
G04 #@! TO.C,D50*
X132981464Y-84429839D03*
X132981464Y-85829839D03*
X138481464Y-85829839D03*
X138481464Y-84429839D03*
G04 #@! TD*
G04 #@! TO.C,D67*
X56781400Y-35614173D03*
X56781400Y-37014173D03*
X62281400Y-37014173D03*
X62281400Y-35614173D03*
G04 #@! TD*
D20*
G04 #@! TO.C,D27*
X136922090Y-101787664D03*
X136922090Y-98237664D03*
G04 #@! TD*
G04 #@! TO.C,D15*
X136922090Y-63687632D03*
X136922090Y-60137632D03*
G04 #@! TD*
D33*
G04 #@! TO.C,X1*
X198581427Y-86573680D03*
X199429955Y-85725152D03*
X200278483Y-84876624D03*
G04 #@! TD*
D23*
G04 #@! TO.C,D59*
X161556488Y-65379823D03*
X161556488Y-66779823D03*
X167056488Y-66779823D03*
X167056488Y-65379823D03*
G04 #@! TD*
D29*
G04 #@! TO.C,R7*
X183951817Y-81073125D03*
X183951817Y-79423125D03*
G04 #@! TD*
D34*
G04 #@! TO.C,R4*
X189436875Y-40243125D03*
X191086875Y-40243125D03*
G04 #@! TD*
D35*
G04 #@! TO.C,C2*
X198596250Y-71257953D03*
X198596250Y-72807953D03*
G04 #@! TD*
D23*
G04 #@! TO.C,D39*
X94881432Y-122529871D03*
X94881432Y-123929871D03*
X100381432Y-123929871D03*
X100381432Y-122529871D03*
G04 #@! TD*
D20*
G04 #@! TO.C,D21*
X127397082Y-82737648D03*
X127397082Y-79187648D03*
G04 #@! TD*
D36*
G04 #@! TO.C,U1*
X194083594Y-72913086D03*
X194649279Y-73478772D03*
X195214964Y-74044457D03*
X195780650Y-74610142D03*
X196346335Y-75175828D03*
X196912021Y-75741513D03*
X197477706Y-76307199D03*
X198043392Y-76872884D03*
X198609077Y-77438570D03*
X199174762Y-78004255D03*
X199740448Y-78569940D03*
D37*
X199740448Y-80974104D03*
X199174762Y-81539789D03*
X198609077Y-82105474D03*
X198043392Y-82671160D03*
X197477706Y-83236845D03*
X196912021Y-83802531D03*
X196346335Y-84368216D03*
X195780650Y-84933902D03*
X195214964Y-85499587D03*
X194649279Y-86065272D03*
X194083594Y-86630958D03*
D36*
X191679430Y-86630958D03*
X191113745Y-86065272D03*
X190548060Y-85499587D03*
X189982374Y-84933902D03*
X189416689Y-84368216D03*
X188851003Y-83802531D03*
X188285318Y-83236845D03*
X187719632Y-82671160D03*
X187153947Y-82105474D03*
X186588262Y-81539789D03*
X186022576Y-80974104D03*
D37*
X186022576Y-78569940D03*
X186588262Y-78004255D03*
X187153947Y-77438570D03*
X187719632Y-76872884D03*
X188285318Y-76307199D03*
X188851003Y-75741513D03*
X189416689Y-75175828D03*
X189982374Y-74610142D03*
X190548060Y-74044457D03*
X191113745Y-73478772D03*
X191679430Y-72913086D03*
G04 #@! TD*
D20*
G04 #@! TO.C,D7*
X125015830Y-42256364D03*
X125015830Y-38706364D03*
G04 #@! TD*
G04 #@! TO.C,D31*
X70247034Y-120837680D03*
X70247034Y-117287680D03*
G04 #@! TD*
G04 #@! TO.C,D22*
X146447098Y-82737648D03*
X146447098Y-79187648D03*
G04 #@! TD*
G04 #@! TO.C,D19*
X89297050Y-82737648D03*
X89297050Y-79187648D03*
G04 #@! TD*
D23*
G04 #@! TO.C,D56*
X104406440Y-65379823D03*
X104406440Y-66779823D03*
X109906440Y-66779823D03*
X109906440Y-65379823D03*
G04 #@! TD*
G04 #@! TO.C,D58*
X142506472Y-65379823D03*
X142506472Y-66779823D03*
X148006472Y-66779823D03*
X148006472Y-65379823D03*
G04 #@! TD*
D20*
G04 #@! TO.C,D18*
X60722026Y-82737648D03*
X60722026Y-79187648D03*
G04 #@! TD*
D23*
G04 #@! TO.C,D47*
X180606504Y-103479855D03*
X180606504Y-104879855D03*
X186106504Y-104879855D03*
X186106504Y-103479855D03*
G04 #@! TD*
D20*
G04 #@! TO.C,D23*
X165497114Y-82737648D03*
X165497114Y-79187648D03*
G04 #@! TD*
D34*
G04 #@! TO.C,R3*
X189436875Y-41671875D03*
X191086875Y-41671875D03*
G04 #@! TD*
D20*
G04 #@! TO.C,D16*
X155972106Y-63687632D03*
X155972106Y-60137632D03*
G04 #@! TD*
G04 #@! TO.C,D25*
X98822058Y-101787664D03*
X98822058Y-98237664D03*
G04 #@! TD*
D23*
G04 #@! TO.C,D40*
X75831416Y-122529871D03*
X75831416Y-123929871D03*
X81331416Y-123929871D03*
X81331416Y-122529871D03*
G04 #@! TD*
D22*
G04 #@! TO.C,R5*
X202993125Y-95369061D03*
X201343125Y-95369061D03*
G04 #@! TD*
D23*
G04 #@! TO.C,D65*
X94881432Y-35614173D03*
X94881432Y-37014173D03*
X100381432Y-37014173D03*
X100381432Y-35614173D03*
G04 #@! TD*
D20*
G04 #@! TO.C,D32*
X89297050Y-120837680D03*
X89297050Y-117287680D03*
G04 #@! TD*
D38*
G04 #@! TO.C,D36*
X192029282Y-137482479D03*
X193019231Y-138472428D03*
X196908318Y-134583341D03*
X195918369Y-133593392D03*
G04 #@! TD*
D20*
G04 #@! TO.C,D12*
X79772042Y-63687632D03*
X79772042Y-60137632D03*
G04 #@! TD*
G04 #@! TO.C,D5*
X86915798Y-42256364D03*
X86915798Y-38706364D03*
G04 #@! TD*
D39*
G04 #@! TO.C,D34*
X150750198Y-125539702D03*
X151669006Y-122110666D03*
G04 #@! TD*
D21*
G04 #@! TO.C,C4*
X194310000Y-69831250D03*
X194310000Y-68281250D03*
G04 #@! TD*
D23*
G04 #@! TO.C,D46*
X161556488Y-103479855D03*
X161556488Y-104879855D03*
X167056488Y-104879855D03*
X167056488Y-103479855D03*
G04 #@! TD*
G04 #@! TO.C,D38*
X118693800Y-122529871D03*
X118693800Y-123929871D03*
X124193800Y-123929871D03*
X124193800Y-122529871D03*
G04 #@! TD*
G04 #@! TO.C,D45*
X142506472Y-103479855D03*
X142506472Y-104879855D03*
X148006472Y-104879855D03*
X148006472Y-103479855D03*
G04 #@! TD*
G04 #@! TO.C,D42*
X71068912Y-103479855D03*
X71068912Y-104879855D03*
X76568912Y-104879855D03*
X76568912Y-103479855D03*
G04 #@! TD*
D22*
G04 #@! TO.C,R1*
X187753125Y-41671875D03*
X186103125Y-41671875D03*
G04 #@! TD*
D23*
G04 #@! TO.C,D52*
X94881432Y-84429839D03*
X94881432Y-85829839D03*
X100381432Y-85829839D03*
X100381432Y-84429839D03*
G04 #@! TD*
D21*
G04 #@! TO.C,C1*
X191452500Y-69831250D03*
X191452500Y-68281250D03*
G04 #@! TD*
D23*
G04 #@! TO.C,D57*
X123456456Y-65379823D03*
X123456456Y-66779823D03*
X128956456Y-66779823D03*
X128956456Y-65379823D03*
G04 #@! TD*
G04 #@! TO.C,D48*
X171081496Y-84429839D03*
X171081496Y-85829839D03*
X176581496Y-85829839D03*
X176581496Y-84429839D03*
G04 #@! TD*
G04 #@! TO.C,D53*
X66306408Y-84429839D03*
X66306408Y-85829839D03*
X71806408Y-85829839D03*
X71806408Y-84429839D03*
G04 #@! TD*
D20*
G04 #@! TO.C,D13*
X98822058Y-63687632D03*
X98822058Y-60137632D03*
G04 #@! TD*
G04 #@! TO.C,D30*
X51197018Y-120837680D03*
X51197018Y-117287680D03*
G04 #@! TD*
D23*
G04 #@! TO.C,D61*
X171081496Y-35614173D03*
X171081496Y-37014173D03*
X176581496Y-37014173D03*
X176581496Y-35614173D03*
G04 #@! TD*
D24*
G04 #@! TO.C,D1*
X205678839Y-95148623D03*
X207229911Y-94875127D03*
G04 #@! TD*
D21*
G04 #@! TO.C,C3*
X192881250Y-69831250D03*
X192881250Y-68281250D03*
G04 #@! TD*
D23*
G04 #@! TO.C,D44*
X123456456Y-103479855D03*
X123456456Y-104879855D03*
X128956456Y-104879855D03*
X128956456Y-103479855D03*
G04 #@! TD*
D20*
G04 #@! TO.C,D11*
X55959522Y-63687632D03*
X55959522Y-60137632D03*
G04 #@! TD*
D21*
G04 #@! TO.C,C5*
X195738750Y-69831250D03*
X195738750Y-68281250D03*
G04 #@! TD*
D23*
G04 #@! TO.C,D51*
X113931448Y-84429839D03*
X113931448Y-85829839D03*
X119431448Y-85829839D03*
X119431448Y-84429839D03*
G04 #@! TD*
G04 #@! TO.C,D64*
X113931448Y-35614173D03*
X113931448Y-37014173D03*
X119431448Y-37014173D03*
X119431448Y-35614173D03*
G04 #@! TD*
D40*
G04 #@! TO.C,J4*
X145837183Y-128587500D03*
D41*
X146494583Y-126134048D03*
X147151984Y-123680597D03*
X147809384Y-121227145D03*
X148466784Y-118773694D03*
X149124185Y-116320242D03*
X149781585Y-113866790D03*
G04 #@! TD*
D24*
G04 #@! TO.C,D2*
X206155089Y-96815498D03*
X207706161Y-96542002D03*
G04 #@! TD*
D34*
G04 #@! TO.C,R9*
X201343125Y-98940939D03*
X202993125Y-98940939D03*
G04 #@! TD*
D20*
G04 #@! TO.C,D6*
X105965814Y-42256364D03*
X105965814Y-38706364D03*
G04 #@! TD*
G04 #@! TO.C,D9*
X163115862Y-42256364D03*
X163115862Y-38706364D03*
G04 #@! TD*
D23*
G04 #@! TO.C,D49*
X152031480Y-84429839D03*
X152031480Y-85829839D03*
X157531480Y-85829839D03*
X157531480Y-84429839D03*
G04 #@! TD*
G04 #@! TO.C,D60*
X180606504Y-65379823D03*
X180606504Y-66779823D03*
X186106504Y-66779823D03*
X186106504Y-65379823D03*
G04 #@! TD*
M02*
