M48
; DRILL file {KiCad (6.0.8)} date Sat Mar  4 13:52:06 2023
; FORMAT={-:-/ absolute / metric / decimal}
; #@! TF.CreationDate,2023-03-04T13:52:06+09:00
; #@! TF.GenerationSoftware,Kicad,Pcbnew,(6.0.8)
; #@! TF.FileFunction,MixedPlating,1,2
FMAT,2
METRIC
; #@! TA.AperFunction,Plated,PTH,ViaDrill
T1C0.200
; #@! TA.AperFunction,Plated,PTH,ViaDrill
T2C0.300
; #@! TA.AperFunction,Plated,PTH,ComponentDrill
T3C0.400
; #@! TA.AperFunction,Plated,PTH,ComponentDrill
T4C0.600
; #@! TA.AperFunction,Plated,PTH,ComponentDrill
T5C1.000
; #@! TA.AperFunction,Plated,PTH,ComponentDrill
T6C1.300
; #@! TA.AperFunction,NonPlated,NPTH,ComponentDrill
T7C1.200
; #@! TA.AperFunction,NonPlated,NPTH,ComponentDrill
T8C1.900
; #@! TA.AperFunction,NonPlated,NPTH,ComponentDrill
T9C2.200
; #@! TA.AperFunction,NonPlated,NPTH,ComponentDrill
T10C3.000
; #@! TA.AperFunction,NonPlated,NPTH,ComponentDrill
T11C5.000
%
G90
G05
T1
X73.837Y-120.231
X73.837Y-122.612
X73.837Y-124.994
X76.2Y-120.253
X76.2Y-122.634
X76.2Y-125.016
X78.819Y-120.253
X78.819Y-122.634
X78.819Y-125.016
X79.296Y-82.629
X80.248Y-107.394
X80.486Y-96.441
X80.486Y-98.346
X81.801Y-66.723
X82.153Y-77.152
X82.238Y-80.784
X82.358Y-103.856
X82.391Y-91.202
X82.391Y-104.537
X82.868Y-132.509
X82.894Y-80.222
X83.456Y-79.659
X84.058Y-73.104
X84.285Y-90.487
X84.589Y-88.365
X84.894Y-104.862
X84.982Y-87.97
X85.249Y-79.296
X85.519Y-88.097
X85.725Y-39.291
X85.725Y-41.672
X85.725Y-44.053
X86.401Y-84.296
X86.546Y-111.362
X86.885Y-72.063
X87.019Y-110.878
X87.392Y-77.152
X87.552Y-110.347
X87.581Y-71.972
X87.926Y-109.941
X88.106Y-83.344
X88.354Y-123.568
X88.743Y-75.801
X89.059Y-43.339
X89.268Y-97.965
X89.403Y-59.878
X89.421Y-56.512
X89.421Y-94.612
X89.535Y-40.481
X89.535Y-52.149
X90.206Y-76.659
X90.208Y-85.286
X90.488Y-102.87
X90.726Y-43.577
X90.726Y-90.249
X91.202Y-65.484
X91.202Y-67.866
X91.202Y-70.247
X91.678Y-81.439
X92.154Y-40.481
X92.363Y-75.534
X92.393Y-41.196
X92.393Y-41.91
X92.393Y-42.624
X92.458Y-83.036
X92.869Y-115.491
X92.926Y-91.107
X93.915Y-80.368
X94.298Y-148.828
X95.25Y-40.481
X95.25Y-115.491
X95.726Y-42.386
X95.964Y-80.486
X96.679Y-148.828
X96.917Y-87.154
X97.631Y-115.491
X98.362Y-73.581
X98.441Y-84.909
X98.87Y-75.562
X98.87Y-78.915
X99.06Y-44.291
X99.06Y-148.828
X99.528Y-80.523
X99.956Y-79.941
X100.013Y-46.434
X100.013Y-48.816
X100.013Y-51.197
X101.766Y-67.588
X102.172Y-38.783
X102.283Y-104.823
X102.283Y-107.842
X102.68Y-69.517
X102.68Y-88.313
X103.188Y-37.513
X103.746Y-50.416
X104.458Y-105.331
X104.775Y-33.099
X104.966Y-102.791
X105.019Y-64.941
X105.728Y-88.821
X107.156Y-33.099
X107.55Y-71.878
X108.318Y-56.512
X108.318Y-59.865
X108.318Y-94.612
X108.318Y-98.117
X108.597Y-129.081
X109.238Y-129.482
X109.538Y-33.099
X109.925Y-34.941
X110.808Y-67.231
X111.062Y-123.415
X111.919Y-71.914
X114.3Y-71.914
X114.488Y-83.878
X114.776Y-50.482
X115.491Y-38.633
X115.491Y-45.006
X116.681Y-71.914
X117.158Y-50.482
X117.872Y-38.633
X117.872Y-45.006
X117.92Y-75.562
X117.92Y-78.915
X119.539Y-50.482
X120.968Y-38.275
X121.222Y-88.059
X126.206Y-115.491
X127.216Y-94.612
X127.368Y-56.512
X127.368Y-59.865
X127.368Y-97.965
X127.368Y-107.718
X128.588Y-115.491
X128.962Y-34.941
X129.858Y-67.231
X129.858Y-105.077
X130.969Y-71.676
X130.999Y-108.898
X132.269Y-69.742
X133.16Y-85.519
X133.35Y-71.676
X134.531Y-48.282
X135.255Y-50.721
X135.731Y-71.676
X136.922Y-38.633
X136.922Y-45.006
X136.97Y-75.562
X136.97Y-78.915
X137.636Y-50.721
X140.006Y-108.898
X140.018Y-50.721
X140.018Y-105.077
X140.272Y-38.275
X140.272Y-87.805
X140.494Y-115.491
X140.494Y-117.872
X140.494Y-120.253
X145.199Y-107.718
X145.256Y-33.099
X146.418Y-56.512
X146.418Y-59.865
X146.418Y-94.612
X146.571Y-97.965
X146.876Y-108.328
X147.638Y-33.099
X147.987Y-34.941
X148.908Y-67.231
X148.908Y-105.077
X150.019Y-33.099
X150.019Y-71.676
X150.019Y-127.397
X151.143Y-113.662
X151.319Y-69.742
X152.21Y-85.519
X152.4Y-71.676
X152.4Y-127.397
X153.581Y-48.282
X154.781Y-50.721
X154.781Y-71.676
X154.781Y-127.397
X155.972Y-38.633
X155.972Y-44.767
X156.02Y-75.562
X156.02Y-78.915
X157.163Y-50.721
X159.045Y-108.909
X159.068Y-38.275
X159.068Y-105.077
X159.322Y-87.805
X159.544Y-50.721
X159.782Y-33.099
X162.163Y-33.099
X164.544Y-33.099
X165.468Y-56.512
X165.468Y-59.865
X165.621Y-94.612
X165.621Y-97.965
X165.621Y-107.718
X166.411Y-108.909
X166.434Y-123.619
X167.075Y-34.941
X167.958Y-67.231
X167.958Y-105.077
X169.069Y-71.676
X169.431Y-108.328
X170.244Y-69.771
X171.212Y-113.824
X171.212Y-116.205
X171.212Y-118.586
X171.26Y-85.519
X171.45Y-71.676
X172.631Y-48.282
X173.831Y-71.676
X174.917Y-113.662
X175.022Y-38.633
X175.022Y-45.006
X175.07Y-75.562
X175.07Y-78.915
X178.118Y-38.275
X178.118Y-105.077
X178.14Y-108.909
X178.372Y-87.805
X184.518Y-56.512
X184.518Y-59.865
X186.1Y-34.941
X187.008Y-67.231
X188.119Y-96.441
X190.184Y-69.742
X190.287Y-108.909
X190.31Y-85.519
X190.31Y-123.619
X190.5Y-88.106
X190.5Y-96.441
X191.681Y-48.282
X192.881Y-71.676
X192.881Y-88.106
X192.881Y-96.441
X194.072Y-38.633
X194.072Y-45.006
X194.12Y-107.718
X194.12Y-113.662
X195.263Y-71.676
X195.263Y-88.106
X196.914Y-105.331
X197.168Y-38.275
X197.644Y-71.676
X198.844Y-94.612
X198.844Y-97.965
X201.74Y-105.331
X202.406Y-53.578
X203.721Y-75.562
X203.721Y-78.915
X204.788Y-53.578
X204.788Y-129.778
X205.187Y-34.941
X207.169Y-53.578
X207.169Y-129.778
X208.293Y-56.512
X208.293Y-59.865
X208.852Y-110.157
X209.36Y-123.619
X209.55Y-71.437
X209.55Y-129.778
X210.731Y-48.13
X211.931Y-71.437
X213.122Y-38.633
X213.122Y-45.006
X213.17Y-113.662
X214.313Y-71.437
X216.694Y-40.005
X216.694Y-91.678
X219.012Y-87.043
X219.075Y-91.678
X221.456Y-33.099
X221.456Y-91.678
X221.456Y-129.778
X223.838Y-33.099
X223.838Y-129.778
X224.212Y-34.941
X226.124Y-104.315
X226.219Y-33.099
X226.219Y-77.391
X226.219Y-79.772
X226.219Y-82.153
X226.219Y-96.441
X226.219Y-98.822
X226.219Y-101.203
X226.219Y-129.778
X227.409Y-40.243
X227.409Y-60.722
X227.409Y-63.103
X227.409Y-65.484
X227.949Y-108.136
X228.41Y-123.619
X229.781Y-48.282
X230.95Y-123.365
T2
X209.868Y-67.231
X221.044Y-65.453
T3
X90.393Y-38.156
X91.193Y-38.156
X91.993Y-38.156
X92.793Y-38.156
X93.593Y-38.156
X94.393Y-38.156
T5
X73.894Y-107.287
X76.395Y-107.728
X78.896Y-108.169
X81.398Y-108.61
X131.206Y-115.057
X131.863Y-117.511
X132.521Y-119.964
X133.178Y-122.418
X133.836Y-124.871
X134.493Y-127.325
X135.15Y-129.778
T6
X82.779Y-65.709
X83.908Y-59.307
T7
X84.851Y-46.125
X91.745Y-47.34
T8
X86.598Y-129.461
X92.131Y-61.913
X92.131Y-100.013
X94.377Y-137.239
X101.656Y-42.863
X101.656Y-80.963
X103.131Y-61.913
X103.131Y-100.013
X111.181Y-61.913
X111.181Y-100.013
X112.656Y-42.863
X112.656Y-80.963
X116.131Y-127.63
X120.706Y-42.863
X120.706Y-80.963
X122.181Y-61.913
X122.181Y-100.013
X126.756Y-124.783
X130.231Y-61.913
X130.231Y-100.013
X131.706Y-42.863
X131.706Y-80.963
X139.756Y-42.863
X139.756Y-80.963
X141.231Y-61.913
X141.231Y-100.013
X149.281Y-61.913
X149.281Y-100.013
X150.756Y-42.863
X150.756Y-80.963
X154.044Y-119.063
X158.806Y-42.863
X158.806Y-80.963
X160.281Y-61.913
X160.281Y-100.013
X165.044Y-119.063
X168.331Y-61.913
X168.331Y-100.013
X169.806Y-42.863
X169.806Y-80.963
X177.856Y-42.863
X177.856Y-80.963
X177.856Y-119.063
X179.331Y-61.913
X179.331Y-100.013
X187.381Y-61.913
X188.856Y-42.863
X188.856Y-80.963
X188.856Y-119.063
X196.906Y-42.863
X196.906Y-119.063
X198.381Y-61.913
X201.669Y-100.013
X206.431Y-80.963
X207.906Y-42.863
X207.906Y-119.063
X211.194Y-61.913
X212.669Y-100.013
X215.956Y-42.863
X215.956Y-119.063
X217.431Y-80.963
X222.194Y-61.913
X226.956Y-42.863
X226.956Y-119.063
T9
X84.534Y-54.173
X96.441Y-120.253
X107.156Y-54.173
X154.781Y-33.337
X154.781Y-88.702
X183.356Y-54.173
X211.931Y-110.133
X230.981Y-33.337
X230.981Y-52.387
T10
X89.568Y-127.198
X92.631Y-58.213
X92.631Y-96.313
X94.659Y-129.178
X97.631Y-56.013
X97.631Y-94.113
X102.156Y-77.263
X107.156Y-48.763
X107.156Y-75.063
X111.681Y-58.213
X111.681Y-96.313
X112.156Y-46.563
X115.656Y-123.926
X116.681Y-56.013
X116.681Y-94.113
X119.917Y-120.507
X121.206Y-77.263
X126.206Y-48.763
X126.206Y-75.063
X130.731Y-58.213
X130.731Y-96.313
X131.206Y-46.563
X135.731Y-56.013
X135.731Y-94.113
X140.256Y-77.263
X145.256Y-48.763
X145.256Y-75.063
X149.781Y-58.213
X149.781Y-96.313
X150.256Y-46.563
X154.544Y-115.363
X154.781Y-56.013
X154.781Y-94.113
X159.306Y-77.263
X159.544Y-113.163
X164.306Y-48.763
X164.306Y-75.063
X168.831Y-58.213
X168.831Y-96.313
X169.306Y-46.563
X173.831Y-56.013
X173.831Y-94.113
X178.356Y-77.263
X178.356Y-115.363
X183.356Y-48.763
X183.356Y-75.063
X183.356Y-113.163
X187.881Y-58.213
X188.356Y-46.563
X192.881Y-56.013
X197.406Y-115.363
X202.169Y-96.313
X202.406Y-48.763
X202.406Y-113.163
X206.931Y-77.263
X207.169Y-94.113
X207.406Y-46.563
X211.694Y-58.213
X211.931Y-75.063
X216.456Y-115.363
X216.694Y-56.013
X221.456Y-48.763
X221.456Y-113.163
X226.456Y-46.563
T11
X90.487Y-133.35
X97.631Y-61.913
X97.631Y-100.013
X107.156Y-42.863
X107.156Y-80.963
X116.681Y-61.913
X116.681Y-100.013
X121.444Y-126.206
X126.206Y-42.863
X126.206Y-80.963
X135.731Y-61.913
X135.731Y-100.013
X145.256Y-42.863
X145.256Y-80.963
X154.781Y-61.913
X154.781Y-100.013
X159.544Y-119.063
X164.306Y-42.863
X164.306Y-80.963
X173.831Y-61.913
X173.831Y-100.013
X183.356Y-42.863
X183.356Y-80.963
X183.356Y-119.063
X192.881Y-61.913
X202.406Y-42.863
X202.406Y-119.063
X207.169Y-100.013
X211.931Y-80.963
X216.694Y-61.913
X221.456Y-42.863
X221.456Y-119.063
T4
G00X86.843Y-34.106
M15
G01X86.843Y-33.006
M16
G05
G00X86.843Y-39.156
M15
G01X86.843Y-38.056
M16
G05
G00X97.943Y-34.106
M15
G01X97.943Y-33.006
M16
G05
G00X97.943Y-39.156
M15
G01X97.943Y-38.056
M16
G05
T5
G00X86.505Y-48.549
M15
G01X86.013Y-48.462
M16
G05
G00X89.46Y-49.07
M15
G01X88.967Y-48.983
M16
G05
G00X93.399Y-49.764
M15
G01X92.907Y-49.678
M16
G05
G00X95.606Y-45.889
M15
G01X95.113Y-45.802
M16
G05
T0
M30
